<svg width="96" height="23" viewBox="0 0 96 23" fill="none" xmlns="http://www.w3.org/2000/svg">
<path d="M0 1.20655H2.37616L6.63462 6.60401V1.20655H9.00577V10.3125H6.56149L2.37616 4.87999V10.3125H0V1.20655Z" fill="white"/>
<path d="M17.037 7.6603C17.5239 7.16043 17.7743 6.50729 17.7743 5.70989C17.7743 4.9736 17.5239 4.35552 17.025 3.85664C16.5261 3.35677 15.896 3.10733 15.1467 3.10733C14.3864 3.10733 13.7673 3.36879 13.2684 3.86766C12.7805 4.36754 12.5311 5.00866 12.5311 5.78202C12.5311 6.55437 12.7695 7.18447 13.2574 7.68435C13.7322 8.1712 14.3623 8.42064 15.1347 8.42064C15.908 8.42064 16.5371 8.1712 17.037 7.6603ZM11.5444 9.25309C10.5937 8.32547 10.1289 7.16043 10.1289 5.74595C10.1289 4.32046 10.6178 3.14339 11.6045 2.21577C12.5672 1.32321 13.7442 0.872416 15.1587 0.872416C16.5732 0.872416 17.7743 1.33623 18.737 2.26285C19.6997 3.17845 20.1755 4.32046 20.1755 5.66381C20.1755 7.11335 19.6876 8.31445 18.7129 9.26512C17.7503 10.1807 16.5612 10.6445 15.1467 10.6445C13.6831 10.6445 12.484 10.1807 11.5444 9.25309Z" fill="white"/>
<path d="M24.5592 5.30773C25.3796 5.30773 25.7833 4.92707 25.7833 4.16674C25.7833 3.40641 25.3916 3.02474 24.5832 3.02474H23.8429V5.30773H24.5592ZM21.4688 1.20655H25.0941C25.9987 1.20655 26.723 1.45699 27.305 1.94384C27.899 2.46676 28.2096 3.16799 28.2096 4.05955C28.2096 5.31976 27.6856 6.15221 26.6398 6.5449L29.0771 10.3125H26.2351L24.3217 7.10288H23.8429V10.3125H21.4688V1.20655Z" fill="white"/>
<path d="M31.3024 3.58071H29.375V1.20555H35.6039V3.58071H33.6755V10.3125H31.3024V3.58071Z" fill="white"/>
<path d="M37.1016 1.20555H39.4757V4.42319H42.8096V1.20555H45.1847V10.3125H42.8096V6.79835H39.4757V10.3125H37.1016V1.20555Z" fill="white"/>
<path d="M50.0474 5.30773C50.8669 5.30773 51.2716 4.92707 51.2716 4.16674C51.2716 3.40641 50.8799 3.02474 50.0705 3.02474H49.3312V5.30773H50.0474ZM46.957 1.20655H50.5824C51.486 1.20655 52.2112 1.45699 52.7933 1.94384C53.3873 2.46676 53.6968 3.16799 53.6968 4.05955C53.6968 5.31976 53.1739 6.15221 52.1281 6.5449L54.5654 10.3125H51.7234L49.81 7.10288H49.3312V10.3125H46.957V1.20655Z" fill="white"/>
<path d="M61.8143 7.66037C62.3011 7.16049 62.5506 6.50735 62.5506 5.70995C62.5506 4.97366 62.3011 4.35558 61.8013 3.8567C61.3024 3.35683 60.6723 3.10739 59.923 3.10739C59.1636 3.10739 58.5436 3.36885 58.0447 3.86772C57.5588 4.3676 57.3084 5.00872 57.3084 5.78208C57.3084 6.55443 57.5458 7.18453 58.0337 7.68441C58.5085 8.17126 59.1396 8.4207 59.912 8.4207C60.6853 8.4207 61.3144 8.17126 61.8143 7.66037ZM56.3227 9.25316C55.37 8.32553 54.9062 7.16049 54.9062 5.74601C54.9062 4.32052 55.395 3.14346 56.3818 2.21583C57.3445 1.32327 58.5215 0.872478 59.936 0.872478C61.3515 0.872478 62.5506 1.33629 63.5133 2.26291C64.4759 3.17852 64.9528 4.32052 64.9528 5.66387C64.9528 7.11341 64.4649 8.31451 63.4902 9.26518C62.5275 10.1808 61.3375 10.6446 59.923 10.6446C58.4604 10.6446 57.2613 10.1808 56.3227 9.25316Z" fill="white"/>
<path d="M69.6 5.39088C70.5387 5.39088 71.0025 4.98617 71.0025 4.16674C71.0025 3.38236 70.5507 3.0017 69.6231 3.0017H68.8127V5.39088H69.6ZM66.4375 1.20655H70.5036C71.3832 1.20655 72.0964 1.49105 72.6073 2.08609C73.1202 2.63305 73.3686 3.36934 73.3686 4.2619C73.3686 5.1174 73.1202 5.80661 72.6073 6.32952C72.1084 6.86446 71.4192 7.13894 70.5747 7.13894H68.8127V10.3125H66.4375V1.20655Z" fill="white"/>
<path d="M11.4602 20.7336C10.5807 19.8059 10.1289 18.6409 10.1289 17.2505C10.1289 15.8831 10.5807 14.73 11.4602 13.7904C12.3748 12.8287 13.5048 12.3529 14.8612 12.3529C16.6914 12.3529 18.0578 13.1132 18.9734 14.6349L17.0721 15.6817C17.025 15.5625 16.9278 15.4313 16.7856 15.277C16.2757 14.707 15.6205 14.4215 14.8361 14.4215C14.0518 14.4215 13.4688 14.73 13.0771 15.3361C12.7445 15.847 12.5772 16.5132 12.5772 17.3456C12.5772 18.1891 12.7795 18.8433 13.1722 19.3311C13.601 19.866 14.2311 20.1275 15.0505 20.1275C15.5264 20.1275 15.9661 19.9732 16.3588 19.6757C16.7856 19.3541 17.025 18.9745 17.0721 18.5107H14.9804V16.6083H19.5444V17.1082C19.5444 18.6529 19.1637 19.866 18.3904 20.7456C17.582 21.6612 16.4169 22.125 14.8832 22.125C13.4928 22.125 12.3528 21.6612 11.4602 20.7336Z" fill="white"/>
<path d="M24.0474 16.7882C24.8669 16.7882 25.2716 16.4075 25.2716 15.6472C25.2716 14.8859 24.8799 14.5052 24.0705 14.5052H23.3312V16.7882H24.0474ZM20.957 12.687H24.5824C25.486 12.687 26.2112 12.9375 26.7933 13.4243C27.3883 13.9472 27.6968 14.6485 27.6968 15.54C27.6968 16.8002 27.1739 17.6327 26.1281 18.0254L28.5654 21.793H25.7234L23.81 18.5833H23.3312V21.793H20.957V12.687Z" fill="white"/>
<path d="M30.5884 21.3286C29.779 20.7225 29.3633 19.8901 29.3633 18.8443V12.6855H31.7404V18.3444C31.7404 19.4383 32.2874 19.9853 33.3823 19.9853C33.8682 19.9853 34.2879 19.854 34.5744 19.5926C34.8699 19.3201 35.0252 18.9394 35.0252 18.4636V12.6855H37.4004V18.5828C37.4004 19.7358 37.0067 20.6274 36.2103 21.2695C35.486 21.8395 34.5233 22.125 33.3332 22.125C32.2393 22.125 31.3247 21.8635 30.5884 21.3286Z" fill="white"/>
<path d="M44.4606 17.3923L47.4678 12.686H47.4718H49.843V21.793H47.4718V16.4486H47.4678L45.1007 20.1631H43.8415L41.4623 16.4486H41.4583V21.793H39.0781V12.686H41.4583L44.4606 17.3923Z" fill="white"/>
<path d="M57.1793 17.3923L60.1856 12.686H60.1896H62.5617V21.793H60.1896V16.4486H60.1856L57.8194 20.1631H56.5602L54.1811 16.4486H54.172L54.171 21.793H51.7969V12.686H54.176L57.1793 17.3923Z" fill="white"/>
<path d="M69.4405 18.2738L68.4778 15.4919L67.5031 18.2738H69.4405ZM67.1505 12.686H69.8692L73.2451 21.793H70.6766L70.0585 20.105H66.91L66.303 21.793H63.7695L67.1505 12.686Z" fill="white"/>
<path d="M74.5549 12.686H76.933L81.1214 18.0834V12.686H83.4945V21.7929H81.1164L76.931 16.3594V21.7929H74.5549V12.686Z" fill="white"/>
<path d="M74.5547 1.20491V3.58208H93.6241V21.793H96.0002V1.20491H74.5547Z" fill="white"/>
</svg>
