<svg width="39" height="41" viewBox="0 0 39 41" fill="none" xmlns="http://www.w3.org/2000/svg">
<g clip-path="url(#clip0_676_4102)">
<path d="M8.84127 16.667V16.4177C8.98484 16.3602 9.11988 16.2834 9.24261 16.1893C9.27805 16.1599 9.30285 16.1197 9.31321 16.0748C9.35654 15.8803 9.37704 15.6813 9.37427 15.482C9.39398 15.0317 9.40416 14.764 9.40416 14.6768V12.0106C9.40416 11.5641 9.39398 11.1246 9.37427 10.6953C9.38376 10.5066 9.35898 10.3179 9.30112 10.1381C9.25553 10.0751 9.18978 10.0295 9.11477 10.009C8.87301 9.96799 8.62779 9.95095 8.38269 9.9581V9.64453C9.22035 9.66488 9.73681 9.67506 9.93716 9.67506C10.1566 9.67506 10.6497 9.66488 11.4166 9.64453V9.9581C11.167 9.95091 10.9174 9.96795 10.6711 10.009C10.5983 10.0268 10.5338 10.0693 10.4886 10.1292C10.4304 10.2817 10.4038 10.4444 10.4104 10.6075C10.4053 10.6736 10.3951 11.1405 10.3805 12.0112V15.3415C10.3805 15.6894 10.3904 15.9722 10.4104 16.19C10.8028 16.2103 10.846 16.2198 11.2328 16.2198C11.9327 16.2484 12.6334 16.1883 13.3183 16.0411C13.3678 15.9311 13.4078 15.817 13.4379 15.7002L13.6452 14.881H13.9855C13.9098 15.3714 13.8356 15.947 13.7629 16.6078C13.6521 16.6298 13.5402 16.6462 13.4277 16.6568C13.249 16.6638 12.9729 16.667 12.6015 16.667L9.84748 16.6371C9.51801 16.6371 9.18155 16.6473 8.84127 16.667Z" fill="white"/>
<path d="M17.6571 16.3534V16.667C16.9276 16.6466 16.4493 16.6371 16.2197 16.6371L14.6366 16.667V16.3534C14.8814 16.3604 15.1263 16.3421 15.3674 16.2987C15.4396 16.28 15.5043 16.2393 15.5525 16.1823C15.6086 16.0297 15.6347 15.8678 15.6294 15.7053C15.6333 15.6359 15.6428 15.1663 15.6581 14.2965V12.008C15.6581 11.5616 15.6485 11.1235 15.6294 10.694C15.6381 10.5055 15.6129 10.317 15.555 10.1374C15.5088 10.0745 15.4427 10.029 15.3674 10.0083C15.126 9.96767 14.8813 9.95063 14.6366 9.95744V9.64453C15.2879 9.66488 15.7935 9.67442 16.1484 9.67442C16.4906 9.67442 16.9925 9.66488 17.6571 9.64453V9.95742C17.4108 9.95044 17.1643 9.96748 16.9212 10.0083C16.8488 10.0259 16.785 10.0687 16.7412 10.1292C16.6836 10.2815 16.6574 10.444 16.6643 10.6068C16.6592 10.6717 16.6509 11.1386 16.6344 12.008V14.2964C16.6344 14.7474 16.6407 15.185 16.6509 15.6111C16.6402 15.7997 16.6654 15.9885 16.7253 16.1677C16.7717 16.2311 16.838 16.2772 16.9136 16.2987C17.1589 16.3423 17.4081 16.3607 17.6571 16.3534ZM16.6643 10.6068C16.6592 10.6717 16.6509 11.1386 16.6344 12.008V14.2964" fill="white"/>
<path d="M18.797 16.667V16.3541C19.0373 16.3673 19.278 16.3394 19.5088 16.2714C19.5316 16.2638 19.5527 16.2516 19.5707 16.2355C19.5886 16.2194 19.6031 16.1998 19.6131 16.1779C19.6644 16.0102 19.6891 15.8355 19.6862 15.6601C19.7066 15.2238 19.7161 14.8498 19.7161 14.5344V10.5127C19.7209 10.4408 19.7138 10.3686 19.6951 10.299C19.6476 10.2164 19.5838 10.1443 19.5075 10.0872C19.4461 10.0349 19.3719 9.99977 19.2925 9.98545C19.1138 9.96408 18.9338 9.95494 18.7538 9.9581V9.64453C19.3472 9.66488 19.7225 9.67506 19.8751 9.67506C20.1359 9.67506 20.3909 9.66488 20.6492 9.64453C20.9373 10.0103 21.1489 10.2795 21.2839 10.4523L22.3359 11.7097L23.8713 13.5059C24.3623 14.0783 24.7569 14.5286 25.055 14.8568C25.2439 15.0737 25.4029 15.244 25.532 15.3676V11.7676C25.532 11.4445 25.5225 11.0661 25.5021 10.6361C25.5037 10.4642 25.4812 10.2929 25.4353 10.1273C25.4113 10.0831 25.3726 10.0487 25.3259 10.03C25.0937 9.97023 24.8537 9.946 24.6142 9.9581V9.64453C25.0219 9.66488 25.4328 9.67506 25.8526 9.67506C26.245 9.67506 26.602 9.66488 26.9236 9.64453V9.9581C26.6845 9.94578 26.445 9.97002 26.2132 10.03C26.1898 10.0393 26.1685 10.0532 26.1506 10.0709C26.1327 10.0886 26.1185 10.1097 26.1089 10.133C26.056 10.3012 26.0315 10.477 26.0364 10.6533C26.0167 11.0845 26.0058 11.4591 26.0058 11.7746V14.1502C26.0058 14.6323 26.016 15.5306 26.0364 16.8451H25.525L25.3965 16.7083C25.3768 16.7045 25.3336 16.6517 25.3164 16.6371C25.2466 16.5748 25.181 16.5081 25.1198 16.4374C24.8355 16.1219 24.6261 15.8838 24.4914 15.7231L23.8268 14.9096L20.1721 10.6768V14.5102C20.1721 14.8371 20.181 15.2213 20.2046 15.6659C20.2021 15.8379 20.2241 16.0095 20.2701 16.1753C20.2804 16.1986 20.2955 16.2194 20.3143 16.2365C20.3331 16.2536 20.3553 16.2665 20.3795 16.2745C20.6113 16.3395 20.8521 16.3664 21.0925 16.3541V16.667C20.7904 16.6473 20.4564 16.6371 20.0952 16.6371C19.6964 16.6371 19.2626 16.6473 18.797 16.667Z" fill="white"/>
<path d="M30.8362 16.3534V16.6663C30.1079 16.6467 29.6303 16.6364 29.3987 16.6364L27.8163 16.6663V16.3534C28.0622 16.3604 28.3081 16.3421 28.5503 16.2987C28.6218 16.2799 28.6856 16.2392 28.7328 16.1823C28.7895 16.0299 28.8152 15.8678 28.8085 15.7053C28.8149 15.636 28.8238 15.1659 28.8384 14.2965V12.008C28.8384 11.5609 28.8284 11.1229 28.8085 10.694C28.818 10.5056 28.7932 10.317 28.7354 10.1375C28.6901 10.0741 28.6242 10.0285 28.549 10.0083C28.307 9.96767 28.0616 9.95063 27.8163 9.95746V9.64453C28.4682 9.66425 28.9739 9.67442 29.3294 9.67442C29.671 9.67442 30.1732 9.66446 30.8362 9.64453V9.95746C30.5904 9.95045 30.3446 9.96749 30.1022 10.0083C30.0295 10.0257 29.9652 10.0683 29.9209 10.1286C29.8632 10.2811 29.8373 10.4439 29.8446 10.6069C29.8401 10.6717 29.8306 11.1388 29.816 12.008V14.2965C29.816 14.7474 29.8198 15.185 29.8312 15.6112C29.8205 15.7997 29.8458 15.9886 29.9057 16.1677C29.9522 16.2312 30.0187 16.2774 30.0946 16.2987C30.3392 16.3424 30.5877 16.3608 30.8362 16.3534Z" fill="white"/>
<path d="M38.1961 15.7858L37.9951 16.2469C37.6177 16.4321 37.2204 16.5733 36.8108 16.668C36.397 16.7572 35.9747 16.8005 35.5514 16.7971C35.0486 16.8011 34.5475 16.7369 34.0619 16.6063C33.6345 16.491 33.2294 16.3056 32.8629 16.0574C32.2321 15.6358 31.7616 15.0141 31.5273 14.2924C31.4099 13.9238 31.3522 13.5388 31.3562 13.152C31.3452 12.6611 31.4427 12.1738 31.6416 11.7248C31.8404 11.2758 32.1358 10.8762 32.5068 10.5544C33.3851 9.8272 34.5058 9.45871 35.6443 9.52277C35.9358 9.5218 36.227 9.53901 36.5163 9.57429C36.8446 9.62141 37.1699 9.68702 37.4907 9.77082C37.8755 9.8675 38.1089 9.92347 38.1961 9.94128C38.1234 10.1118 38.0668 10.2888 38.0269 10.4698C37.9675 10.7909 37.9299 11.1156 37.9143 11.4417H37.6033L37.5982 10.8642C37.5805 10.7037 37.5185 10.5514 37.4192 10.4242C37.3199 10.2969 37.1872 10.1998 37.036 10.1435C36.5595 9.964 36.0511 9.88433 35.5425 9.90948C35.1203 9.90592 34.6998 9.96573 34.2953 10.0869C33.958 10.1956 33.6491 10.3779 33.3908 10.6206C33.1166 10.8834 32.8985 11.1991 32.7497 11.5485C32.5712 11.9978 32.4855 12.4785 32.4979 12.9618C32.4785 13.4057 32.5535 13.8487 32.7179 14.2615C32.8824 14.6743 33.1326 15.0475 33.4519 15.3565C34.1407 15.9799 35.0483 16.3054 35.9763 16.2615C36.4206 16.2654 36.863 16.2035 37.2891 16.0777C37.5797 15.9859 37.8554 15.8524 38.1077 15.6815L38.1961 15.7858Z" fill="white"/>
<path d="M7.56326 15.7857L7.36227 16.2468C6.98525 16.4317 6.58834 16.573 6.17925 16.6678C5.76507 16.7571 5.34231 16.8004 4.91863 16.797C4.41576 16.801 3.91467 16.7368 3.42904 16.6061C3.00164 16.4912 2.59643 16.3056 2.23012 16.0572C1.90731 15.8389 1.62314 15.5682 1.38928 15.2565C1.17447 14.9633 1.00765 14.6378 0.895083 14.2923C0.77721 13.9237 0.71923 13.5387 0.723354 13.1518C0.712483 12.661 0.809821 12.1739 1.00846 11.7249C1.20709 11.276 1.50215 10.8763 1.87267 10.5543C2.75183 9.82764 3.87267 9.45925 5.01149 9.52263C5.30295 9.52166 5.59418 9.53887 5.8835 9.57415C6.21174 9.62127 6.53706 9.68689 6.8579 9.77069C7.24143 9.86736 7.4774 9.92333 7.56326 9.94114C7.49116 10.1119 7.43454 10.2888 7.39408 10.4697C7.33455 10.7907 7.29736 11.1154 7.28277 11.4415H6.97175L6.96602 10.864C6.94826 10.7035 6.88621 10.5511 6.78681 10.4239C6.6874 10.2966 6.55456 10.1995 6.40314 10.1434C5.92667 9.96374 5.41832 9.88407 4.90973 9.90934C4.48744 9.90578 4.06701 9.9656 3.66247 10.0868C3.32478 10.1954 3.01543 10.3777 2.75675 10.6204C2.48332 10.8836 2.26571 11.1992 2.1169 11.5484C1.93778 11.9975 1.85208 12.4784 1.86503 12.9617C1.84565 13.4056 1.92066 13.8486 2.08512 14.2614C2.24958 14.6742 2.49974 15.0474 2.81909 15.3563C3.50775 15.98 4.41545 16.3054 5.3435 16.2614C5.78778 16.2654 6.23019 16.2035 6.65628 16.0776C6.94685 15.9858 7.22258 15.8523 7.47485 15.6813L7.56326 15.7857Z" fill="white"/>
<path d="M3.67957 0.629611V0.300781C4.0402 0.326223 4.38514 0.338943 4.71439 0.338943C5.04895 0.338943 5.36823 0.326223 5.67417 0.300781C5.97819 0.959076 6.25571 1.53405 6.50673 2.0257L8.46699 5.86353L10.2377 2.34881C10.7192 1.39226 11.0408 0.709581 11.2026 0.300781C11.5657 0.326223 11.8732 0.338943 12.1248 0.338943C12.3544 0.338943 12.7259 0.326223 13.2423 0.300781V0.629611C12.9924 0.62233 12.7423 0.639371 12.4956 0.680493C12.4232 0.698304 12.3589 0.739977 12.3131 0.798796C12.2515 0.948344 12.225 1.10999 12.2355 1.27137C12.2317 1.33688 12.224 1.80055 12.21 2.66237V4.93111C12.21 5.37824 12.2185 5.81265 12.2355 6.23434C12.2256 6.42093 12.2506 6.60774 12.3093 6.78514C12.3563 6.84883 12.4232 6.89495 12.4994 6.91617C12.7445 6.96014 12.9935 6.97826 13.2423 6.97023V7.2863C12.5484 7.25895 12.0593 7.24814 11.7744 7.24814C11.5441 7.24814 11.0359 7.25895 10.2472 7.2863V6.97023C10.4982 6.97788 10.7493 6.95976 10.9965 6.91617C11.068 6.89977 11.1316 6.85908 11.1765 6.80105C11.2378 6.65031 11.2641 6.48765 11.2535 6.32529C11.2579 6.25596 11.2662 5.7923 11.2789 4.92856V1.32352L9.49609 4.87514C9.21751 5.42785 8.99935 5.87562 8.83971 6.21208C8.72586 6.45631 8.5537 6.84748 8.32325 7.38556H8.12226C8.08808 7.28268 8.04664 7.18236 7.99823 7.08535L7.64587 6.366L5.17679 1.48953V4.92856C5.17679 5.37506 5.18887 5.81074 5.21431 6.23307C5.20375 6.41998 5.22923 6.60718 5.28937 6.78447C5.3361 6.84883 5.40342 6.89528 5.48018 6.91613C5.7263 6.96013 5.97635 6.97825 6.22624 6.97019V7.28626L4.97898 7.2481L3.67957 7.28626V6.97019C3.9284 6.97792 4.17736 6.95981 4.42245 6.91613C4.49506 6.89857 4.56015 6.85823 4.60817 6.80101C4.66543 6.64961 4.69181 6.48828 4.68577 6.32653C4.68959 6.25783 4.69849 5.79353 4.71058 4.93107V2.6624C4.71058 2.21968 4.70231 1.78548 4.68577 1.3598C4.69516 1.17318 4.66993 0.986436 4.61135 0.808998C4.56408 0.746142 4.49714 0.700914 4.42118 0.680519C4.17622 0.639489 3.92784 0.622422 3.67957 0.629611Z" fill="white"/>
<path d="M14.6718 7.255C14.9637 7.255 15.3988 7.26391 15.9827 7.28744V6.97451C15.7577 6.97837 15.5327 6.96283 15.3104 6.92808C15.2441 6.91771 15.1827 6.88679 15.1348 6.83967C15.107 6.80888 15.092 6.76861 15.0929 6.7271C15.1127 6.55317 15.1638 6.38424 15.2436 6.22845L15.8014 4.96147H18.7965L19.437 6.47205C19.4781 6.56022 19.502 6.65541 19.5076 6.75254C19.5083 6.77355 19.5048 6.79451 19.4971 6.81409C19.4895 6.83368 19.4779 6.85148 19.463 6.86639C19.4155 6.90595 19.3577 6.9313 19.2964 6.93953C19.0632 6.96415 18.8287 6.97583 18.5942 6.97451V7.28744L20.2581 7.255C20.4718 7.255 20.8483 7.26391 21.3864 7.28744V6.97451C21.2086 6.98371 21.0304 6.96351 20.8591 6.91473C20.7664 6.86363 20.6915 6.78525 20.6448 6.69021C20.5265 6.48286 20.2882 5.97933 19.9299 5.17963L17.7159 0.238281H17.3896C16.9259 1.29473 16.6251 1.97402 16.482 2.27747L15.1876 5.05439C14.7996 5.85834 14.5749 6.32073 14.5134 6.44158C14.4522 6.58532 14.3692 6.71875 14.2673 6.83716C14.2142 6.8858 14.1506 6.92169 14.0816 6.9421C13.9123 6.96729 13.7413 6.97814 13.5702 6.97454V7.28747C13.9696 7.26393 14.3366 7.255 14.6718 7.255ZM17.2967 1.5867L18.5898 4.5468H15.9789L17.2967 1.5867Z" fill="white"/>
<path d="M25.6824 1.35084C25.8119 1.18233 25.9154 0.995402 25.9896 0.796251C25.9902 0.766952 25.981 0.738284 25.9635 0.714784C25.946 0.691284 25.9212 0.674293 25.8929 0.666501C25.6413 0.625663 25.3864 0.608415 25.1316 0.614982V0.300781C25.7695 0.32177 26.1448 0.331311 26.4997 0.331311C26.8419 0.331311 27.0295 0.32177 27.7069 0.300781V0.614982C27.4845 0.607369 27.262 0.624649 27.0435 0.666501C26.9488 0.68895 26.8594 0.72957 26.7802 0.786107C26.6271 0.928907 26.4912 1.08899 26.375 1.26313L24.8619 3.43073C24.6781 3.69833 24.5136 3.97868 24.3696 4.26966C24.3328 4.36373 24.3136 4.46377 24.313 4.56478V4.93877C24.313 5.38396 24.3213 5.8184 24.3429 6.23819C24.332 6.42493 24.3566 6.61204 24.4154 6.78963C24.4623 6.85237 24.5284 6.89813 24.6037 6.92001C24.8446 6.96267 25.0893 6.98057 25.3338 6.97344V7.28701C24.7735 7.26284 24.2888 7.25393 23.8811 7.25393C23.4893 7.25393 22.971 7.26284 22.3286 7.28701V6.97344C22.574 6.98021 22.8194 6.96231 23.0613 6.92001C23.132 6.9026 23.1947 6.86181 23.2394 6.80426C23.3006 6.65453 23.3283 6.49326 23.3208 6.33168C23.3246 6.26297 23.3346 5.79866 23.3507 4.93877V4.36761C23.2775 4.22068 23.2073 4.0888 23.1402 3.972C23.0918 3.88993 22.9169 3.60859 22.6154 3.12798L21.3001 1.26313C21.2001 1.08962 21.0788 0.929362 20.9388 0.786107C20.8635 0.729332 20.7774 0.688623 20.6857 0.666501C20.4716 0.624059 20.2532 0.606769 20.035 0.614982V0.300781C20.7124 0.32177 20.9159 0.331311 21.2569 0.331311C21.6137 0.331311 22.5238 0.32177 23.1624 0.300781V0.614982C22.8892 0.60977 22.6161 0.627001 22.3457 0.666501C22.3165 0.674457 22.2904 0.691135 22.2708 0.714313C22.2513 0.737492 22.2392 0.766073 22.2363 0.796251C22.2935 0.993723 22.3815 1.18091 22.4971 1.35087L24.0382 3.84031L25.6824 1.35084Z" fill="white"/>
<path d="M28.7795 1.91772C28.9738 1.49091 29.2988 1.13696 29.7075 0.907064C30.1475 0.66724 30.6427 0.546851 31.1437 0.557882C31.5023 0.555104 31.8589 0.610963 32.1995 0.723251C32.4863 0.813423 32.7553 0.952658 32.9945 1.13476C33.1978 1.29778 33.3754 1.49055 33.5212 1.70656C33.673 1.93157 33.7927 2.17669 33.8767 2.43482C34.0245 2.90122 34.0975 3.3881 34.0929 3.87734C34.1038 4.4327 34.001 4.98443 33.7908 5.49859C33.6065 5.94632 33.2878 6.32586 32.8788 6.58494C32.4447 6.84814 31.9443 6.98144 31.4369 6.96906C31.0658 6.9735 30.697 6.91014 30.3486 6.78211C30.013 6.64964 29.709 6.4481 29.4563 6.19056C29.1792 5.90571 28.9608 5.56927 28.8132 5.20032C28.7027 4.93116 28.6194 4.65161 28.5645 4.36584C28.5004 4.05336 28.4676 3.73525 28.4666 3.41624C28.4579 2.89966 28.5648 2.38764 28.7795 1.91772ZM27.6391 5.22003C27.7936 5.66995 28.0455 6.0802 28.3769 6.4215C28.7104 6.75673 29.1155 7.01203 29.5618 7.1682C30.0481 7.33419 30.5586 7.41823 31.0724 7.41689C32.1621 7.45423 33.222 7.0573 34.0192 6.31338C34.3986 5.96341 34.6991 5.53661 34.9007 5.06141C35.1023 4.5862 35.2003 4.07349 35.1882 3.55744C35.1907 3.22987 35.1516 2.9033 35.0718 2.58558C35.0067 2.30969 34.9014 2.04483 34.7595 1.79945C34.5753 1.48508 34.3375 1.20544 34.0567 0.973237C33.7187 0.70014 33.331 0.495159 32.915 0.369641C32.4144 0.211507 31.8918 0.134422 31.3669 0.141305C30.8092 0.131356 30.2543 0.221621 29.7285 0.407803C29.2515 0.583663 28.8144 0.853109 28.4431 1.2003C28.0834 1.52625 27.8054 1.93213 27.6315 2.38523C27.3022 3.30194 27.3049 4.30511 27.6391 5.22003Z" fill="white"/>
<path d="M27.0269 20.0586H21.4826V26.3038C21.4826 29.1685 22.4793 31.165 24.2182 32.5535L24.2169 31.6789C23.1707 30.3805 22.6498 28.7368 22.7572 27.0728V25.4375H24.8568V32.5687C24.8568 35.1688 24.1272 38.4807 19.4842 40.5554C15.072 38.5837 14.193 35.4951 14.1167 32.9612C16.1978 31.5638 17.4088 29.4617 17.4088 26.3038V25.4375H20.8109V24.1508H17.4088L16.1342 24.1502L12.8306 24.1508V31.6459C12.8306 31.9079 12.8376 32.1623 12.8516 32.4123V32.4129C13.3101 32.1173 13.7327 31.7693 14.111 31.3762V25.4375H16.1342V27.0728C16.1342 29.2397 15.7341 31.9251 11.8645 33.6545C7.99487 31.9251 7.59417 29.2397 7.59417 27.0728V21.3345H16.1342V23.5307H17.4088V20.0586H6.32019V26.3038C6.32019 30.4717 8.42928 32.7996 11.8645 34.099C12.2525 33.9527 12.6233 33.7922 12.9769 33.6176C13.5703 37.4045 15.9383 39.658 19.4842 41C23.0193 39.6631 25.3834 37.4185 25.9857 33.6525C26.3177 33.8134 26.6648 33.9623 27.0269 34.099C30.4615 32.7996 32.5712 30.4717 32.5712 26.3038V20.0586H27.0269ZM31.2966 27.0728C31.2966 29.2391 30.8965 31.9251 27.0269 33.6545C26.6938 33.5063 26.3688 33.3407 26.0531 33.1583C26.1106 32.6562 26.1388 32.1512 26.1377 31.6458V24.1508H22.7572V21.3344H31.2966V27.0728Z" fill="white"/>
</g>
<defs>
<clipPath id="clip0_676_4102">
<rect width="37.4738" height="41" fill="white" transform="translate(0.722534)"/>
</clipPath>
</defs>
</svg>
