<svg width="96" height="31" viewBox="0 0 96 31" fill="none" xmlns="http://www.w3.org/2000/svg">
<path d="M25.2733 1.65975C25.3617 1.5713 25.5022 1.69617 25.3895 1.7985C25.3253 1.77422 25.2473 1.6875 25.2733 1.65975ZM22.5001 12.9988C22.6232 12.0865 21.6711 12.0154 20.379 14.0463C19.0852 15.9003 19.7494 17.5809 21.6624 15.4962C21.9659 15.0921 22.0925 14.9343 22.592 14.0238C23.0152 13.0456 22.5001 13.3665 22.5105 13.1254L22.5001 12.9988ZM46.883 2.43847C46.8362 3.12353 46.4859 4.38959 46.2118 5.20126C46.7425 5.17351 47.7328 5.62443 48.2393 6.05281C49.2469 4.64454 50.2043 3.53803 50.9483 2.77493C50.3794 3.28482 47.8768 3.87796 46.883 2.43847ZM88.7688 20.9247C89.6221 22.0988 89.7747 22.1734 90.3592 22.7648C90.765 23.1047 91.5039 23.8488 91.9982 24.1887C94.9413 26.1988 96.1085 23.7395 93.2295 22.2341C92.1889 21.6687 91.0738 21.2438 88.7688 20.9247ZM15.594 13.8157C9.60534 16.3981 5.8748 19.8824 2.45297 24.5546C1.121 26.6619 -0.209228 29.1454 1.11233 30.1791C3.04091 31.2596 6.62923 29.8391 11.0483 21.9844C12.7306 18.9684 14.4649 16.0478 15.594 13.8157ZM85.5811 12.6242C84.8492 13.0057 84.3827 13.2746 83.5034 14.8094C84.6966 14.6169 85.7147 14.3446 86.346 13.5573C87.1247 12.4906 86.2627 12.2652 85.5811 12.6242ZM74.8751 13.1254C75.085 11.9339 73.9837 12.1923 72.6135 14.1868C71.6458 15.5691 72.0083 17.8463 74.3028 15.2291C74.5647 14.8233 74.7156 14.6447 74.9289 14.2146C75.4578 13.1983 74.8768 13.4914 74.889 13.252L74.8751 13.1254ZM54.8263 12.782C53.9192 13.8746 53.9695 13.9249 53.4163 14.8892C52.9896 15.6489 53.0885 16.1466 53.3954 16.3079C53.6799 16.4068 54.0059 16.3044 54.6095 15.72C55.3396 14.7557 55.3882 14.6534 56.1166 13.4359C56.9231 11.8871 55.4801 11.92 54.8263 12.782ZM43.1282 12.2513L42.5698 11.5194C41.4858 12.7404 40.3012 14.1886 38.1316 15.7668C38.9051 16.2056 39.9128 16.3859 40.8424 16.2351C42.3599 15.9246 43.3918 14.4019 44.1202 13.1844L43.1282 12.2513ZM49.0822 7.82183L46.2968 13.4029L46.1477 13.6821C46.857 13.9822 47.9462 14.2302 48.4786 14.2284C49.9129 12.0692 50.0308 9.69664 49.0822 7.82183ZM46.0107 5.6834C45.3273 7.56341 44.1168 9.62726 43.0744 10.8847L42.9478 11.0876C43.2791 11.6946 43.8133 12.3502 44.3977 12.7022C45.5545 10.8482 46.531 8.74276 47.9913 6.53496C47.6323 6.03027 46.4217 5.69207 46.0107 5.6834ZM43.2045 6.68237C42.4275 7.775 42.1552 9.16767 42.6912 10.5586C43.7734 9.26132 45.0048 7.194 45.5042 5.63484C44.6544 5.64177 43.7456 5.96956 43.2045 6.68237ZM90.3818 3.99763C89.3099 4.93937 88.7948 5.81521 88.0924 6.93212L89.1764 6.18115C89.8788 5.65565 90.2378 5.32439 90.7026 4.85786C92.2011 3.28135 91.0113 3.31257 90.3818 3.99763ZM32.2349 4.27512C31.0486 5.64698 30.6965 6.17942 30.171 7.1437C31.0555 6.71012 32.8072 5.00701 33.324 4.32022C33.9519 3.63516 33.3934 2.94142 32.2349 4.27512ZM54.7205 0.126606C52.223 2.2633 51.1287 4.10342 49.3198 7.27551C49.8765 8.28316 50.369 9.43649 50.3864 10.7268L51.3663 9.20235C53.1769 6.4361 55.801 2.95009 59.4569 1.29554C59.4569 1.29554 59.5263 1.35104 59.5332 1.34584L59.509 1.47245C55.9588 3.94213 51.6021 12.5323 50.7523 13.9145C53.3816 12.9156 55.5738 10.7043 56.8728 12.3692L57.1745 11.8871C57.3514 11.8854 58.262 11.8819 58.4649 11.8802L56.4028 15.5379C56.2553 15.9923 56.4357 16.6999 57.3671 15.6072L57.8717 14.9968C59.1187 13.3717 59.4951 12.7109 60.1628 12.253C60.5409 11.8715 61.8555 11.5368 62.1122 12.2947L62.2648 12.6866C63.125 12.2791 63.9436 11.4778 64.8698 12.0813C65.1559 12.3814 65.5566 12.6346 65.0293 13.7255C64.4778 14.5892 64.5767 14.4608 64.0234 15.3627C63.5708 16.0599 63.7424 17.2774 65.6953 15.1147C66.9076 13.5104 68.0575 11.1812 70.6052 11.9044C70.9989 12.1559 71.1498 12.3328 71.0527 12.7126C70.9503 12.9398 70.5653 13.0699 70.3208 12.9502C69.9635 12.7924 70.1178 12.0102 69.2004 12.593C68.4581 13.3699 67.7435 14.5753 67.4678 15.2586C67.2666 15.7668 67.3447 16.1969 67.8771 16.3703C68.5483 16.4189 69.0651 16.0113 69.5438 15.5032C71.2087 14.1799 72.4869 11.339 75.059 11.8975C76.3389 12.3085 75.5359 13.8313 77.076 12.926C78.4131 12.1854 78.9196 11.5628 80.614 11.9357C80.9401 12.1143 81.2262 12.3883 81.2002 12.7942C81.1378 13.0474 81.0493 13.1098 80.8187 13.2017C80.0712 13.4307 80.5776 12.1247 79.5387 12.6259C78.9074 13.037 78.4721 13.8313 77.9952 14.7071C77.239 15.8743 77.5876 17.1629 79.4798 15.8136C80.4891 15.0887 80.8273 14.6568 81.2453 14.2111C84.9134 10.288 85.1319 7.84437 89.088 4.28206C90.5881 2.66913 92.8896 2.53212 91.5455 4.53701C91.3582 4.76594 91.3183 4.83011 90.7893 5.38856C89.6655 6.51241 88.9457 6.91651 87.534 7.78194C86.5281 9.21623 85.9089 10.4823 84.9429 12.0571L84.6446 12.678C85.4632 12.1681 86.261 11.7969 86.5628 11.7085C88.5728 11.2176 88.4688 12.8635 88.167 13.3457C87.2097 14.7418 85.5152 14.8649 84.074 15.1494C85.7997 16.2802 86.6287 17.6191 88.0682 19.8511C90.0453 20.1737 91.4154 20.6749 92.1508 21.0235C93.089 21.5005 93.6458 21.83 94.2563 22.3312C96.9514 25.0541 93.7585 26.7295 90.3679 24.4488C88.8451 23.2903 88.3855 22.5619 86.9859 20.5397C81.1464 19.7714 74.0981 19.9257 69.242 20.5293L69.1379 20.4287C72.8286 19.4262 80.7129 18.873 86.2714 19.5563C85.6089 18.4446 84.152 15.5656 83.2918 15.3159C82.8808 15.9142 82.6102 16.4571 82.3137 16.9652C82.3189 16.9548 80.5412 16.9739 80.5412 16.9739C81.0684 15.9593 81.8853 14.6273 82.3119 13.6891C81.3286 14.7817 80.5342 15.6315 79.5613 16.3322C77.9119 17.3901 77.1245 17.0398 76.5626 16.4848C76.0545 15.6523 76.5279 14.532 76.8037 13.5989C76.2782 13.6925 76.3632 14.0012 75.744 13.8556C75.215 14.9725 74.967 15.6194 74.1103 16.3183C72.6708 17.4127 71.5053 17.0884 71.0214 16.3565C70.8307 15.8396 70.7769 15.6246 71.0006 14.6239C69.856 15.7269 68.4702 17.5844 66.618 16.8074C66.1115 16.5559 65.9953 16.1015 65.9485 15.6766C65.952 15.6593 65.9901 15.4685 66.056 15.2916C64.6825 16.9028 63.2291 17.4664 62.4035 16.6097C61.8173 15.9159 63.0765 14.2406 63.3644 13.6821L63.5031 13.4411C64.046 12.6294 62.9689 12.8618 62.792 12.9884C62.1347 13.2191 61.5693 14.1591 61.0699 15.0852L60.0379 17.012L58.3556 17.0207C59.0719 15.7009 59.8003 14.5406 60.4784 13.2399C60.5166 13.0768 60.5374 12.5427 59.9339 12.9763C59.6806 13.3179 59.3425 13.7498 58.7129 14.5892C58.2273 15.2361 56.8762 17.3554 55.5859 17.0571C55.0014 16.8577 54.9581 16.7085 54.8731 16.3773C54.8401 16.2802 54.9164 16.079 54.8453 16.1483C54.2418 16.6617 53.5602 17.0675 52.6982 16.9669C52.23 16.9513 51.8016 16.5299 51.7183 16.105C51.5692 15.276 51.982 14.3967 52.4814 13.7047L52.3028 13.755C51.7999 14.0238 51.0402 14.2163 50.4835 14.3967C49.9563 15.2083 49.5209 16.1293 49.0024 16.9843C49.0024 16.9843 47.1085 16.986 47.1016 16.993L48.3312 14.6083C47.5473 14.6117 46.4321 14.3394 45.9239 14.0619C44.9701 15.7876 43.5826 16.9062 41.7876 17.2444C40.2423 17.5358 38.7213 16.7554 37.6044 16.098C35.8371 17.4977 32.4465 17.6139 34.46 14.8962C34.8104 14.3394 34.3959 14.9863 34.8745 14.225C35.1433 13.7949 35.0514 13.996 35.2509 13.6145C35.9325 12.7005 34.6491 12.0102 33.2425 14.3446C32.6164 15.3349 32.3754 15.6402 31.5845 16.986L30.0947 16.9825C30.8439 15.6714 31.5984 14.5163 32.3268 13.2104C32.5783 12.8045 32.3719 12.1594 31.555 13.0612L31.4163 13.2399C30.9393 13.8486 29.8935 15.2708 29.2137 16.1466C27.8748 17.7231 26.0121 17.0086 26.9417 15.3349C27.3423 14.5736 27.3684 14.5996 27.5192 14.2943C27.7222 13.9249 27.8071 13.7602 27.8696 13.6214C28.7888 12.1871 26.8775 12.423 25.4224 15.2395L24.4183 16.9652C24.4165 16.9652 22.8487 16.9721 22.8435 16.9843C24.0801 14.6898 24.7825 13.6977 25.6635 12.0744L25.334 12.3051C24.7703 12.8167 24.1494 13.2208 23.3967 13.193C23.0689 14.7435 22.2868 15.6332 21.7318 16.1171C20.3443 17.3121 19.2812 16.9513 18.8771 16.7103C18.4868 16.3703 18.3377 15.9506 18.3151 15.465C18.3654 14.3099 19.0245 13.5746 19.7061 12.6571C19.1997 12.8115 18.5423 12.815 17.9353 13.0456C17.193 14.4157 14.0851 21.5421 11.8738 24.7662C7.42009 31.0133 2.10957 31.9221 0.44288 30.2848C-0.764214 28.7708 0.588564 25.5258 3.3791 21.8924C6.15056 18.514 10.691 15.2291 15.9356 13.219C18.0446 9.51452 20.575 6.09789 23.7505 3.0472C22.1341 3.86234 19.1216 3.77562 17.8764 2.67952C18.2666 5.06943 16.3033 7.61022 14.1285 8.37853C16.149 6.8766 17.9111 4.81795 17.3942 2.40376C17.0855 2.0014 16.8861 2.05169 16.7074 1.51926C16.6276 0.837664 17.2589 0.934786 17.5416 1.74472C18.1539 2.62749 19.4581 3.13045 20.9773 3.19809C22.899 3.15126 24.0124 2.60148 25.3114 1.62158L25.3895 1.7985C22.1619 4.82491 18.9482 10.8638 18.2215 12.5375C20.4952 11.8437 22.3145 11.431 22.8522 12.1368C23.1765 12.3762 23.114 12.5687 23.4626 12.7681C24.1963 13.0179 25.7849 11.4674 26.7665 10.1718C28.5286 7.96229 29.3264 5.14747 32.9512 3.1079C33.579 2.81307 34.4704 3.15126 33.801 4.26817C33.1749 5.28275 31.1058 7.01361 29.9698 7.77845C29.0454 8.39934 28.1332 10.621 26.9521 12.3727C27.9147 11.9513 30.4277 11.0286 29.538 13.2988C29.3871 13.6526 28.8842 14.5926 28.4332 15.3037C27.9788 15.8361 28.2355 16.6201 29.1304 15.4633C29.3438 15.2101 30.093 14.1591 30.4121 13.7636C31.4059 12.5305 32.0354 11.5142 33.3518 11.9651C33.6952 12.1542 33.742 12.6485 33.7247 13.0144C34.1825 12.645 34.6491 12.3137 35.2561 12.0588C35.74 11.8923 36.1631 11.7379 36.673 11.9773C37.3598 12.4542 36.7927 13.4306 36.6539 13.6474L35.3966 15.6523C35.1451 16.2108 35.3237 16.6652 36.1076 16.4328C36.7147 16.2038 36.9158 16.0512 37.2818 15.8084C36.954 15.4425 36.6331 15.1268 36.9176 15.0193C37.0043 15.0592 37.6234 15.5656 37.6234 15.5656C38.9849 14.5475 40.6759 13.0473 42.3616 11.0147C42.1067 10.3071 42.0044 10.1562 41.9749 9.67407C41.6922 8.35945 42.3356 5.11799 45.702 5.12666C45.702 5.12666 46.2118 3.5727 46.2257 3.47905C46.3749 2.76971 46.55 2.23727 46.2639 1.15678C46.1962 0.830727 46.1789 0.570577 46.4408 0.466517C47.0894 0.522016 46.8535 1.31287 47.0409 1.71697C47.2056 2.16096 47.3409 2.48007 47.7675 2.6379C50.5824 3.81553 53.0243 0.41277 54.6945 0L54.7205 0.126606Z" fill="white"/>
</svg>
