<svg width="92" height="31" viewBox="0 0 92 31" fill="none" xmlns="http://www.w3.org/2000/svg">
<path d="M11.9795 23.6089C5.4702 23.6089 0 18.3138 0 11.8045C0 5.29603 5.4702 0 11.9795 0C15.5787 0 18.1387 1.40856 20.0723 3.24915L17.7896 5.53192C16.4114 4.23666 14.5396 3.22886 11.9693 3.22886C7.21863 3.22886 3.50617 7.05377 3.50617 11.8045C3.50617 16.5552 7.21863 20.3801 11.9693 20.3801C15.0536 20.3801 16.8021 19.1465 17.9333 18.0153C18.8582 17.0904 19.4551 15.774 19.6919 13.9537H11.9795V10.7967H22.8277C22.941 11.3724 23.0027 11.9896 23.0027 12.7404C23.0027 15.1568 22.3441 18.1489 20.2059 20.2879C18.1387 22.4574 15.4857 23.6089 11.9795 23.6089Z" fill="white"/>
<path d="M39.6404 16.0084C39.6404 20.3896 36.2263 23.6075 32.0311 23.6075C27.8359 23.6075 24.4219 20.3786 24.4219 16.0084C24.4219 11.6077 27.8359 8.41016 32.0311 8.41016C36.2263 8.41016 39.6404 11.5976 39.6404 16.0084ZM36.3092 16.0084C36.3092 13.2733 34.324 11.4023 32.0311 11.4023C29.7382 11.4023 27.7539 13.2733 27.7539 16.0084C27.7539 18.7131 29.7382 20.6154 32.0311 20.6154C34.324 20.6154 36.3092 18.7131 36.3092 16.0084Z" fill="white"/>
<path d="M56.0935 16.0084C56.0935 20.3896 52.6795 23.6075 48.4842 23.6075C44.2882 23.6075 40.875 20.3786 40.875 16.0084C40.875 11.6077 44.2882 8.41016 48.4842 8.41016C52.6795 8.41016 56.0935 11.5976 56.0935 16.0084ZM52.7615 16.0084C52.7615 13.2733 50.7772 11.4023 48.4842 11.4023C46.1905 11.4023 44.2062 13.2733 44.2062 16.0084C44.2062 18.7131 46.1905 20.6154 48.4842 20.6154C50.7772 20.6154 52.7615 18.7131 52.7615 16.0084Z" fill="white"/>
<path d="M71.6185 8.86249V22.5177C71.6185 28.1325 68.3076 30.4355 64.3897 30.4355C60.7085 30.4355 58.4875 27.9575 57.6547 25.9419L60.5648 24.7286C61.0788 25.9621 62.3538 27.4333 64.3897 27.4333C66.8991 27.4333 68.4522 25.8801 68.4522 22.97V21.8802H68.3389C67.5881 22.806 66.1483 23.6075 64.339 23.6075C60.5344 23.6075 57.2227 20.2966 57.2227 16.0397C57.2227 11.7515 60.5344 8.41016 64.339 8.41016C66.1483 8.41016 67.5881 9.21167 68.3389 10.1062H68.4522V8.87263H71.6185V8.86249ZM68.6779 16.0397C68.6779 13.3663 66.8889 11.4023 64.6163 11.4023C62.3132 11.4023 60.5547 13.3562 60.5547 16.0397C60.5547 18.6928 62.3132 20.6154 64.6163 20.6154C66.8991 20.6154 68.6779 18.6826 68.6779 16.0397Z" fill="white"/>
<path d="M76.7601 0.800781V23.1449H73.418V0.800781H76.7601Z" fill="white"/>
<path d="M89.2631 18.5076L91.8545 20.2349C91.0208 21.4693 89.0061 23.6075 85.5202 23.6075C81.2015 23.6075 77.9727 20.2662 77.9727 16.0084C77.9727 11.4843 81.2218 8.41016 85.1397 8.41016C89.0881 8.41016 91.0107 11.546 91.6482 13.2429L91.9982 14.1061L81.839 18.3123C82.6202 19.8342 83.8233 20.6154 85.5202 20.6154C87.2162 20.6154 88.399 19.7826 89.2631 18.5076ZM81.2835 15.7725L88.0803 12.9546C87.71 12.0085 86.5787 11.3406 85.2632 11.3406C83.5561 11.3406 81.2015 12.8421 81.2835 15.7725Z" fill="white"/>
</svg>
