<svg width="96" height="14" viewBox="0 0 96 14" fill="none" xmlns="http://www.w3.org/2000/svg">
<path d="M65.9608 0.696226L63.5279 0.702541V13.1858H74.6851C75.9055 12.668 76.5591 11.7728 76.8117 10.7277H65.9545L65.9608 0.696226ZM84.1671 3.19068H93.474C94.767 2.93492 95.73 1.79347 96 0.689911H81.6395C81.9079 1.79347 82.8852 2.93492 84.1671 3.19068ZM54.0269 3.15594C55.32 2.7802 56.4093 1.79347 56.6745 0.699384H43.0182V8.07538H54.1959V10.6646L45.429 10.6724C44.0539 11.0545 42.8919 11.9765 42.3093 13.1953L43.0182 13.1827H56.5987V5.62355H45.429V3.15594H54.0269ZM82.0153 13.1827H84.4355V8.15747H93.2466V13.1827H95.6653V5.64566L82.0153 5.63303V13.1827ZM24.2088 3.18278H33.514C34.8086 2.92544 35.7701 1.784 36.0401 0.680438H21.6812C21.9496 1.784 22.9253 2.92544 24.2088 3.18278ZM0 0.708857C0.279442 1.80136 1.22512 2.91439 2.52129 3.19541H6.4382L6.63713 3.27435V13.1574H9.08421V3.27435L9.30524 3.19541H13.2269C14.5357 2.85756 15.4608 1.80136 15.7371 0.708857V0.685175H0V0.708857ZM24.2088 13.1843H33.514C34.8086 12.9253 35.7701 11.7871 36.0401 10.6819H21.6812C21.9496 11.7871 22.9253 12.9253 24.2088 13.1843ZM24.2088 8.11642H33.514C34.8086 7.86066 35.7701 6.71922 36.0401 5.61566H21.6812C21.9496 6.71922 22.9253 7.86066 24.2088 8.11642Z" fill="white"/>
</svg>
