<svg width="146" height="247" viewBox="0 0 146 247" fill="none" xmlns="http://www.w3.org/2000/svg">
<path d="M77.3866 0C82.3329 0.977303 87.3591 1.57565 92.1858 2.99174C106.046 7.05247 118.355 15.2073 127.499 26.3869C136.642 37.5665 142.194 51.2488 143.424 65.6389C143.584 67.4739 143.723 69.3088 143.743 71.1437C143.851 72.1343 143.753 73.1364 143.453 74.0868C143.154 75.0372 142.66 75.915 142.004 76.6649C141.348 77.4148 140.544 78.0203 139.641 78.4432C138.739 78.866 137.759 79.0972 136.763 79.1217C132.475 79.2414 129.503 76.1298 129.323 71.4827C128.366 48.5659 117.955 31.3336 97.6108 20.7428C63.5249 2.99179 21.062 24.7317 15.278 62.7867C14.8392 65.7186 14.6398 68.7703 14.4802 71.6424C14.2209 76.1898 11.289 79.2015 7.10057 79.1217C6.11531 79.1001 5.14477 78.8781 4.24809 78.4692C3.3514 78.0604 2.54737 77.4732 1.88492 76.7435C1.22247 76.0139 0.715488 75.157 0.394891 74.2251C0.0742945 73.2932 -0.0532051 72.3059 0.0201321 71.3232C0.168113 56.5982 4.83997 42.2747 13.4025 30.2943C21.9651 18.3139 34.0042 9.25571 47.888 4.34786C53.4232 2.77856 59.035 1.49389 64.7016 0.498624L66.2972 0.0998222L77.3866 0Z" fill="#2D2D2D"/>
<path d="M54.43 148.291V73.4572C54.43 65.6787 57.661 59.755 64.8412 56.484C76.4891 51.1787 89.2339 59.6953 89.3336 72.8191C89.4334 87.4786 89.3336 102.158 89.3336 116.837V119.77L118.992 128.446C122.442 129.463 125.933 130.44 129.363 131.457C138.438 134.329 144.082 140.433 144.86 149.926C145.38 157.232 145.326 164.568 144.701 171.866C144.312 175.118 143.149 178.23 141.31 180.941C135.885 189.357 130.061 197.515 124.477 205.832C124.135 206.401 123.639 206.861 123.045 207.157C122.452 207.454 121.786 207.576 121.126 207.507C95.9421 207.507 70.7582 207.507 45.5744 207.507C44.9115 207.577 44.2448 207.416 43.6858 207.053C43.1268 206.69 42.7092 206.147 42.5029 205.513C33.5675 187.323 24.5524 169.193 15.5572 151.023C13.8208 147.54 13.4171 143.543 14.422 139.783C15.427 136.024 17.7713 132.761 21.0139 130.609C24.2564 128.457 28.1737 127.565 32.0285 128.099C35.8832 128.634 39.4097 130.558 41.9444 133.511C45.5544 137.7 49.0448 142.008 52.595 146.256C53.0537 146.775 53.5324 147.274 54.43 148.291Z" fill="#2D2D2D"/>
<path d="M71.9017 25.6691C96.9925 25.9683 117.775 46.412 117.775 71.1437C117.775 75.8109 114.863 79.1217 110.575 79.1217C109.59 79.1289 108.614 78.9337 107.707 78.5484C106.8 78.163 105.982 77.5958 105.303 76.8816C104.625 76.1674 104.1 75.3214 103.761 74.3962C103.423 73.471 103.278 72.4862 103.335 71.5026C103.257 63.731 100.307 56.2629 95.0515 50.5368C89.7964 44.8107 82.6084 41.2315 74.872 40.4886C67.1355 39.7457 59.3978 41.8916 53.149 46.513C46.9002 51.1344 42.5823 57.9043 41.027 65.5191C40.658 67.407 40.4379 69.321 40.3687 71.2433C40.1493 76.0102 37.3172 79.0618 33.049 79.0219C28.7808 78.982 25.8488 75.6712 25.9086 70.8046C26.1619 60.4916 29.869 50.5619 36.4362 42.606C43.0033 34.6502 52.0505 29.1287 62.1287 26.9257C65.3598 26.4071 68.6507 26.1079 71.9017 25.6691Z" fill="#2D2D2D"/>
<path d="M47.4891 221.868H117.296C117.55 227.298 117.503 232.738 117.157 238.163C116.638 242.81 111.971 246.141 107.184 246.28C90.8295 246.28 74.468 246.28 58.0998 246.28C55.3356 246.265 52.6868 245.17 50.7191 243.228C48.7515 241.287 47.6209 238.653 47.5689 235.889C47.4093 231.322 47.4891 226.694 47.4891 221.868Z" fill="#2D2D2D"/>
</svg>
