<svg width="93" height="180" viewBox="0 0 93 180" fill="none" xmlns="http://www.w3.org/2000/svg">
<path d="M72 0C52.9044 0 34.5909 7.58569 21.0883 21.0883C7.58569 34.5909 0 52.9044 0 72C0 120.6 63.45 175.5 66.15 177.84C67.7802 179.234 69.8548 180.001 72 180.001C74.1452 180.001 76.2198 179.234 77.85 177.84C81 175.5 144 120.6 144 72C144 52.9044 136.414 34.5909 122.912 21.0883C109.409 7.58569 91.0956 0 72 0ZM72 158.85C52.83 140.85 18 102.06 18 72C18 57.6783 23.6893 43.9432 33.8162 33.8162C43.9432 23.6893 57.6783 18 72 18C86.3217 18 100.057 23.6893 110.184 33.8162C120.311 43.9432 126 57.6783 126 72C126 102.06 91.17 140.94 72 158.85ZM72 36C64.8799 36 57.9196 38.1114 51.9995 42.0671C46.0793 46.0228 41.4651 51.6453 38.7403 58.2234C36.0156 64.8015 35.3027 72.0399 36.6917 79.0233C38.0808 86.0066 41.5095 92.4212 46.5442 97.4558C51.5788 102.491 57.9934 105.919 64.9767 107.308C71.9601 108.697 79.1985 107.984 85.7766 105.26C92.3547 102.535 97.9772 97.9207 101.933 92.0005C105.889 86.0804 108 79.1201 108 72C108 62.4522 104.207 53.2955 97.4558 46.5442C90.7045 39.7928 81.5478 36 72 36ZM72 90C68.4399 90 64.9598 88.9443 61.9997 86.9665C59.0397 84.9886 56.7325 82.1774 55.3702 78.8883C54.0078 75.5992 53.6513 71.98 54.3459 68.4884C55.0404 64.9967 56.7547 61.7894 59.2721 59.2721C61.7894 56.7547 64.9967 55.0404 68.4884 54.3459C71.98 53.6513 75.5992 54.0078 78.8883 55.3702C82.1774 56.7325 84.9886 59.0397 86.9665 61.9997C88.9443 64.9598 90 68.4399 90 72C90 76.7739 88.1036 81.3523 84.7279 84.7279C81.3523 88.1036 76.7739 90 72 90Z" fill="#343434"/>
</svg>
