<svg width="48" height="48" viewBox="0 0 48 48" fill="none" xmlns="http://www.w3.org/2000/svg">
<rect width="48" height="48" rx="24" transform="matrix(-1 0 0 1 48 0)" fill="white"/>
<path d="M15.2929 24.7071C14.9024 24.3166 14.9024 23.6834 15.2929 23.2929L21.6569 16.9289C22.0474 16.5384 22.6805 16.5384 23.0711 16.9289C23.4616 17.3195 23.4616 17.9526 23.0711 18.3431L17.4142 24L23.0711 29.6569C23.4616 30.0474 23.4616 30.6805 23.0711 31.0711C22.6805 31.4616 22.0474 31.4616 21.6569 31.0711L15.2929 24.7071ZM34 25L16 25L16 23L34 23L34 25Z" fill="#1D1D1D"/>
</svg>
