<svg width="224" height="219" viewBox="0 0 224 219" fill="none" xmlns="http://www.w3.org/2000/svg">
<path d="M0 64.2789C0 60.2914 0 56.3038 0 52.2863C0.069946 48.4244 1.5989 44.7321 4.27964 41.9513C6.96039 39.1704 10.5943 37.507 14.4511 37.2956C45.7537 35.555 75.7587 24.2064 100.378 4.79576C105.025 1.19798 109.852 -1.20058 115.699 0.628292C118.152 1.38035 120.442 2.5912 122.444 4.19628C147.281 23.7802 177.518 35.2894 209.091 37.1759C212.902 37.2644 216.537 38.8016 219.255 41.4751C221.973 44.1486 223.57 47.7573 223.722 51.5668C224.377 63.5797 223.875 75.6278 222.223 87.5446C220.015 106.39 214.75 124.75 206.632 141.901C191.628 173.419 165.481 198.263 133.238 211.638C128.441 213.707 123.494 215.416 118.607 217.335C114.379 218.955 109.702 218.955 105.475 217.335C82.1275 209.855 60.8953 196.927 43.5331 179.618C27.7795 163.322 16.0545 143.568 9.29428 121.934C3.35873 103.282 0.226452 83.8512 0 64.2789ZM158.452 152.515C158.693 148.251 158.693 143.976 158.452 139.712C158.242 136.934 157.233 134.276 155.547 132.057C154.554 130.752 153.351 129.631 151.995 128.737C151.048 128.113 150.026 127.599 148.948 127.21C142.372 124.532 135.836 121.823 129.34 119.085C128.806 118.794 128.195 118.673 127.59 118.737C126.985 118.801 126.414 119.048 125.952 119.445C124.123 120.824 122.264 122.151 120.406 123.478C118.547 124.804 116.688 126.131 114.859 127.51C114.103 128.218 113.106 128.612 112.071 128.612C111.243 128.612 110.44 128.361 109.765 127.898C109.595 127.782 109.434 127.652 109.283 127.51C105.775 124.842 102.087 122.353 98.5491 119.685C98.4074 119.554 98.2552 119.437 98.0945 119.333C97.6915 119.074 97.2349 118.904 96.7556 118.839C96.0852 118.748 95.4029 118.865 94.8014 119.175C88.2954 121.993 81.7895 124.722 75.1936 127.3C73.2567 128.031 71.4993 129.17 70.0406 130.639C68.5819 132.108 67.4559 133.873 66.7388 135.815C65.2796 139.483 65.4233 143.275 65.5677 147.088C65.6362 148.895 65.7048 150.708 65.6029 152.515C65.6018 152.535 65.6007 152.555 65.5995 152.575L158.452 152.515ZM139.624 76.0618C139.618 70.5396 137.977 65.1425 134.909 60.551C131.841 55.9595 127.483 52.3789 122.383 50.2602C117.283 48.1416 111.671 47.5801 106.252 48.6459C100.834 49.7117 95.852 52.3573 91.9348 56.2496C88.0175 60.1419 85.3399 65.1068 84.2394 70.5182C83.8029 72.6646 83.6222 74.8433 83.6933 77.0099C83.8015 80.3057 84.4921 83.5739 85.7507 86.6589C87.8366 91.772 91.3893 96.1532 95.961 99.2506C100.533 102.348 105.919 104.023 111.441 104.064C115.136 104.096 118.8 103.395 122.222 102.001C125.644 100.607 128.755 98.5485 131.376 95.9443C133.997 93.34 136.076 90.2419 137.491 86.8291C138.907 83.4162 139.632 79.7566 139.624 76.0618Z" fill="#2D2D2D"/>
<path fill-rule="evenodd" clip-rule="evenodd" d="M137.764 87.0444C139.114 83.5452 139.747 79.8103 139.624 76.0618C139.632 79.7566 138.907 83.4162 137.491 86.8291C136.076 90.2419 133.997 93.34 131.376 95.9443C128.755 98.5485 125.644 100.607 122.222 102.001C118.8 103.395 115.136 104.096 111.441 104.064C105.919 104.023 100.533 102.348 95.961 99.2506C91.3893 96.1532 87.8366 91.772 85.7507 86.6589C84.4921 83.5739 83.8015 80.3057 83.6933 77.0099C83.6973 80.4387 84.3316 83.8403 85.5675 87.0444C86.9173 90.5436 88.9569 93.7357 91.5652 96.4308C94.1734 99.1259 97.297 101.269 100.75 102.732C104.203 104.196 107.915 104.95 111.666 104.95C115.416 104.95 119.129 104.196 122.582 102.732C126.035 101.269 129.159 99.1259 131.767 96.4308C134.375 93.7357 136.415 90.5436 137.764 87.0444Z" fill="#2D2D2D"/>
<path fill-rule="evenodd" clip-rule="evenodd" d="M65.5096 152.515H65.6029C65.7048 150.708 65.6362 148.895 65.5677 147.088C65.4233 143.275 65.2796 139.483 66.7388 135.815C67.4559 133.873 68.5819 132.108 70.0406 130.639C71.4993 129.17 73.2567 128.031 75.1936 127.3C81.7895 124.722 88.2954 121.993 94.8014 119.175C95.4029 118.865 96.0852 118.748 96.7556 118.839C97.2349 118.904 97.6915 119.074 98.0945 119.333C97.6701 119.04 97.181 118.85 96.6657 118.78C95.9953 118.688 95.313 118.805 94.7115 119.115C88.2055 121.933 81.6995 124.662 75.1036 127.24C73.1666 127.971 71.4094 129.11 69.9507 130.579C68.492 132.048 67.366 133.813 66.6489 135.755C65.1897 139.423 65.3333 143.215 65.4778 147.028C65.547 148.855 65.6164 150.688 65.5096 152.515ZM109.765 127.898C110.44 128.361 111.243 128.612 112.071 128.612C113.106 128.612 114.103 128.218 114.859 127.51C116.688 126.131 118.547 124.804 120.406 123.478C122.264 122.151 124.123 120.824 125.952 119.445C126.414 119.048 126.985 118.801 127.59 118.737C128.195 118.673 128.806 118.794 129.34 119.085C135.836 121.823 142.372 124.532 148.948 127.21C150.026 127.599 151.048 128.113 151.995 128.737M109.765 127.898C110.421 128.322 111.189 128.552 111.981 128.552C113.017 128.552 114.013 128.158 114.769 127.45C116.598 126.071 118.457 124.744 120.316 123.418C122.175 122.091 124.033 120.764 125.862 119.385C126.324 118.988 126.895 118.741 127.5 118.677C128.105 118.613 128.716 118.734 129.25 119.025C135.746 121.783 142.282 124.492 148.858 127.15C149.97 127.552 151.023 128.086 151.995 128.737" fill="#2D2D2D"/>
</svg>
