<svg width="40" height="40" viewBox="0 0 40 40" fill="none" xmlns="http://www.w3.org/2000/svg">
<path d="M0.8042 19.9787C0.792928 18.7965 1.20365 17.649 1.96255 16.7425C2.37453 16.2469 2.76263 15.7334 3.20447 15.2617C4.21283 14.172 4.77907 12.7458 4.79272 11.2613C4.82143 10.5262 4.90123 9.79395 5.03155 9.06994C5.22461 8.00779 5.75444 7.03603 6.54265 6.29836C7.33086 5.56069 8.33559 5.09629 9.40819 4.97395C10.2561 4.87244 11.1099 4.79479 11.9577 4.72314C13.0722 4.62937 14.1281 4.18402 14.973 3.45135C15.6597 2.85427 16.3403 2.25719 17.0628 1.7437C17.9146 1.13184 18.9368 0.802734 19.9855 0.802734C21.0343 0.802734 22.0565 1.13184 22.9083 1.7437C23.5513 2.21231 24.1692 2.71457 24.7592 3.24836C25.8311 4.22894 27.2236 4.78512 28.6761 4.81272C29.4411 4.84542 30.2031 4.92922 30.957 5.06352C32.0179 5.26334 32.9865 5.79892 33.7197 6.59129C34.4529 7.38366 34.912 8.39082 35.0291 9.46403C35.1187 10.3 35.2022 11.1358 35.2679 11.9718C35.3659 13.0996 35.8221 14.1666 36.5696 15.0169C37.1667 15.7035 37.7637 16.3842 38.2713 17.1067C38.8666 17.9437 39.191 18.9431 39.2006 19.9702C39.2102 20.9973 38.9046 22.0026 38.325 22.8506C37.8494 23.5223 37.3308 24.1625 36.7726 24.7673C35.7816 25.8526 35.221 27.2625 35.1963 28.732C35.1645 29.5112 35.0787 30.2873 34.9395 31.0546C34.725 32.0893 34.1913 33.0307 33.4137 33.7462C32.6361 34.4617 31.6536 34.9152 30.6047 35.0431C29.7389 35.1387 28.8731 35.2163 28.0074 35.2939C26.9029 35.3827 25.8562 35.8244 25.022 36.5538C24.4249 37.0434 23.8576 37.5449 23.2605 38.0226C22.3428 38.7998 21.1792 39.2264 19.9766 39.2264C18.774 39.2264 17.6103 38.7998 16.6926 38.0226C16.1851 37.6225 15.6776 37.2225 15.2059 36.7866C14.1291 35.7852 12.7176 35.221 11.2472 35.2043C10.4843 35.1736 9.72429 35.0918 8.97231 34.9595C7.92657 34.7576 6.97186 34.2291 6.24549 33.4502C5.51912 32.6712 5.05856 31.682 4.93006 30.6247C4.82258 29.7768 4.75092 28.923 4.67927 28.0751C4.58503 26.9153 4.11312 25.8184 3.33583 24.9524C2.79249 24.3135 2.25512 23.6627 1.74163 23.0059C1.09377 22.1329 0.763088 21.065 0.8042 19.9787ZM16.8538 23.0178C15.8328 21.9849 14.8536 20.9758 13.8684 19.9847C13.7276 19.8273 13.5559 19.7006 13.3641 19.6124C13.1723 19.5242 12.9644 19.4765 12.7533 19.472C12.5422 19.4675 12.3324 19.5064 12.137 19.5864C11.9416 19.6664 11.7648 19.7857 11.6174 19.9369C11.4691 20.0865 11.3525 20.2644 11.2744 20.46C11.1963 20.6556 11.1583 20.8649 11.1628 21.0755C11.1673 21.2861 11.214 21.4936 11.3003 21.6858C11.3866 21.8779 11.5107 22.0507 11.6652 22.1938C13.0146 23.5552 14.372 24.9106 15.7373 26.26C15.8812 26.4208 16.0575 26.5494 16.2545 26.6375C16.4515 26.7256 16.6649 26.7711 16.8807 26.7711C17.0965 26.7711 17.3099 26.7256 17.5069 26.6375C17.704 26.5494 17.8802 26.4208 18.0241 26.26C21.4832 22.8089 24.9364 19.3498 28.3835 15.8827C28.6059 15.6437 28.7587 15.3484 28.8254 15.0288C28.8938 14.7022 28.8503 14.3621 28.7019 14.0632C28.5535 13.7642 28.3089 13.5239 28.0074 13.3809C27.7153 13.2343 27.384 13.1848 27.0618 13.2395C26.7396 13.2943 26.4434 13.4505 26.2161 13.6854C24.9921 14.8796 23.774 16.1215 22.556 17.3395L16.8538 23.0178Z" fill="#1D55C4"/>
</svg>
