<svg width="26" height="26" viewBox="0 0 26 26" fill="none" xmlns="http://www.w3.org/2000/svg">
<path d="M25 13C25 19.6274 19.6274 25 13 25C6.37258 25 1 19.6274 1 13C1 6.37258 6.37258 1 13 1C19.6274 1 25 6.37258 25 13Z" fill="#FFB400"/>
<path d="M7.84764 13.534L10.6528 16.4268L18.1334 8.71255" fill="#FFB400"/>
<path d="M7.84764 13.534L10.6528 16.4268L18.1334 8.71255M25 13C25 19.6274 19.6274 25 13 25C6.37258 25 1 19.6274 1 13C1 6.37258 6.37258 1 13 1C19.6274 1 25 6.37258 25 13Z" stroke="black" stroke-width="0.77269"/>
</svg>
