<svg width="30" height="37" viewBox="0 0 30 37" fill="none" xmlns="http://www.w3.org/2000/svg">
<path d="M4.32527 1.72904C4.32527 2.6407 4.32527 3.50383 4.32527 4.37234C4.33125 5.12735 4.5925 5.85811 5.06655 6.44578C5.5406 7.03344 6.19955 7.44343 6.9362 7.60903C7.26136 7.68573 7.59474 7.722 7.92878 7.71696C12.6507 7.71696 17.3709 7.71696 22.0893 7.71696C22.926 7.76569 23.7513 7.50344 24.4065 6.98068C25.0617 6.45793 25.5006 5.71155 25.6388 4.88486C25.7073 4.20744 25.7271 3.52598 25.6982 2.84573C25.6982 2.4843 25.6982 2.12824 25.6982 1.66971C26.4013 1.68125 27.1027 1.74434 27.7966 1.8585C28.4436 2.02737 29.0137 2.41176 29.4128 2.94819C29.812 3.48463 30.0163 4.14112 29.9922 4.80933C29.9922 5.79652 29.9922 6.78371 29.9922 7.77629V33.5618C30.0408 34.2351 29.8613 34.9052 29.4825 35.464C29.1038 36.0228 28.5479 36.4379 27.9045 36.6421C27.5549 36.7482 27.1909 36.7991 26.8256 36.7931H3.15467C2.73475 36.8149 2.31495 36.7482 1.9225 36.5972C1.53006 36.4463 1.17374 36.2144 0.876667 35.9169C0.579598 35.6193 0.348416 35.2626 0.198127 34.8699C0.0478373 34.4772 -0.0181999 34.0573 0.00429588 33.6374C0.00429588 24.0568 0.00429588 14.4726 0.00429588 4.88486C-0.01675 4.46207 0.0512988 4.03956 0.204021 3.64476C0.356742 3.24996 0.590738 2.89162 0.890825 2.59306C1.19091 2.2945 1.55039 2.06235 1.94596 1.91164C2.34154 1.76093 2.76438 1.69504 3.18705 1.71824L4.32527 1.72904ZM13.6199 22.924L10.831 20.4317C10.7052 20.3054 10.5545 20.2066 10.3884 20.1418C10.2223 20.0769 10.0446 20.0473 9.86646 20.0549C9.68834 20.0625 9.51375 20.1072 9.35382 20.186C9.19389 20.2648 9.05211 20.376 8.93754 20.5126C8.80939 20.6364 8.70926 20.7862 8.64392 20.9519C8.57857 21.1177 8.54954 21.2955 8.55874 21.4734C8.56794 21.6513 8.61519 21.8252 8.69729 21.9833C8.77939 22.1414 8.89441 22.28 9.03464 22.3899C10.279 23.5084 11.5287 24.6196 12.7838 25.7237C12.9121 25.8524 13.0658 25.9531 13.2351 26.0193C13.4044 26.0854 13.5856 26.1157 13.7672 26.1081C13.9488 26.1005 14.1269 26.0552 14.29 25.9751C14.4532 25.895 14.598 25.7818 14.715 25.6428C15.0387 25.3029 15.3516 24.9577 15.6752 24.6178L20.8594 19.0885C21.5121 18.3926 21.5444 17.5241 20.9564 16.9846C20.3685 16.4452 19.6078 16.5639 18.9551 17.2598L16.533 19.8275L13.6199 22.924Z" fill="#1D55C4"/>
<path d="M14.9902 5.99607C12.7892 5.99607 10.5829 5.99607 8.37653 5.99607C6.8445 5.99607 6.00294 5.14912 6.00294 3.61709C6.00294 3.21251 6.02992 2.81333 6.00294 2.41413C5.97583 2.09086 6.01964 1.76559 6.1313 1.46101C6.24297 1.15643 6.41982 0.879921 6.64947 0.650789C6.87911 0.421656 7.15603 0.245441 7.46086 0.134455C7.76569 0.0234684 8.09108 -0.0196227 8.41429 0.00821932C12.4763 0.0513751 16.5384 0.00821932 20.6004 0.00821932C21.0427 0.00821932 21.4851 0.00821932 21.922 0.00821932C22.4697 0.0208544 22.9908 0.246558 23.3746 0.637421C23.7585 1.02828 23.9747 1.55348 23.9773 2.10128C23.9773 2.64073 23.9773 3.18017 23.9773 3.71962C23.9943 4.01479 23.949 4.31019 23.8444 4.58674C23.7399 4.86329 23.5783 5.11478 23.3703 5.32486C23.1622 5.53494 22.9123 5.69896 22.6368 5.80623C22.3613 5.9135 22.0663 5.96164 21.771 5.94754C19.5053 6.00688 17.272 5.99607 14.9902 5.99607Z" fill="#1D55C4"/>
</svg>
