<svg width="169" height="218" viewBox="0 0 169 218" fill="none" xmlns="http://www.w3.org/2000/svg">
<path d="M139.009 126.586C150.617 134.923 157.946 145.647 158.104 160.232C158.291 178.695 158.158 197.159 158.158 215.622C158.158 216.063 158.073 216.498 158.019 217.036H132.044V214.402C132.044 200.083 132.044 185.764 132.044 171.445C132.044 170.624 132.226 169.536 131.79 169.029C130.99 168.11 129.765 166.944 128.759 166.986C127.753 167.029 126.668 168.316 125.898 169.276C125.522 169.754 125.758 170.732 125.758 171.481C125.758 185.8 125.758 200.119 125.758 214.438V217.006H42.2705V214.692C42.2705 200.296 42.2705 185.901 42.2705 171.506C42.3091 170.829 42.2929 170.15 42.222 169.476C41.9493 167.875 41.0097 166.908 39.3185 166.835C38.592 166.748 37.8597 166.944 37.2746 167.382C36.6895 167.819 36.2968 168.466 36.1785 169.186C36.0296 169.998 35.9747 170.825 36.0149 171.651C36.0149 185.82 36.0149 199.988 36.0149 214.154V216.988H9.94955V214.239C9.94955 197.207 10.3315 180.163 9.85258 163.144C9.24641 141.243 24.3158 127.335 38.2516 121.704C44.9867 118.969 52.1951 117.579 59.4676 117.614C75.8766 117.644 92.2856 117.571 108.689 117.662C112.501 117.662 116.308 118.188 120.115 118.465L120.303 119.19C119.543 119.838 118.732 120.424 117.878 120.943C112.926 123.48 107.973 126.024 102.936 128.386C102.439 128.535 101.915 128.575 101.401 128.505C100.886 128.436 100.393 128.257 99.9537 127.981C97.2691 126.111 94.0873 125.078 90.8126 125.015C84.1448 124.948 77.4769 124.888 70.8575 125.015C62.8985 125.172 56.4125 130.911 55.4972 138.361C54.9957 142.096 55.8844 145.886 57.9953 149.013C60.1062 152.139 63.2931 154.388 66.9538 155.332C67.7419 155.568 68.5563 155.706 69.3784 155.743C76.9374 155.779 84.5327 155.978 92.0492 155.743C97.5047 155.549 101.499 152.553 104.324 147.931C104.789 147.117 105.512 146.479 106.379 146.118C118.268 142.449 129.118 136.032 138.045 127.389C138.294 127.135 138.591 126.924 139.009 126.586Z" fill="#2D2D2D"/>
<path d="M146.574 89.3988H142.21V54.8402L146.453 54.6469C140.955 32.1173 117.866 7.60612 84.7024 7.2255C52.139 6.85695 27.6436 30.3774 21.491 54.7013H25.813V89.3384C23.4974 89.3384 21.2001 89.3384 18.8966 89.3384C16.5932 89.3384 14.2049 89.4169 11.8711 89.2417C8.71117 89.003 5.75282 87.6031 3.56985 85.3135C1.38689 83.0238 0.134942 80.0077 0.0568511 76.8501C-0.0219509 73.6903 -0.0158893 70.5184 0.0568511 67.3586C0.184147 60.7127 5.36086 55.1544 11.9317 54.81C13.5442 54.7314 14.0594 54.1454 14.5019 52.7256C22.8428 25.9307 40.6036 8.62117 67.9176 1.97529C104.894 -7.02081 142.907 15.5752 153.388 52.1879C153.872 53.8796 154.388 54.7315 156.418 54.8463C162.553 55.1846 167.669 60.6402 167.936 66.8088C168.063 70.1197 168.027 73.4547 167.936 76.7535C167.885 79.9118 166.654 82.9376 164.484 85.2393C162.313 87.5411 159.36 88.9531 156.2 89.1994C154.576 89.3323 153.933 89.8821 153.454 91.4167C145.459 117.233 128.383 133.908 102.433 141.641C101.981 141.812 101.568 142.069 101.217 142.399C100.865 142.728 100.582 143.124 100.384 143.563C98.7171 147.792 95.2983 150.45 90.6853 150.517C84.0175 150.619 77.3496 150.656 70.7242 150.517C69.3767 150.52 68.0424 150.252 66.8011 149.73C65.5598 149.207 64.4369 148.44 63.4998 147.475C62.5627 146.51 61.8305 145.367 61.347 144.113C60.8635 142.859 60.6387 141.522 60.686 140.179C60.8133 134.615 65.1898 130.386 70.9909 130.337C77.4163 130.283 83.8417 130.337 90.2731 130.337C91.7888 130.323 93.2907 130.625 94.6816 131.226C96.0725 131.826 97.3213 132.711 98.3473 133.823C98.6704 134.122 99.054 134.349 99.4723 134.487C99.8905 134.626 100.334 134.673 100.772 134.627C121.812 129.691 141.416 110.376 146.574 89.3988Z" fill="#2D2D2D"/>
<path d="M84.0759 35.3555C93.2138 35.3843 101.966 39.03 108.407 45.4906C114.848 51.9512 118.45 60.6975 118.421 69.8053C118.393 78.9131 114.735 87.6364 108.253 94.0562C101.771 100.476 92.9956 104.066 83.8577 104.038C65.0664 103.971 49.5606 88.4741 49.5606 69.6844C49.5894 60.5761 53.2374 51.8501 59.7061 45.4163C66.1748 38.9825 74.9374 35.365 84.0759 35.3555Z" fill="#2D2D2D"/>
</svg>
