<svg width="20" height="20" viewBox="0 0 20 20" fill="none" xmlns="http://www.w3.org/2000/svg">
<path d="M11.4912 9.99741L19.0465 2.45408C19.2724 2.22825 19.3992 1.92197 19.3992 1.6026C19.3992 1.28324 19.2724 0.976954 19.0465 0.75113C18.8207 0.525305 18.5144 0.398437 18.1951 0.398438C17.8757 0.398438 17.5694 0.525305 17.3436 0.75113L9.80024 8.30646L2.2569 0.75113C2.03108 0.525305 1.7248 0.398438 1.40543 0.398438C1.08607 0.398438 0.779782 0.525305 0.553957 0.75113C0.328133 0.976954 0.201266 1.28324 0.201266 1.6026C0.201266 1.92197 0.328133 2.22825 0.553957 2.45408L8.10929 9.99741L0.553957 17.5408C0.441553 17.6522 0.352335 17.7849 0.29145 17.931C0.230566 18.0772 0.199219 18.2339 0.199219 18.3922C0.199219 18.5505 0.230566 18.7073 0.29145 18.8534C0.352335 18.9996 0.441553 19.1322 0.553957 19.2437C0.665444 19.3561 0.798083 19.4453 0.944224 19.5062C1.09036 19.5671 1.24711 19.5984 1.40543 19.5984C1.56375 19.5984 1.7205 19.5671 1.86664 19.5062C2.01278 19.4453 2.14542 19.3561 2.2569 19.2437L9.80024 11.6884L17.3436 19.2437C17.4551 19.3561 17.5877 19.4453 17.7338 19.5062C17.88 19.5671 18.0367 19.5984 18.1951 19.5984C18.3534 19.5984 18.5101 19.5671 18.6563 19.5062C18.8024 19.4453 18.935 19.3561 19.0465 19.2437C19.1589 19.1322 19.2481 18.9996 19.309 18.8534C19.3699 18.7073 19.4013 18.5505 19.4013 18.3922C19.4013 18.2339 19.3699 18.0772 19.309 17.931C19.2481 17.7849 19.1589 17.6522 19.0465 17.5408L11.4912 9.99741Z" fill="#F2171B"/>
</svg>
