<svg width="104" height="110" viewBox="0 0 104 110" fill="none" xmlns="http://www.w3.org/2000/svg">
<path d="M115.667 0.25H18.3335C13.4933 0.25 8.85134 2.17276 5.4288 5.5953C2.00626 9.01784 0.0834961 13.6598 0.0834961 18.5V91.5C0.0834961 96.3402 2.00626 100.982 5.4288 104.405C8.85134 107.827 13.4933 109.75 18.3335 109.75H115.667C120.507 109.75 125.149 107.827 128.572 104.405C131.994 100.982 133.917 96.3402 133.917 91.5V18.5C133.917 13.6598 131.994 9.01784 128.572 5.5953C125.149 2.17276 120.507 0.25 115.667 0.25ZM113.671 77.0217C114.289 77.5511 114.794 78.1991 115.157 78.9272C115.52 79.6554 115.733 80.4488 115.784 81.2608C115.834 82.0727 115.722 82.8865 115.452 83.6542C115.183 84.4218 114.763 85.1276 114.216 85.7298C113.669 86.3321 113.007 86.8185 112.268 87.1603C111.53 87.5022 110.731 87.6925 109.918 87.72C109.105 87.7475 108.295 87.6117 107.535 87.3206C106.775 87.0294 106.082 86.5889 105.495 86.025L80.2922 63.1517C76.3566 65.7774 71.7314 67.1787 67.0002 67.1787C62.269 67.1787 57.6437 65.7774 53.7081 63.1517L28.5048 86.025C27.3028 87.0555 25.7463 87.5768 24.1661 87.478C22.5859 87.3793 21.1064 86.6683 20.042 85.4962C18.9776 84.3241 18.4121 82.7831 18.4656 81.2007C18.5192 79.6183 19.1876 78.1191 20.3288 77.0217L44.3945 55.1764L20.3227 33.2825C19.7316 32.7449 19.2521 32.096 18.9117 31.3731C18.5713 30.6501 18.3766 29.8672 18.3387 29.069C18.2623 27.457 18.8293 25.8807 19.9152 24.6868C21.001 23.4928 22.5166 22.7792 24.1286 22.7027C25.7406 22.6263 27.317 23.1933 28.5109 24.2792L58.7998 51.8306C61.0459 53.876 63.9744 55.0097 67.0123 55.0097C70.0502 55.0097 72.9788 53.876 75.2248 51.8306L105.489 24.2792C106.683 23.1933 108.26 22.6263 109.872 22.7027C111.484 22.7792 112.999 23.4928 114.085 24.6868C115.171 25.8807 115.738 27.457 115.662 29.069C115.585 30.6811 114.871 32.1967 113.678 33.2825L89.6119 55.1825L113.671 77.0217Z" fill="#343434"/>
</svg>
