<svg width="207" height="206" viewBox="0 0 207 206" fill="none" xmlns="http://www.w3.org/2000/svg">
<path d="M11.7932 144.992C12.0727 143.49 12.4221 140.555 13.1208 137.726C14.0779 134.3 14.0964 130.68 13.1745 127.244C12.2526 123.808 10.4242 120.684 7.88056 118.197C4.82807 115.244 2.44537 111.67 0.893612 107.717C-0.136077 104.903 -0.279626 101.841 0.482304 98.9436C1.24423 96.0457 2.87513 93.4506 5.15567 91.5071C8.96281 88.4299 11.7178 84.244 13.0387 79.5303C14.3595 74.8166 14.1806 69.8086 12.5268 65.2012C11.7135 62.9884 11.3993 60.6232 11.6066 58.2748C11.8138 55.9264 12.5375 53.6528 13.7258 51.6166C14.9141 49.5805 16.5377 47.8322 18.4804 46.4967C20.4231 45.1611 22.6369 44.2714 24.9636 43.8911C29.5797 43.1617 33.849 40.9974 37.1661 37.7054C40.4832 34.4134 42.6797 30.1608 43.4441 25.5503C43.8607 23.1282 44.8114 20.8292 46.2269 18.8201C47.6425 16.811 49.4874 15.1422 51.6281 13.9347C53.7687 12.7272 56.1513 12.0113 58.603 11.8391C61.0546 11.6669 63.5138 12.0426 65.8023 12.9389C75.5491 16.0831 83.2697 13.463 90.2566 6.40616C98.8505 -2.11791 107.235 -2.15285 115.759 6.40616C118.794 9.83257 122.779 12.2797 127.208 13.4366C131.637 14.5936 136.309 14.4081 140.632 12.904C151.777 9.75984 159.812 14.5808 162.641 25.9346C163.435 30.2753 165.531 34.2717 168.652 37.392C171.772 40.5122 175.768 42.6084 180.109 43.4019C183.735 43.9098 187.085 45.6228 189.619 48.2652C192.154 50.9075 193.726 54.3258 194.083 57.9699C194.319 60.8848 193.974 63.8176 193.069 66.5986C191.755 70.5298 191.596 74.7557 192.611 78.7746C193.627 82.7935 195.774 86.4365 198.799 89.2712C208.825 99.7517 208.615 106.983 198.449 117.429C195.666 119.979 193.655 123.261 192.648 126.899C191.641 130.538 191.678 134.387 192.755 138.005C193.807 141.215 194.269 144.588 194.118 147.962C193.852 151.383 192.498 154.63 190.253 157.226C188.009 159.822 184.993 161.632 181.646 162.39C179.235 163.089 176.825 163.822 174.659 164.73C172.279 165.581 170.127 166.97 168.37 168.787C166.613 170.605 165.298 172.803 164.528 175.211C163.724 177.586 162.991 179.962 162.152 182.198C161.6 184.279 160.644 186.231 159.337 187.942C158.03 189.653 156.399 191.09 154.537 192.171C152.675 193.251 150.618 193.953 148.484 194.238C146.35 194.523 144.18 194.385 142.1 193.831C140.493 193.517 138.956 193.097 137.349 192.748C133.989 191.828 130.446 191.812 127.078 192.702C123.71 193.591 120.637 195.355 118.169 197.814C115.338 200.754 111.97 203.126 108.248 204.801C105.189 206.034 101.813 206.248 98.6225 205.411C95.4318 204.574 92.5961 202.73 90.5361 200.154C83.5492 192.119 75.1998 190.792 65.3133 193.167C54.4136 195.997 46.4834 191.56 43.7585 180.661C42.8038 175.945 40.444 171.629 36.9895 168.281C33.5349 164.932 29.1475 162.708 24.4046 161.901C15.8805 160.468 11.7234 154.53 11.7932 144.992ZM103.008 26.9478C87.9034 26.9273 73.1315 31.3822 60.557 39.7502C47.9824 48.1183 38.169 60.0243 32.3555 73.9651C26.542 87.9059 24.9889 103.257 27.8926 118.079C30.7963 132.902 38.0265 146.532 48.6704 157.249C59.3142 167.966 72.8945 175.289 87.6969 178.294C102.499 181.299 117.86 179.851 131.841 174.133C145.821 168.415 157.794 158.683 166.248 146.166C174.701 133.649 179.257 118.908 179.34 103.804C179.466 93.7207 177.581 83.713 173.796 74.366C170.011 65.019 164.401 56.52 157.295 49.365C150.189 42.2099 141.728 36.5423 132.407 32.6934C123.086 28.8444 113.092 26.8913 103.008 26.9478Z" fill="#2D2D2D"/>
<path d="M102.833 37.428C115.927 37.4214 128.727 41.3038 139.611 48.5826C150.494 55.8615 158.971 66.2087 163.965 78.3121C168.96 90.4156 170.247 103.73 167.664 116.566C165.08 129.402 158.743 141.181 149.455 150.41C140.167 159.639 128.347 165.902 115.495 168.403C102.643 170.905 89.3372 169.533 77.2658 164.462C65.1944 159.39 54.9011 150.848 47.6917 139.918C40.4823 128.988 36.6816 116.164 36.7715 103.07C36.8363 85.6083 43.8304 68.8856 56.2174 56.5773C68.6044 44.2689 85.3709 37.3816 102.833 37.428ZM74.2565 84.5549C69.8548 84.5549 65.418 84.5549 61.0162 84.5549C59.4072 84.9064 57.8709 85.5329 56.4748 86.4065C57.1387 87.9192 58.0475 89.3117 59.1647 90.5286C65.5927 95.4195 72.1255 100.241 78.833 104.782C79.561 105.101 80.2147 105.568 80.7524 106.154C81.2902 106.739 81.7002 107.43 81.9565 108.182C82.2128 108.935 82.3097 109.732 82.241 110.524C82.1724 111.316 81.9398 112.085 81.5579 112.782C78.833 119.769 76.6321 126.965 74.5709 134.162C74.187 136.471 74.1048 138.819 74.3264 141.149C76.4462 140.556 78.496 139.736 80.4399 138.704C86.8679 134.232 93.2261 129.691 99.3746 124.73C99.8447 124.234 100.411 123.839 101.038 123.569C101.666 123.3 102.342 123.161 103.025 123.161C103.708 123.161 104.385 123.3 105.012 123.569C105.64 123.839 106.206 124.234 106.676 124.73C113.174 129.795 119.916 134.616 126.659 139.367C128.135 140.107 129.712 140.626 131.34 140.905C131.805 139.211 131.948 137.445 131.759 135.699C129.384 127.664 126.833 119.664 124.039 111.734C123.737 111.16 123.554 110.531 123.498 109.884C123.442 109.238 123.516 108.587 123.714 107.969C123.912 107.351 124.231 106.779 124.653 106.286C125.075 105.793 125.59 105.389 126.169 105.097C132.97 100.439 139.666 95.6059 146.257 90.5985C146.806 90.5817 147.343 90.436 147.824 90.1729C148.306 89.9099 148.719 89.5367 149.03 89.0842C149.341 88.6317 149.54 88.1123 149.613 87.5682C149.685 87.0241 149.629 86.4709 149.447 85.9528C149.266 85.4347 148.965 84.9666 148.569 84.5865C148.173 84.2064 147.693 83.9247 147.168 83.7647C146.643 83.6047 146.088 83.571 145.547 83.6658C145.006 83.7605 144.495 83.9811 144.056 84.3101C135.777 84.1005 127.532 84.1005 119.253 84.3101C118.023 84.4828 116.775 84.1714 115.772 83.4414C114.768 82.7114 114.087 81.6199 113.873 80.3974C111.392 72.3624 108.807 64.3625 106.012 56.4673C105.488 54.9301 103.846 53.7426 102.728 52.4151C101.575 53.5913 100.588 54.919 99.7938 56.3623C97.0689 64.3275 94.4138 72.2929 92.0033 80.3279C91.9271 80.9416 91.7274 81.5335 91.4161 82.0678C91.1048 82.6022 90.6884 83.0678 90.1921 83.4368C89.6958 83.8057 89.13 84.07 88.5286 84.2142C87.9273 84.3583 87.3029 84.3794 86.6933 84.2756C82.5361 84.3804 78.4138 84.5549 74.2565 84.5549Z" fill="#2D2D2D"/>
</svg>
