<svg width="40" height="39" viewBox="0 0 40 39" fill="none" xmlns="http://www.w3.org/2000/svg">
<path d="M0 12.0205C0.0475081 11.8589 0.0997658 11.7022 0.147274 11.5454C0.339096 10.9256 0.721548 10.3821 1.24016 9.99234C1.75877 9.60253 2.38711 9.38628 3.03577 9.3743C6.01453 9.3743 8.99328 9.3743 11.972 9.3743C12.1371 9.38276 12.2988 9.42479 12.4471 9.49783C13.8185 10.0838 15.1899 10.676 16.5613 11.2746C16.6481 11.3268 16.7494 11.3498 16.8502 11.3404C16.9511 11.331 17.0463 11.2897 17.1219 11.2224C18.0293 10.5905 18.9367 9.95863 19.8584 9.35528C20.2183 9.11806 20.6462 9.00567 21.0763 9.03539C21.5064 9.06511 21.9148 9.23532 22.2387 9.51981C22.5626 9.80429 22.784 10.1873 22.869 10.6099C22.9539 11.0325 22.8977 11.4714 22.7089 11.859C22.5662 12.1362 22.3691 12.3818 22.1293 12.5811C20.6043 13.8116 19.0603 15.0325 17.5115 16.2392C17.3669 16.3199 17.1968 16.342 17.0364 16.301C15.7727 15.9589 14.5137 15.5931 13.2073 15.2225C13.1075 18.4863 13.0077 21.7121 12.908 24.9807H12.4329C9.2736 24.9807 6.11431 24.9474 2.93127 24.9807C1.47752 24.9807 0.465588 24.5056 0.00951089 23.0804L0 12.0205Z" fill="#020D43"/>
<path d="M15.6872 18.3628C16.3428 18.5481 16.9461 18.7334 17.5875 18.8807C17.751 18.9132 17.9207 18.8826 18.0626 18.7952C19.9249 17.3367 21.7872 15.8781 23.6258 14.3864C24.4796 13.6992 25.0397 12.7128 25.1926 11.6275C25.3454 10.5423 25.0794 9.43955 24.4487 8.54329C23.8179 7.64702 22.8696 7.02447 21.7965 6.80204C20.7233 6.57961 19.6057 6.774 18.6707 7.34573C18.0531 7.73054 17.4497 8.14384 16.8654 8.57141C16.4568 8.87071 16.1908 8.4954 15.8772 8.39088C15.7822 8.35763 15.7157 8.10111 15.7109 7.94909C15.7109 7.47401 15.7109 6.96092 15.7109 6.46684C15.7109 5.51668 16.1528 5.07007 17.0887 5.07007H38.6288C38.8141 5.04459 39.0027 5.06248 39.1798 5.12238C39.357 5.18228 39.5178 5.28257 39.6495 5.41525C39.7813 5.54793 39.8804 5.70942 39.9391 5.88696C39.9977 6.06451 40.0143 6.25324 39.9876 6.43831C39.9876 15.4933 39.9876 24.5468 39.9876 33.5987C39.9876 34.8576 39.9876 36.1214 39.9876 37.3993C40.0104 37.5782 39.9922 37.7599 39.9344 37.9307C39.8766 38.1015 39.7806 38.257 39.6538 38.3852C39.527 38.5134 39.3726 38.611 39.2024 38.6707C39.0322 38.7303 38.8507 38.7505 38.6716 38.7295H16.9889C16.8127 38.7476 16.6346 38.726 16.4678 38.6664C16.301 38.6067 16.1497 38.5105 16.0249 38.3848C15.9001 38.2591 15.805 38.1071 15.7466 37.9398C15.6881 37.7726 15.6678 37.5944 15.6872 37.4183V18.3628ZM31.3648 10.1107C30.3387 10.1107 29.3125 10.1107 28.2816 10.1107C28.0927 10.1038 27.9051 10.1432 27.735 10.2254C27.5649 10.3076 27.4174 10.4302 27.3055 10.5824C27.1935 10.7346 27.1205 10.9119 27.0927 11.0988C27.0649 11.2857 27.0833 11.4765 27.1461 11.6547C27.2393 11.9151 27.4187 12.1359 27.6547 12.2802C27.8906 12.4245 28.1688 12.4838 28.4431 12.4481C30.3909 12.4481 32.3419 12.4481 34.2961 12.4481C34.5024 12.4518 34.7079 12.4213 34.9042 12.3578C35.1579 12.2611 35.3696 12.0785 35.5024 11.8417C35.6352 11.6049 35.6807 11.329 35.6309 11.0622C35.5812 10.7953 35.4393 10.5543 35.2301 10.3813C35.0209 10.2083 34.7576 10.1142 34.4861 10.1154C33.4172 10.1012 32.391 10.1107 31.3506 10.1107H31.3648ZM31.3648 16.5147C30.3624 16.5147 29.36 16.5147 28.3576 16.5147C28.0632 16.5257 27.7761 16.6089 27.5215 16.757C27.3263 16.8912 27.18 17.0851 27.1046 17.3096C27.0292 17.5341 27.0288 17.777 27.1034 18.0018C27.1787 18.2542 27.3369 18.474 27.5523 18.6257C27.7678 18.7774 28.028 18.8521 28.2911 18.8379C30.3197 18.8379 32.3483 18.8379 34.3769 18.8379C34.541 18.8524 34.7064 18.8321 34.8622 18.7785C35.018 18.7248 35.1608 18.6389 35.2812 18.5264C35.4016 18.4138 35.497 18.2772 35.5611 18.1253C35.6252 17.9735 35.6566 17.8099 35.6532 17.6451C35.6499 17.4803 35.6118 17.3181 35.5416 17.169C35.4714 17.0199 35.3705 16.8873 35.2456 16.7798C35.1207 16.6722 34.9746 16.5922 34.8167 16.5449C34.6589 16.4976 34.4928 16.4841 34.3293 16.5053L31.3648 16.5147ZM28.3623 21.1943C28.1983 21.1762 28.0324 21.1928 27.8752 21.2431C27.7181 21.2934 27.5734 21.3764 27.4504 21.4864C27.3275 21.5965 27.2292 21.7312 27.1619 21.8818C27.0945 22.0325 27.0598 22.1956 27.0598 22.3606C27.0598 22.5256 27.0945 22.6888 27.1619 22.8394C27.2292 22.9901 27.3275 23.1248 27.4504 23.2348C27.5734 23.3449 27.7181 23.4278 27.8752 23.4782C28.0324 23.5285 28.1983 23.5451 28.3623 23.5269C30.364 23.5269 32.3657 23.5269 34.3674 23.5269C34.5313 23.5451 34.6973 23.5285 34.8544 23.4782C35.0116 23.4278 35.1563 23.3449 35.2792 23.2348C35.4022 23.1248 35.5005 22.9901 35.5678 22.8394C35.6351 22.6888 35.6699 22.5256 35.6699 22.3606C35.6699 22.1956 35.6351 22.0325 35.5678 21.8818C35.5005 21.7312 35.4022 21.5965 35.2792 21.4864C35.1563 21.3764 35.0116 21.2934 34.8544 21.2431C34.6973 21.1928 34.5313 21.1762 34.3674 21.1943H28.3623ZM31.3126 30.5629C32.3388 30.5629 33.3649 30.5629 34.3959 30.5629C34.5553 30.5709 34.7147 30.5462 34.8642 30.4903C35.0137 30.4344 35.1502 30.3484 35.2652 30.2377C35.3802 30.127 35.4713 29.9939 35.5329 29.8466C35.5945 29.6994 35.6253 29.541 35.6233 29.3814C35.6214 29.2218 35.5867 29.0642 35.5216 28.9185C35.4564 28.7728 35.362 28.642 35.2444 28.5341C35.1267 28.4263 34.9882 28.3436 34.8373 28.2914C34.6865 28.2391 34.5265 28.2183 34.3674 28.2302C33.6405 28.2302 32.9136 28.2302 32.182 28.2302C30.885 28.2302 29.5833 28.2302 28.2816 28.2302C28.1119 28.2183 27.9418 28.2442 27.7833 28.306C27.6249 28.3678 27.4822 28.4639 27.3654 28.5875C27.2486 28.7111 27.1607 28.8591 27.108 29.0208C27.0553 29.1824 27.0391 29.3538 27.0606 29.5225C27.0919 29.8246 27.2401 30.1026 27.4735 30.297C27.707 30.4914 28.0072 30.5868 28.3101 30.5629C29.322 30.5724 30.3244 30.5629 31.3268 30.5629H31.3126ZM28.3528 32.905C28.1909 32.888 28.0272 32.9049 27.8721 32.9546C27.717 33.0042 27.5739 33.0857 27.452 33.1937C27.3301 33.3016 27.232 33.4338 27.164 33.5817C27.0959 33.7297 27.0594 33.8902 27.0568 34.053C27.0541 34.2158 27.0854 34.3774 27.1486 34.5275C27.2118 34.6776 27.3055 34.8129 27.4239 34.9248C27.5422 35.0366 27.6825 35.1226 27.8359 35.1773C27.9893 35.232 28.1524 35.2542 28.3148 35.2424C30.3355 35.2424 32.3514 35.2424 34.3626 35.2424C34.525 35.2538 34.688 35.2313 34.8412 35.1762C34.9944 35.1212 35.1345 35.0348 35.2526 34.9227C35.3706 34.8106 35.4641 34.6751 35.5269 34.525C35.5898 34.3748 35.6207 34.2132 35.6177 34.0504C35.6148 33.8876 35.578 33.7273 35.5096 33.5795C35.4413 33.4317 35.343 33.2998 35.2209 33.192C35.0989 33.0843 34.9557 33.0031 34.8006 32.9537C34.6454 32.9043 34.4817 32.8877 34.3199 32.905H28.3528ZM22.3716 32.2779C23.2647 33.0001 23.8253 33.0951 24.3479 32.601C24.8705 32.1069 24.7945 31.5416 24.0676 30.5677C24.8135 29.7268 24.9133 29.1424 24.3954 28.6008C23.8776 28.0592 23.3502 28.1257 22.3621 28.8859C21.5259 28.1732 20.9368 28.0545 20.4285 28.5533C20.2456 28.7506 20.1192 28.9935 20.0627 29.2564C19.9344 29.836 20.3287 30.2066 20.6945 30.5724C19.9486 31.4371 19.8584 32.0499 20.3715 32.5725C20.8846 33.0951 21.4784 32.9906 22.3716 32.2779ZM22.4903 18.3248C22.3098 18.1586 22.172 18.0208 22.0153 17.8925C21.9039 17.7867 21.7728 17.704 21.6294 17.6489C21.4861 17.5938 21.3333 17.5675 21.1797 17.5715C21.0262 17.5755 20.875 17.6096 20.7347 17.6721C20.5944 17.7345 20.4677 17.8239 20.362 17.9353C20.2562 18.0467 20.1734 18.1777 20.1184 18.3211C20.0633 18.4644 20.037 18.6172 20.0409 18.7707C20.0449 18.9243 20.0791 19.0755 20.1415 19.2158C20.2039 19.3562 20.2934 19.4828 20.4047 19.5886C20.7848 19.9591 21.1743 20.3249 21.5592 20.686C21.6702 20.8204 21.8095 20.9286 21.9672 21.0029C22.1249 21.0772 22.297 21.1157 22.4713 21.1157C22.6457 21.1157 22.8178 21.0772 22.9755 21.0029C23.1332 20.9286 23.2725 20.8204 23.3835 20.686C24.0739 20.0367 24.7596 19.3827 25.4406 18.7239C25.5725 18.6236 25.682 18.4968 25.762 18.3516C25.8419 18.2065 25.8907 18.0462 25.905 17.8811C25.9193 17.716 25.8989 17.5496 25.8451 17.3929C25.7913 17.2361 25.7053 17.0924 25.5926 16.9709C25.4762 16.8531 25.3368 16.7607 25.183 16.6993C25.0292 16.638 24.8644 16.6091 24.6989 16.6144C24.5334 16.6198 24.3708 16.6593 24.2213 16.7304C24.0718 16.8016 23.9386 16.9028 23.8301 17.0279L22.4903 18.3248Z" fill="#020D43"/>
<path d="M4.30899 27.4131H12.7892C12.7959 27.5017 12.7959 27.5906 12.7892 27.6791C12.6989 30.8907 12.6134 34.1022 12.5089 37.309C12.4756 38.3447 12.0623 38.7343 11.0219 38.7343H6.00978C5.12613 38.7343 4.67955 38.3352 4.64155 37.4468C4.56554 35.6035 4.51329 33.7602 4.45153 31.9121C4.40403 30.4156 4.35649 28.9524 4.30899 27.4131Z" fill="#020D43"/>
<path d="M12.6752 4.14368C12.6646 4.95418 12.4135 5.74327 11.9537 6.41081C11.4939 7.07834 10.8461 7.59421 10.0926 7.89294C9.33905 8.19167 8.51376 8.2598 7.72146 8.08867C6.92916 7.91753 6.20556 7.51487 5.64252 6.93176C5.07947 6.34865 4.70236 5.61136 4.55906 4.81356C4.41575 4.01575 4.51271 3.1934 4.83763 2.4508C5.16255 1.70819 5.70077 1.07886 6.38399 0.642684C7.06721 0.206511 7.8646 -0.0168297 8.67498 0.000988857C9.75322 0.0246971 10.7785 0.473275 11.5276 1.24912C12.2768 2.02496 12.6892 3.06527 12.6752 4.14368Z" fill="#020D43"/>
</svg>
