<svg width="44" height="42" viewBox="0 0 44 42" fill="none" xmlns="http://www.w3.org/2000/svg">
<path d="M3.02331 19.5038C3.02331 18.4024 3.02331 17.3671 3.02331 16.3319C3.00401 16.1345 3.05311 15.9366 3.16239 15.7711C3.27167 15.6057 3.43447 15.4829 3.62354 15.4232C6.32486 14.1789 9.24734 13.4862 12.2198 13.3857C12.3085 13.3805 12.3968 13.3694 12.4841 13.3526C11.4488 9.49779 12.0491 6.01192 14.8576 3.08777C15.8007 2.09997 16.9469 1.32851 18.2171 0.826533C19.4872 0.324555 20.8511 0.103984 22.2148 0.18012C23.7898 0.189124 25.3382 0.586919 26.7225 1.33817C28.1069 2.08941 29.2843 3.1709 30.1502 4.48654C31.0637 5.76045 31.6594 7.23435 31.8874 8.7853C32.1154 10.3362 31.9691 11.9192 31.4608 13.4022C32.3584 13.4627 33.2175 13.4958 34.0656 13.5894C36.4431 13.8707 38.7599 14.5326 40.9272 15.5498C41.0845 15.6144 41.2168 15.7281 41.3041 15.874C41.3915 16.0199 41.4292 16.1902 41.4118 16.3593C41.4118 17.4057 41.4118 18.452 41.4118 19.5589C41.99 19.5589 42.5131 19.5589 43.0638 19.5589C43.7742 19.5589 44 19.7792 44 20.4785V40.2042C44 40.876 43.7797 41.0908 43.0914 41.0908H0.903137C0.181735 41.0908 0 40.9091 0 40.1657V20.4455C0 19.6745 0.165213 19.5093 0.936177 19.5038H3.02331ZM40.013 37.1258V16.9926C40.013 16.7614 40.0461 16.5576 39.7377 16.442C37.0488 15.2323 34.1148 14.6667 31.169 14.7899C31.0064 14.8101 30.8582 14.8932 30.756 15.0212C30.2053 15.7481 29.6546 16.5246 29.0764 17.224C27.4096 19.207 26.4522 21.6895 26.356 24.2782C26.3624 24.4746 26.4234 24.6653 26.5322 24.8289C26.7793 25.1832 26.9167 25.6023 26.9275 26.0341C26.9383 26.4659 26.8219 26.8913 26.5928 27.2575C26.3033 27.7081 26.1591 28.2367 26.1797 28.7719C26.1897 29.0638 26.1396 29.3547 26.0324 29.6265C25.9253 29.8982 25.7634 30.1451 25.5568 30.3517C25.3502 30.5582 25.1034 30.7201 24.8316 30.8273C24.5599 30.9344 24.2689 30.9846 23.977 30.9746C23.6576 30.9746 23.3382 30.9746 23.0188 30.9746V37.0983C28.6099 35.8048 34.4227 35.8066 40.013 37.1038V37.1258ZM21.5044 31.0683H20.2598C19.9413 31.0964 19.6204 31.0548 19.3196 30.9464C19.0187 30.838 18.7451 30.6654 18.5176 30.4406C18.2902 30.2158 18.1144 29.9441 18.0026 29.6446C17.8907 29.345 17.8454 29.0247 17.8698 28.7058C17.8864 28.5742 17.8864 28.441 17.8698 28.3093C17.8278 28.0457 17.7383 27.792 17.6055 27.5604C17.3225 27.1545 17.1753 26.6694 17.1852 26.1747C17.1951 25.68 17.3615 25.2012 17.6606 24.8069C17.786 24.6512 17.8523 24.4562 17.8478 24.2563C17.7503 21.5576 16.6691 18.9879 14.808 17.0312C14.2922 16.445 13.8209 15.821 13.3983 15.1644C13.3432 15.0581 13.2591 14.9696 13.1558 14.9092C13.0525 14.8488 12.9341 14.8189 12.8145 14.823C10.0722 14.7938 7.35598 15.3574 4.8516 16.475C4.72022 16.5113 4.60694 16.595 4.5337 16.7099C4.46046 16.8249 4.43245 16.9629 4.45508 17.0973C4.45508 23.6138 4.45508 30.1266 4.45508 36.6357V37.1533C10.0706 35.8476 15.9109 35.8476 21.5264 37.1533L21.5044 31.0683ZM19.1199 25.5614C18.6353 25.5614 18.4976 25.6935 18.4921 26.1451C18.4866 26.5966 18.6243 26.7949 19.1034 26.8004H24.9021C25.3647 26.8004 25.5079 26.6462 25.5134 26.1837C25.5189 25.7211 25.3757 25.5669 24.8801 25.5614H19.1199ZM24.825 28.2047H19.2025C19.1199 29.1849 19.3402 29.5924 20.012 29.6089C21.3392 29.6365 22.6663 29.6089 23.9935 29.6089C24.1049 29.6154 24.2163 29.5982 24.3205 29.5583C24.4247 29.5185 24.5193 29.4569 24.5979 29.3778C24.6765 29.2986 24.7374 29.2037 24.7766 29.0993C24.8157 28.9948 24.8322 28.8832 24.825 28.7719C24.836 28.5736 24.825 28.4139 24.825 28.1991V28.2047Z" fill="#1D55C4"/>
<path d="M35.6461 4.44247C35.3707 4.18915 35.0954 4.03494 34.9632 3.79814C34.9279 3.73171 34.9066 3.65875 34.9006 3.58377C34.8945 3.50879 34.9039 3.43334 34.9282 3.36213C34.9524 3.29093 34.991 3.22546 35.0416 3.16974C35.0921 3.11402 35.1535 3.06926 35.222 3.03819C35.7727 2.71328 36.3234 2.4159 36.8741 2.12954C37.0083 2.06271 37.1623 2.04713 37.3073 2.08564C37.4522 2.12416 37.5782 2.21414 37.6616 2.3388C37.8763 2.59212 37.9534 2.95561 37.7056 3.13734C37.0833 3.59992 36.395 3.97989 35.6461 4.44247Z" fill="#1D55C4"/>
<path d="M9.7747 3.37962C9.79296 3.51186 9.775 3.6466 9.72274 3.76944C9.67048 3.89229 9.58589 3.99863 9.47795 4.07719C9.37001 4.15574 9.24277 4.20358 9.1098 4.21553C8.97684 4.22749 8.84313 4.20313 8.7229 4.14508C8.20526 3.89727 7.70414 3.5944 7.21402 3.31905C7.06424 3.21073 6.95733 3.05318 6.91203 2.87397C6.86672 2.69476 6.8859 2.5053 6.96621 2.33881C7.05707 2.18439 7.20498 2.07191 7.37805 2.02555C7.55112 1.9792 7.73547 2.0027 7.89136 2.09103C8.4035 2.35536 8.91016 2.64173 9.39476 2.92808C9.5475 3.05458 9.67618 3.20751 9.7747 3.37962Z" fill="#1D55C4"/>
<path d="M33.7682 0.576641C33.7368 0.728789 33.6926 0.877973 33.636 1.02266C33.4103 1.42467 33.19 1.82668 32.9422 2.20666C32.8464 2.36774 32.6938 2.48706 32.5143 2.54109C32.3349 2.59512 32.1418 2.57996 31.973 2.49854C31.8147 2.39689 31.7032 2.23661 31.6629 2.05285C31.6227 1.86909 31.6569 1.67682 31.7582 1.5183C31.9675 1.11079 32.2043 0.719785 32.4521 0.334304C32.5253 0.19406 32.6492 0.0869971 32.7985 0.0348265C32.9479 -0.0173441 33.1115 -0.0107104 33.2561 0.0534472C33.4763 0.152571 33.6085 0.416942 33.7682 0.576641Z" fill="#1D55C4"/>
<path d="M8.65683 7.9999C8.43656 7.9999 8.21627 7.9999 7.996 7.9999C7.82507 7.9848 7.66597 7.9064 7.54984 7.78008C7.43371 7.65376 7.36891 7.48864 7.36821 7.31705C7.35441 7.15657 7.40454 6.99713 7.50766 6.87338C7.61078 6.74964 7.75855 6.67156 7.91889 6.65619C8.43113 6.60394 8.94602 6.58188 9.46085 6.59011C9.54349 6.58918 9.62543 6.60535 9.70154 6.63756C9.77765 6.66977 9.84627 6.71735 9.90314 6.77732C9.96001 6.83729 10.0039 6.90834 10.032 6.98605C10.0601 7.06376 10.0719 7.14645 10.0666 7.22892C10.0837 7.393 10.0354 7.55722 9.93238 7.68604C9.82933 7.81485 9.67972 7.89791 9.5159 7.91728C9.22404 7.96134 8.92668 7.96685 8.63482 7.98887L8.65683 7.9999Z" fill="#1D55C4"/>
<path d="M13.1835 2.00287C13.0183 2.19011 12.8861 2.47098 12.6989 2.50953C12.5689 2.53912 12.4338 2.53859 12.304 2.50805C12.1742 2.47751 12.0531 2.41773 11.9499 2.33327C11.6008 1.91664 11.3117 1.45325 11.0909 0.956551C11.0607 0.836609 11.0605 0.711097 11.0903 0.591061C11.1201 0.471026 11.1789 0.360148 11.2616 0.268191C11.3677 0.189626 11.491 0.137615 11.6213 0.116536C11.7516 0.0954573 11.8851 0.10594 12.0105 0.147055C12.5418 0.664985 12.9436 1.30075 13.1835 2.00287Z" fill="#1D55C4"/>
<path d="M35.9049 7.98338C35.6516 7.98338 35.4038 7.98339 35.1559 7.92281C34.9826 7.88733 34.826 7.79489 34.7113 7.66017C34.5965 7.52545 34.5301 7.35621 34.5226 7.17939C34.542 7.00857 34.6257 6.85149 34.7565 6.74003C34.8874 6.62856 35.0558 6.57108 35.2275 6.57916C35.7121 6.57916 36.1968 6.5791 36.6814 6.6562C36.7645 6.66203 36.8455 6.68511 36.9192 6.72396C36.9929 6.76281 37.0577 6.8166 37.1095 6.88187C37.1613 6.94714 37.199 7.02248 37.2201 7.1031C37.2412 7.18371 37.2453 7.2678 37.2321 7.35007C37.2321 7.52241 37.1636 7.68774 37.0417 7.80961C36.9198 7.93147 36.7546 7.99991 36.5822 7.99991C36.351 7.99991 36.1141 7.99991 35.8773 7.99991L35.9049 7.98338Z" fill="#1D55C4"/>
<path d="M31.3177 31.9493C32.5567 31.9493 33.7957 31.9493 35.0348 31.9493C35.2232 31.944 35.4107 31.9778 35.5855 32.0485C35.7157 32.1052 35.8221 32.2054 35.8864 32.332C35.9507 32.4586 35.9689 32.6037 35.9379 32.7423C35.9288 32.8853 35.8679 33.0202 35.7665 33.1216C35.6651 33.223 35.5303 33.2839 35.3872 33.293C35.2699 33.3012 35.1521 33.3012 35.0348 33.293C32.5402 33.293 30.0455 33.293 27.5509 33.293C27.2925 33.3018 27.0398 33.2156 26.8406 33.0507C26.7684 32.9467 26.7219 32.8272 26.7046 32.7019C26.6874 32.5765 26.7 32.4488 26.7414 32.3293C26.8147 32.2194 26.9115 32.1273 27.0248 32.0597C27.1382 31.992 27.2653 31.9506 27.3967 31.9383C28.7184 31.9328 30.018 31.9493 31.3177 31.9493Z" fill="#1D55C4"/>
<path d="M30.1998 28.9261C29.6491 28.9261 29.3627 28.6838 29.3627 28.2322C29.3627 27.7806 29.6381 27.5438 30.2053 27.5383H35.1229C35.6736 27.5383 35.9545 27.7806 35.9545 28.2377C35.9545 28.6948 35.6791 28.9206 35.1174 28.9261H30.1998Z" fill="#1D55C4"/>
<path d="M33.0578 23.0667H35.1394C35.6296 23.0667 35.8994 23.309 35.9104 23.7275C35.9175 23.8243 35.9031 23.9215 35.8684 24.0121C35.8337 24.1027 35.7795 24.1846 35.7096 24.2519C35.6396 24.3191 35.5558 24.3702 35.4639 24.4014C35.372 24.4326 35.2744 24.4432 35.178 24.4324C33.7352 24.4324 32.2869 24.4324 30.8441 24.4324C30.7513 24.4445 30.657 24.4354 30.5682 24.4059C30.4794 24.3765 30.3983 24.3274 30.3311 24.2623C30.2639 24.1973 30.2122 24.1178 30.18 24.03C30.1477 23.9422 30.1356 23.8482 30.1447 23.7551C30.1447 23.32 30.398 23.0778 30.8881 23.0778C31.5985 23.0667 32.3199 23.0667 33.0578 23.0667Z" fill="#1D55C4"/>
<path d="M33.4598 18.6117H35.1119C35.635 18.6117 35.9104 18.8595 35.9104 19.2835C35.9104 19.7075 35.635 19.9719 35.1229 19.9774H31.8188C31.3011 19.9774 31.0478 19.7295 31.0533 19.278C31.0588 18.8264 31.2956 18.6227 31.8077 18.6117C32.3199 18.6007 32.8981 18.6117 33.4598 18.6117Z" fill="#1D55C4"/>
<path d="M13.4093 33.326C12.1702 33.326 10.9312 33.326 9.69212 33.326C9.42061 33.3284 9.15781 33.2303 8.95418 33.0507C8.88849 32.9444 8.84921 32.824 8.83963 32.6995C8.83005 32.5749 8.85045 32.4498 8.89912 32.3348C8.97152 32.2319 9.06591 32.1464 9.17544 32.0845C9.28498 32.0226 9.40693 31.9858 9.53243 31.9769C10.6338 31.9383 11.6856 31.9769 12.765 31.9769C14.2518 31.9769 15.7387 31.9769 17.231 31.9769C17.7817 31.9769 18.0681 32.2907 18.0075 32.7643C17.9469 33.2379 17.7156 33.3536 17.2145 33.3536L13.4093 33.326Z" fill="#1D55C4"/>
<path d="M9.63158 28.9261C9.08089 28.9261 8.79452 28.6782 8.80003 28.2322C8.80554 27.7861 9.08086 27.5438 9.64257 27.5383H14.5602C15.1109 27.5383 15.3918 27.7861 15.3918 28.2377C15.3918 28.6893 15.1109 28.9206 14.5492 28.9261H9.63158Z" fill="#1D55C4"/>
<path d="M11.6967 24.449H9.61504C9.06435 24.449 8.7835 24.1901 8.79452 23.7441C8.80553 23.298 9.08637 23.0833 9.60953 23.0778H13.7838C14.3344 23.0778 14.5712 23.3145 14.5767 23.7606C14.5823 24.2067 14.3344 24.4379 13.7893 24.4434C13.0844 24.46 12.3905 24.449 11.6967 24.449Z" fill="#1D55C4"/>
<path d="M9.59303 19.9774C9.06987 19.9774 8.789 19.7406 8.77799 19.3111C8.76697 18.8815 9.04234 18.6172 9.55448 18.6117H12.8586C13.4093 18.6117 13.6461 18.8485 13.6461 19.2945C13.6461 19.7406 13.3762 19.9719 12.8531 19.9774H9.59303Z" fill="#1D55C4"/>
</svg>
