<svg width="42" height="43" viewBox="0 0 42 43" fill="none" xmlns="http://www.w3.org/2000/svg">
<rect y="0.234375" width="42" height="42" rx="4" fill="white"/>
<path d="M29.8087 30.0145H26.1232V24.2399C26.1232 22.8632 26.0946 21.0913 24.2031 21.0913C22.2804 21.0913 21.9879 22.5889 21.9879 24.1385V30.0145H18.3024V18.1403H21.8423V19.7588H21.8904C22.3844 18.8254 23.5882 17.84 25.3848 17.84C29.1184 17.84 29.8087 20.2983 29.8087 23.4963V30.0145ZM14.1398 16.5153C12.9529 16.5153 12 15.5546 12 14.3729C12 13.1938 12.9542 12.2344 14.1398 12.2344C15.3215 12.2344 16.2796 13.1938 16.2796 14.3729C16.2796 15.5546 15.3215 16.5153 14.1398 16.5153ZM15.9871 30.0145H12.2925V18.1403H15.9871V30.0145Z" fill="#0077B5"/>
</svg>
