<svg width="241" height="23" viewBox="0 0 241 23" fill="none" xmlns="http://www.w3.org/2000/svg">
<path d="M58.8182 5.02181C58.8877 4.91061 58.985 4.85501 59.1101 4.85501H61.5496C61.6191 4.85501 61.6747 4.88281 61.7164 4.93841C61.772 4.98011 61.7998 5.03571 61.7998 5.10521V19.1998C61.7998 19.2693 61.772 19.3319 61.7164 19.3875C61.6747 19.4292 61.6191 19.45 61.5496 19.45H59.1101C59.0406 19.45 58.9781 19.4292 58.9225 19.3875C58.8808 19.3319 58.8599 19.2693 58.8599 19.1998V10.005C58.8599 9.94936 58.846 9.92156 58.8182 9.92156C58.7904 9.92156 58.7626 9.94241 58.7348 9.98411L56.5247 13.4452C56.4552 13.5564 56.3579 13.612 56.2328 13.612H55.0027C54.8776 13.612 54.7803 13.5564 54.7108 13.4452L52.5007 9.98411C52.4729 9.94241 52.4451 9.92851 52.4173 9.94241C52.3895 9.94241 52.3756 9.97021 52.3756 10.0258V19.1998C52.3756 19.2693 52.3478 19.3319 52.2922 19.3875C52.2505 19.4292 52.1949 19.45 52.1254 19.45H49.6859C49.6164 19.45 49.5539 19.4292 49.4983 19.3875C49.4566 19.3319 49.4357 19.2693 49.4357 19.1998V5.10521C49.4357 5.03571 49.4566 4.98011 49.4983 4.93841C49.5539 4.88281 49.6164 4.85501 49.6859 4.85501H52.1254C52.2505 4.85501 52.3478 4.91061 52.4173 5.02181L55.5448 9.87986C55.5865 9.96326 55.6282 9.96326 55.6699 9.87986L58.8182 5.02181ZM65.6329 19.45C65.5634 19.45 65.5009 19.4292 65.4453 19.3875C65.4036 19.3319 65.3827 19.2693 65.3827 19.1998V5.10521C65.3827 5.03571 65.4036 4.98011 65.4453 4.93841C65.5009 4.88281 65.5634 4.85501 65.6329 4.85501H68.0724C68.1419 4.85501 68.1975 4.88281 68.2392 4.93841C68.2948 4.98011 68.3226 5.03571 68.3226 5.10521V19.1998C68.3226 19.2693 68.2948 19.3319 68.2392 19.3875C68.1975 19.4292 68.1419 19.45 68.0724 19.45H65.6329ZM76.9064 19.6168C75.7944 19.6168 74.8214 19.4431 73.9874 19.0956C73.1534 18.7342 72.5071 18.2268 72.0484 17.5735C71.6036 16.9063 71.3812 16.1349 71.3812 15.2592V14.8005C71.3812 14.731 71.402 14.6754 71.4437 14.6337C71.4993 14.5781 71.5619 14.5503 71.6314 14.5503H74.0083C74.0778 14.5503 74.1334 14.5781 74.1751 14.6337C74.2307 14.6754 74.2585 14.731 74.2585 14.8005V15.1132C74.2585 15.6692 74.5156 16.1418 75.0299 16.531C75.5442 16.9063 76.2392 17.094 77.1149 17.094C77.8516 17.094 78.4007 16.9411 78.7621 16.6353C79.1235 16.3156 79.3042 15.9264 79.3042 15.4677C79.3042 15.1341 79.193 14.8561 78.9706 14.6337C78.7482 14.3974 78.4424 14.1958 78.0532 14.029C77.6779 13.8483 77.0732 13.6051 76.2392 13.2993C75.3079 12.9796 74.5156 12.6529 73.8623 12.3193C73.2229 11.9857 72.6808 11.534 72.236 10.9641C71.8051 10.3803 71.5897 9.66441 71.5897 8.81651C71.5897 7.98251 71.8051 7.25276 72.236 6.62726C72.6669 6.00176 73.2646 5.52221 74.0291 5.18861C74.7936 4.85501 75.6763 4.68821 76.6771 4.68821C77.7335 4.68821 78.6717 4.87586 79.4918 5.25116C80.3258 5.62646 80.9722 6.15466 81.4309 6.83576C81.9035 7.50296 82.1398 8.28136 82.1398 9.17096V9.48371C82.1398 9.55321 82.112 9.61576 82.0564 9.67136C82.0147 9.71306 81.9591 9.73391 81.8896 9.73391H79.4918C79.4223 9.73391 79.3598 9.71306 79.3042 9.67136C79.2625 9.61576 79.2416 9.55321 79.2416 9.48371V9.31691C79.2416 8.73311 78.9984 8.23966 78.5119 7.83656C78.0393 7.41956 77.386 7.21106 76.552 7.21106C75.8987 7.21106 75.3844 7.35006 75.0091 7.62806C74.6477 7.90606 74.467 8.28831 74.467 8.77481C74.467 9.12231 74.5712 9.41421 74.7797 9.65051C75.0021 9.88681 75.3218 10.1023 75.7388 10.2969C76.1697 10.4776 76.83 10.7278 77.7196 11.0475C78.7065 11.4089 79.4779 11.7286 80.0339 12.0066C80.6038 12.2846 81.1112 12.7016 81.556 13.2576C82.0147 13.7997 82.244 14.5086 82.244 15.3843C82.244 16.6909 81.7645 17.7264 80.8054 18.4909C79.8463 19.2415 78.5466 19.6168 76.9064 19.6168ZM90.349 19.6168C89.237 19.6168 88.264 19.4431 87.43 19.0956C86.596 18.7342 85.9496 18.2268 85.4909 17.5735C85.0461 16.9063 84.8237 16.1349 84.8237 15.2592V14.8005C84.8237 14.731 84.8446 14.6754 84.8863 14.6337C84.9419 14.5781 85.0044 14.5503 85.0739 14.5503H87.4508C87.5203 14.5503 87.5759 14.5781 87.6176 14.6337C87.6732 14.6754 87.701 14.731 87.701 14.8005V15.1132C87.701 15.6692 87.9582 16.1418 88.4725 16.531C88.9868 16.9063 89.6818 17.094 90.5575 17.094C91.2942 17.094 91.8432 16.9411 92.2046 16.6353C92.566 16.3156 92.7467 15.9264 92.7467 15.4677C92.7467 15.1341 92.6355 14.8561 92.4131 14.6337C92.1907 14.3974 91.8849 14.1958 91.4957 14.029C91.1204 13.8483 90.5158 13.6051 89.6818 13.2993C88.7505 12.9796 87.9582 12.6529 87.3049 12.3193C86.6655 11.9857 86.1234 11.534 85.6786 10.9641C85.2477 10.3803 85.0322 9.66441 85.0322 8.81651C85.0322 7.98251 85.2477 7.25276 85.6786 6.62726C86.1095 6.00176 86.7072 5.52221 87.4717 5.18861C88.2362 4.85501 89.1188 4.68821 90.1196 4.68821C91.176 4.68821 92.1143 4.87586 92.9344 5.25116C93.7684 5.62646 94.4147 6.15466 94.8734 6.83576C95.346 7.50296 95.5823 8.28136 95.5823 9.17096V9.48371C95.5823 9.55321 95.5545 9.61576 95.4989 9.67136C95.4572 9.71306 95.4016 9.73391 95.3321 9.73391H92.9344C92.8649 9.73391 92.8023 9.71306 92.7467 9.67136C92.705 9.61576 92.6842 9.55321 92.6842 9.48371V9.31691C92.6842 8.73311 92.4409 8.23966 91.9544 7.83656C91.4818 7.41956 90.8285 7.21106 89.9945 7.21106C89.3412 7.21106 88.8269 7.35006 88.4516 7.62806C88.0902 7.90606 87.9095 8.28831 87.9095 8.77481C87.9095 9.12231 88.0138 9.41421 88.2223 9.65051C88.4447 9.88681 88.7644 10.1023 89.1814 10.2969C89.6123 10.4776 90.2725 10.7278 91.1621 11.0475C92.149 11.4089 92.9205 11.7286 93.4765 12.0066C94.0464 12.2846 94.5537 12.7016 94.9985 13.2576C95.4572 13.7997 95.6866 14.5086 95.6866 15.3843C95.6866 16.6909 95.207 17.7264 94.2479 18.4909C93.2888 19.2415 91.9892 19.6168 90.349 19.6168ZM108.9 7.12766C108.9 7.19716 108.872 7.25971 108.816 7.31531C108.775 7.35701 108.719 7.37786 108.65 7.37786H101.832C101.762 7.37786 101.727 7.41261 101.727 7.48211V10.7139C101.727 10.7834 101.762 10.8181 101.832 10.8181H106.314C106.384 10.8181 106.439 10.8459 106.481 10.9015C106.537 10.9432 106.565 10.9988 106.565 11.0683V13.0908C106.565 13.1603 106.537 13.2228 106.481 13.2784C106.439 13.3201 106.384 13.341 106.314 13.341H101.832C101.762 13.341 101.727 13.3757 101.727 13.4452V19.1998C101.727 19.2693 101.7 19.3319 101.644 19.3875C101.602 19.4292 101.547 19.45 101.477 19.45H99.0377C98.9682 19.45 98.9057 19.4292 98.8501 19.3875C98.8084 19.3319 98.7875 19.2693 98.7875 19.1998V5.10521C98.7875 5.03571 98.8084 4.98011 98.8501 4.93841C98.9057 4.88281 98.9682 4.85501 99.0377 4.85501H108.65C108.719 4.85501 108.775 4.88281 108.816 4.93841C108.872 4.98011 108.9 5.03571 108.9 5.10521V7.12766ZM111.747 19.45C111.678 19.45 111.615 19.4292 111.56 19.3875C111.518 19.3319 111.497 19.2693 111.497 19.1998V5.10521C111.497 5.03571 111.518 4.98011 111.56 4.93841C111.615 4.88281 111.678 4.85501 111.747 4.85501H114.187C114.256 4.85501 114.312 4.88281 114.353 4.93841C114.409 4.98011 114.437 5.03571 114.437 5.10521V19.1998C114.437 19.2693 114.409 19.3319 114.353 19.3875C114.312 19.4292 114.256 19.45 114.187 19.45H111.747ZM128.087 4.85501C128.157 4.85501 128.212 4.88281 128.254 4.93841C128.31 4.98011 128.337 5.03571 128.337 5.10521V7.14851C128.337 7.21801 128.31 7.28056 128.254 7.33616C128.212 7.37786 128.157 7.39871 128.087 7.39871H124.355C124.286 7.39871 124.251 7.43346 124.251 7.50296V19.1998C124.251 19.2693 124.223 19.3319 124.167 19.3875C124.126 19.4292 124.07 19.45 124.001 19.45H121.561C121.492 19.45 121.429 19.4292 121.374 19.3875C121.332 19.3319 121.311 19.2693 121.311 19.1998V7.50296C121.311 7.43346 121.276 7.39871 121.207 7.39871H117.579C117.509 7.39871 117.447 7.37786 117.391 7.33616C117.35 7.28056 117.329 7.21801 117.329 7.14851V5.10521C117.329 5.03571 117.35 4.98011 117.391 4.93841C117.447 4.88281 117.509 4.85501 117.579 4.85501H128.087ZM141.601 19.6168C140.517 19.6168 139.565 19.4083 138.745 18.9913C137.925 18.5604 137.292 17.9627 136.848 17.1982C136.403 16.4337 136.18 15.5511 136.18 14.5503V9.73391C136.18 8.73311 136.403 7.85046 136.848 7.08596C137.292 6.32146 137.925 5.73071 138.745 5.31371C139.565 4.89671 140.517 4.68821 141.601 4.68821C142.672 4.68821 143.61 4.88976 144.416 5.29286C145.236 5.68206 145.869 6.24501 146.313 6.98171C146.772 7.70451 147.002 8.54546 147.002 9.50456C147.002 9.62966 146.918 9.70611 146.751 9.73391L144.312 9.87986H144.27C144.131 9.87986 144.062 9.80341 144.062 9.65051C144.062 8.91381 143.832 8.32306 143.374 7.87826C142.929 7.43346 142.338 7.21106 141.601 7.21106C140.851 7.21106 140.246 7.43346 139.787 7.87826C139.343 8.32306 139.12 8.91381 139.12 9.65051V14.6754C139.12 15.3982 139.343 15.982 139.787 16.4268C140.246 16.8716 140.851 17.094 141.601 17.094C142.338 17.094 142.929 16.8716 143.374 16.4268C143.832 15.982 144.062 15.3982 144.062 14.6754C144.062 14.5225 144.145 14.446 144.312 14.446L146.751 14.5503C146.821 14.5503 146.876 14.5711 146.918 14.6128C146.974 14.6545 147.002 14.7032 147.002 14.7588C147.002 15.7179 146.772 16.5658 146.313 17.3025C145.869 18.0392 145.236 18.6091 144.416 19.0122C143.61 19.4153 142.672 19.6168 141.601 19.6168ZM155.392 19.6794C154.307 19.6794 153.348 19.457 152.514 19.0122C151.694 18.5674 151.055 17.9488 150.596 17.1565C150.137 16.3503 149.908 15.426 149.908 14.3835V9.92156C149.908 8.89296 150.137 7.98251 150.596 7.19021C151.055 6.39791 151.694 5.78631 152.514 5.35541C153.348 4.91061 154.307 4.68821 155.392 4.68821C156.49 4.68821 157.449 4.91061 158.269 5.35541C159.103 5.78631 159.749 6.39791 160.208 7.19021C160.667 7.98251 160.896 8.89296 160.896 9.92156V14.3835C160.896 15.426 160.667 16.3503 160.208 17.1565C159.749 17.9627 159.103 18.5882 158.269 19.033C157.449 19.4639 156.49 19.6794 155.392 19.6794ZM155.392 17.1565C156.156 17.1565 156.775 16.9133 157.247 16.4268C157.72 15.9403 157.956 15.2939 157.956 14.4877V9.90071C157.956 9.09451 157.72 8.44816 157.247 7.96166C156.788 7.46126 156.17 7.21106 155.392 7.21106C154.627 7.21106 154.008 7.46126 153.536 7.96166C153.077 8.44816 152.848 9.09451 152.848 9.90071V14.4877C152.848 15.2939 153.077 15.9403 153.536 16.4268C154.008 16.9133 154.627 17.1565 155.392 17.1565ZM173.145 19.45C173.006 19.45 172.915 19.3805 172.874 19.2415L172.248 17.1982C172.22 17.1426 172.186 17.1148 172.144 17.1148H167.015C166.973 17.1148 166.938 17.1426 166.91 17.1982L166.306 19.2415C166.264 19.3805 166.174 19.45 166.035 19.45H163.387C163.303 19.45 163.241 19.4292 163.199 19.3875C163.157 19.3319 163.151 19.2554 163.178 19.1581L167.682 5.06351C167.724 4.92451 167.814 4.85501 167.953 4.85501H171.226C171.365 4.85501 171.456 4.92451 171.497 5.06351L176.001 19.1581C176.015 19.1859 176.022 19.2207 176.022 19.2624C176.022 19.3875 175.945 19.45 175.793 19.45H173.145ZM167.661 14.7171C167.647 14.8005 167.675 14.8422 167.744 14.8422H171.414C171.497 14.8422 171.525 14.8005 171.497 14.7171L169.621 8.52461C169.607 8.46901 169.586 8.44816 169.558 8.46206C169.531 8.46206 169.51 8.48291 169.496 8.52461L167.661 14.7171ZM183.578 19.6168C182.494 19.6168 181.542 19.4083 180.722 18.9913C179.902 18.5604 179.269 17.9627 178.824 17.1982C178.38 16.4337 178.157 15.5511 178.157 14.5503V9.73391C178.157 8.73311 178.38 7.85046 178.824 7.08596C179.269 6.32146 179.902 5.73071 180.722 5.31371C181.542 4.89671 182.494 4.68821 183.578 4.68821C184.649 4.68821 185.587 4.88976 186.393 5.29286C187.213 5.68206 187.846 6.24501 188.29 6.98171C188.749 7.70451 188.978 8.54546 188.978 9.50456C188.978 9.62966 188.895 9.70611 188.728 9.73391L186.289 9.87986H186.247C186.108 9.87986 186.039 9.80341 186.039 9.65051C186.039 8.91381 185.809 8.32306 185.351 7.87826C184.906 7.43346 184.315 7.21106 183.578 7.21106C182.828 7.21106 182.223 7.43346 181.764 7.87826C181.32 8.32306 181.097 8.91381 181.097 9.65051V14.6754C181.097 15.3982 181.32 15.982 181.764 16.4268C182.223 16.8716 182.828 17.094 183.578 17.094C184.315 17.094 184.906 16.8716 185.351 16.4268C185.809 15.982 186.039 15.3982 186.039 14.6754C186.039 14.5225 186.122 14.446 186.289 14.446L188.728 14.5503C188.798 14.5503 188.853 14.5711 188.895 14.6128C188.951 14.6545 188.978 14.7032 188.978 14.7588C188.978 15.7179 188.749 16.5658 188.29 17.3025C187.846 18.0392 187.213 18.6091 186.393 19.0122C185.587 19.4153 184.649 19.6168 183.578 19.6168ZM199.933 5.10521C199.933 5.03571 199.954 4.98011 199.996 4.93841C200.051 4.88281 200.114 4.85501 200.183 4.85501H202.623C202.692 4.85501 202.748 4.88281 202.789 4.93841C202.845 4.98011 202.873 5.03571 202.873 5.10521V19.1998C202.873 19.2693 202.845 19.3319 202.789 19.3875C202.748 19.4292 202.692 19.45 202.623 19.45H200.183C200.114 19.45 200.051 19.4292 199.996 19.3875C199.954 19.3319 199.933 19.2693 199.933 19.1998V13.4452C199.933 13.3757 199.898 13.341 199.829 13.341H195.221C195.151 13.341 195.117 13.3757 195.117 13.4452V19.1998C195.117 19.2693 195.089 19.3319 195.033 19.3875C194.992 19.4292 194.936 19.45 194.866 19.45H192.427C192.357 19.45 192.295 19.4292 192.239 19.3875C192.198 19.3319 192.177 19.2693 192.177 19.1998V5.10521C192.177 5.03571 192.198 4.98011 192.239 4.93841C192.295 4.88281 192.357 4.85501 192.427 4.85501H194.866C194.936 4.85501 194.992 4.88281 195.033 4.93841C195.089 4.98011 195.117 5.03571 195.117 5.10521V10.7139C195.117 10.7834 195.151 10.8181 195.221 10.8181H199.829C199.898 10.8181 199.933 10.7834 199.933 10.7139V5.10521ZM206.562 19.45C206.492 19.45 206.43 19.4292 206.374 19.3875C206.332 19.3319 206.312 19.2693 206.312 19.1998V5.10521C206.312 5.03571 206.332 4.98011 206.374 4.93841C206.43 4.88281 206.492 4.85501 206.562 4.85501H209.001C209.071 4.85501 209.126 4.88281 209.168 4.93841C209.224 4.98011 209.251 5.03571 209.251 5.10521V19.1998C209.251 19.2693 209.224 19.3319 209.168 19.3875C209.126 19.4292 209.071 19.45 209.001 19.45H206.562ZM221.213 5.10521C221.213 5.03571 221.234 4.98011 221.276 4.93841C221.331 4.88281 221.394 4.85501 221.463 4.85501H223.903C223.972 4.85501 224.028 4.88281 224.069 4.93841C224.125 4.98011 224.153 5.03571 224.153 5.10521V19.1998C224.153 19.2693 224.125 19.3319 224.069 19.3875C224.028 19.4292 223.972 19.45 223.903 19.45H221.547C221.408 19.45 221.31 19.3944 221.255 19.2832L215.855 10.3594C215.827 10.3177 215.799 10.3038 215.771 10.3177C215.743 10.3177 215.729 10.3455 215.729 10.4011L215.771 19.1998C215.771 19.2693 215.743 19.3319 215.688 19.3875C215.646 19.4292 215.59 19.45 215.521 19.45H213.081C213.012 19.45 212.949 19.4292 212.894 19.3875C212.852 19.3319 212.831 19.2693 212.831 19.1998V5.10521C212.831 5.03571 212.852 4.98011 212.894 4.93841C212.949 4.88281 213.012 4.85501 213.081 4.85501H215.438C215.577 4.85501 215.674 4.91061 215.729 5.02181L221.109 13.9039C221.137 13.9456 221.164 13.9665 221.192 13.9665C221.22 13.9526 221.234 13.9178 221.234 13.8622L221.213 5.10521ZM232.869 19.6168C231.799 19.6168 230.853 19.4014 230.033 18.9705C229.213 18.5396 228.574 17.9419 228.115 17.1774C227.67 16.399 227.448 15.5024 227.448 14.4877V9.81731C227.448 8.80261 227.67 7.90606 228.115 7.12766C228.574 6.34926 229.213 5.75156 230.033 5.33456C230.853 4.90366 231.799 4.68821 232.869 4.68821C233.925 4.68821 234.857 4.89671 235.663 5.31371C236.483 5.73071 237.115 6.30061 237.56 7.02341C238.019 7.73231 238.248 8.52461 238.248 9.40031V9.54626C238.248 9.61576 238.22 9.67831 238.165 9.73391C238.123 9.77561 238.068 9.79646 237.998 9.79646H235.559C235.489 9.79646 235.427 9.77561 235.371 9.73391C235.329 9.67831 235.308 9.61576 235.308 9.54626V9.48371C235.308 8.84431 235.086 8.30916 234.641 7.87826C234.196 7.43346 233.606 7.21106 232.869 7.21106C232.118 7.21106 231.514 7.44736 231.055 7.91996C230.61 8.37866 230.388 8.98331 230.388 9.73391V14.5711C230.388 15.3217 230.631 15.9333 231.118 16.4059C231.604 16.8646 232.223 17.094 232.973 17.094C233.696 17.094 234.273 16.9063 234.704 16.531C235.135 16.1418 235.35 15.6067 235.35 14.9256V13.9873C235.35 13.9178 235.315 13.8831 235.246 13.8831H232.911C232.841 13.8831 232.779 13.8622 232.723 13.8205C232.681 13.7649 232.66 13.7024 232.66 13.6329V11.7147C232.66 11.6452 232.681 11.5896 232.723 11.5479C232.779 11.4923 232.841 11.4645 232.911 11.4645H237.998C238.068 11.4645 238.123 11.4923 238.165 11.5479C238.22 11.5896 238.248 11.6452 238.248 11.7147V14.4669C238.248 15.5233 238.026 16.4407 237.581 17.2191C237.136 17.9975 236.504 18.5952 235.684 19.0122C234.878 19.4153 233.939 19.6168 232.869 19.6168Z" fill="white"/>
<path d="M21.217 0V14.8236L28.2893 7.41181L21.217 0Z" fill="#C41E3D"/>
<path d="M0 7.41247V22.2361L7.07234 14.8243L0 7.41247Z" fill="#C41E3D"/>
<path d="M7.07234 0V14.8236L14.1447 7.41181L7.07234 0Z" fill="#C41E3D"/>
<path d="M28.2893 7.41247V22.2361L35.3617 14.8243L28.2893 7.41247Z" fill="#C41E3D"/>
<path d="M14.1447 7.41247V22.2361L21.217 14.8243L14.1447 7.41247Z" fill="#C41E3D"/>
</svg>
