<svg width="241" height="23" viewBox="0 0 241 23" fill="none" xmlns="http://www.w3.org/2000/svg">
<path d="M58.8182 5.02199C58.8877 4.91079 58.985 4.85519 59.1101 4.85519H61.5495C61.619 4.85519 61.6746 4.88299 61.7163 4.93859C61.7719 4.98029 61.7997 5.03589 61.7997 5.10539V19.2C61.7997 19.2695 61.7719 19.332 61.7163 19.3876C61.6746 19.4293 61.619 19.4502 61.5495 19.4502H59.1101C59.0406 19.4502 58.978 19.4293 58.9224 19.3876C58.8807 19.332 58.8599 19.2695 58.8599 19.2V10.0051C58.8599 9.94954 58.846 9.92174 58.8182 9.92174C58.7904 9.92174 58.7626 9.94259 58.7348 9.98429L56.5247 13.4454C56.4552 13.5566 56.3579 13.6122 56.2328 13.6122H55.0026C54.8775 13.6122 54.7802 13.5566 54.7107 13.4454L52.5006 9.98429C52.4728 9.94259 52.445 9.92869 52.4172 9.94259C52.3894 9.94259 52.3755 9.97039 52.3755 10.026V19.2C52.3755 19.2695 52.3477 19.332 52.2921 19.3876C52.2504 19.4293 52.1948 19.4502 52.1253 19.4502H49.6859C49.6164 19.4502 49.5538 19.4293 49.4982 19.3876C49.4565 19.332 49.4357 19.2695 49.4357 19.2V5.10539C49.4357 5.03589 49.4565 4.98029 49.4982 4.93859C49.5538 4.88299 49.6164 4.85519 49.6859 4.85519H52.1253C52.2504 4.85519 52.3477 4.91079 52.4172 5.02199L55.5447 9.88004C55.5864 9.96344 55.6281 9.96344 55.6698 9.88004L58.8182 5.02199ZM65.6329 19.4502C65.5634 19.4502 65.5008 19.4293 65.4452 19.3876C65.4035 19.332 65.3827 19.2695 65.3827 19.2V5.10539C65.3827 5.03589 65.4035 4.98029 65.4452 4.93859C65.5008 4.88299 65.5634 4.85519 65.6329 4.85519H68.0723C68.1418 4.85519 68.1974 4.88299 68.2391 4.93859C68.2947 4.98029 68.3225 5.03589 68.3225 5.10539V19.2C68.3225 19.2695 68.2947 19.332 68.2391 19.3876C68.1974 19.4293 68.1418 19.4502 68.0723 19.4502H65.6329ZM76.9064 19.617C75.7944 19.617 74.8214 19.4432 73.9874 19.0957C73.1534 18.7343 72.507 18.227 72.0483 17.5737C71.6035 16.9065 71.3811 16.135 71.3811 15.2593V14.8006C71.3811 14.7311 71.402 14.6755 71.4437 14.6338C71.4993 14.5782 71.5618 14.5504 71.6313 14.5504H74.0082C74.0777 14.5504 74.1333 14.5782 74.175 14.6338C74.2306 14.6755 74.2584 14.7311 74.2584 14.8006V15.1134C74.2584 15.6694 74.5156 16.142 75.0299 16.5312C75.5442 16.9065 76.2392 17.0941 77.1149 17.0941C77.8516 17.0941 78.4006 16.9412 78.762 16.6354C79.1234 16.3157 79.3041 15.9265 79.3041 15.4678C79.3041 15.1342 79.1929 14.8562 78.9705 14.6338C78.7481 14.3975 78.4423 14.196 78.0531 14.0292C77.6778 13.8485 77.0732 13.6052 76.2392 13.2994C75.3079 12.9797 74.5156 12.6531 73.8623 12.3195C73.2229 11.9859 72.6808 11.5341 72.236 10.9642C71.8051 10.3804 71.5896 9.66459 71.5896 8.81669C71.5896 7.98269 71.8051 7.25294 72.236 6.62744C72.6669 6.00194 73.2646 5.52239 74.0291 5.18879C74.7936 4.85519 75.6762 4.68839 76.677 4.68839C77.7334 4.68839 78.6717 4.87604 79.4918 5.25134C80.3258 5.62664 80.9721 6.15484 81.4308 6.83594C81.9034 7.50314 82.1397 8.28154 82.1397 9.17114V9.48389C82.1397 9.55339 82.1119 9.61594 82.0563 9.67154C82.0146 9.71324 81.959 9.73409 81.8895 9.73409H79.4918C79.4223 9.73409 79.3597 9.71324 79.3041 9.67154C79.2624 9.61594 79.2416 9.55339 79.2416 9.48389V9.31709C79.2416 8.73329 78.9983 8.23984 78.5118 7.83674C78.0392 7.41974 77.3859 7.21124 76.5519 7.21124C75.8986 7.21124 75.3843 7.35024 75.009 7.62824C74.6476 7.90624 74.4669 8.28849 74.4669 8.77499C74.4669 9.12249 74.5712 9.41439 74.7797 9.65069C75.0021 9.88699 75.3218 10.1024 75.7388 10.297C76.1697 10.4777 76.8299 10.7279 77.7195 11.0476C78.7064 11.409 79.4779 11.7287 80.0339 12.0067C80.6038 12.2847 81.1111 12.7017 81.5559 13.2577C82.0146 13.7998 82.244 14.5087 82.244 15.3844C82.244 16.691 81.7644 17.7266 80.8053 18.4911C79.8462 19.2417 78.5466 19.617 76.9064 19.617ZM90.3489 19.617C89.2369 19.617 88.2639 19.4432 87.4299 19.0957C86.5959 18.7343 85.9496 18.227 85.4909 17.5737C85.0461 16.9065 84.8237 16.135 84.8237 15.2593V14.8006C84.8237 14.7311 84.8445 14.6755 84.8862 14.6338C84.9418 14.5782 85.0044 14.5504 85.0739 14.5504H87.4508C87.5203 14.5504 87.5759 14.5782 87.6176 14.6338C87.6732 14.6755 87.701 14.7311 87.701 14.8006V15.1134C87.701 15.6694 87.9581 16.142 88.4724 16.5312C88.9867 16.9065 89.6817 17.0941 90.5574 17.0941C91.2941 17.0941 91.8432 16.9412 92.2046 16.6354C92.566 16.3157 92.7467 15.9265 92.7467 15.4678C92.7467 15.1342 92.6355 14.8562 92.4131 14.6338C92.1907 14.3975 91.8849 14.196 91.4957 14.0292C91.1204 13.8485 90.5157 13.6052 89.6817 13.2994C88.7504 12.9797 87.9581 12.6531 87.3048 12.3195C86.6654 11.9859 86.1233 11.5341 85.6785 10.9642C85.2476 10.3804 85.0322 9.66459 85.0322 8.81669C85.0322 7.98269 85.2476 7.25294 85.6785 6.62744C86.1094 6.00194 86.7071 5.52239 87.4716 5.18879C88.2361 4.85519 89.1188 4.68839 90.1196 4.68839C91.176 4.68839 92.1142 4.87604 92.9343 5.25134C93.7683 5.62664 94.4147 6.15484 94.8734 6.83594C95.346 7.50314 95.5823 8.28154 95.5823 9.17114V9.48389C95.5823 9.55339 95.5545 9.61594 95.4989 9.67154C95.4572 9.71324 95.4016 9.73409 95.3321 9.73409H92.9343C92.8648 9.73409 92.8023 9.71324 92.7467 9.67154C92.705 9.61594 92.6841 9.55339 92.6841 9.48389V9.31709C92.6841 8.73329 92.4409 8.23984 91.9544 7.83674C91.4818 7.41974 90.8285 7.21124 89.9945 7.21124C89.3412 7.21124 88.8269 7.35024 88.4516 7.62824C88.0902 7.90624 87.9095 8.28849 87.9095 8.77499C87.9095 9.12249 88.0137 9.41439 88.2222 9.65069C88.4446 9.88699 88.7643 10.1024 89.1813 10.297C89.6122 10.4777 90.2725 10.7279 91.1621 11.0476C92.149 11.409 92.9204 11.7287 93.4764 12.0067C94.0463 12.2847 94.5537 12.7017 94.9985 13.2577C95.4572 13.7998 95.6865 14.5087 95.6865 15.3844C95.6865 16.691 95.207 17.7266 94.2479 18.4911C93.2888 19.2417 91.9891 19.617 90.3489 19.617ZM108.9 7.12784C108.9 7.19734 108.872 7.25989 108.816 7.31549C108.775 7.35719 108.719 7.37804 108.65 7.37804H101.832C101.762 7.37804 101.727 7.41279 101.727 7.4823V10.714C101.727 10.7835 101.762 10.8183 101.832 10.8183H106.314C106.384 10.8183 106.439 10.8461 106.481 10.9017C106.537 10.9434 106.565 10.999 106.565 11.0685V13.0909C106.565 13.1604 106.537 13.223 106.481 13.2786C106.439 13.3203 106.384 13.3411 106.314 13.3411H101.832C101.762 13.3411 101.727 13.3759 101.727 13.4454V19.2C101.727 19.2695 101.7 19.332 101.644 19.3876C101.602 19.4293 101.547 19.4502 101.477 19.4502H99.0377C98.9682 19.4502 98.9056 19.4293 98.85 19.3876C98.8083 19.332 98.7875 19.2695 98.7875 19.2V5.10539C98.7875 5.03589 98.8083 4.98029 98.85 4.93859C98.9056 4.88299 98.9682 4.85519 99.0377 4.85519H108.65C108.719 4.85519 108.775 4.88299 108.816 4.93859C108.872 4.98029 108.9 5.03589 108.9 5.10539V7.12784ZM111.747 19.4502C111.678 19.4502 111.615 19.4293 111.56 19.3876C111.518 19.332 111.497 19.2695 111.497 19.2V5.10539C111.497 5.03589 111.518 4.98029 111.56 4.93859C111.615 4.88299 111.678 4.85519 111.747 4.85519H114.187C114.256 4.85519 114.312 4.88299 114.353 4.93859C114.409 4.98029 114.437 5.03589 114.437 5.10539V19.2C114.437 19.2695 114.409 19.332 114.353 19.3876C114.312 19.4293 114.256 19.4502 114.187 19.4502H111.747ZM128.087 4.85519C128.157 4.85519 128.212 4.88299 128.254 4.93859C128.31 4.98029 128.337 5.03589 128.337 5.10539V7.14869C128.337 7.21819 128.31 7.28074 128.254 7.33634C128.212 7.37804 128.157 7.39889 128.087 7.39889H124.355C124.286 7.39889 124.251 7.43364 124.251 7.50314V19.2C124.251 19.2695 124.223 19.332 124.167 19.3876C124.126 19.4293 124.07 19.4502 124.001 19.4502H121.561C121.492 19.4502 121.429 19.4293 121.374 19.3876C121.332 19.332 121.311 19.2695 121.311 19.2V7.50314C121.311 7.43364 121.276 7.39889 121.207 7.39889H117.579C117.509 7.39889 117.447 7.37804 117.391 7.33634C117.349 7.28074 117.329 7.21819 117.329 7.14869V5.10539C117.329 5.03589 117.349 4.98029 117.391 4.93859C117.447 4.88299 117.509 4.85519 117.579 4.85519H128.087ZM141.601 19.617C140.517 19.617 139.565 19.4085 138.745 18.9915C137.925 18.5606 137.292 17.9629 136.848 17.1984C136.403 16.4339 136.18 15.5512 136.18 14.5504V9.73409C136.18 8.73329 136.403 7.85064 136.848 7.08614C137.292 6.32164 137.925 5.73089 138.745 5.31389C139.565 4.89689 140.517 4.68839 141.601 4.68839C142.672 4.68839 143.61 4.88994 144.416 5.29304C145.236 5.68224 145.869 6.24519 146.313 6.98189C146.772 7.70469 147.001 8.54564 147.001 9.50474C147.001 9.62984 146.918 9.70629 146.751 9.73409L144.312 9.88004H144.27C144.131 9.88004 144.062 9.80359 144.062 9.65069C144.062 8.91399 143.832 8.32325 143.374 7.87844C142.929 7.43364 142.338 7.21124 141.601 7.21124C140.851 7.21124 140.246 7.43364 139.787 7.87844C139.343 8.32325 139.12 8.91399 139.12 9.65069V14.6755C139.12 15.3983 139.343 15.9821 139.787 16.4269C140.246 16.8717 140.851 17.0941 141.601 17.0941C142.338 17.0941 142.929 16.8717 143.374 16.4269C143.832 15.9821 144.062 15.3983 144.062 14.6755C144.062 14.5226 144.145 14.4462 144.312 14.4462L146.751 14.5504C146.821 14.5504 146.876 14.5713 146.918 14.613C146.974 14.6547 147.001 14.7033 147.001 14.7589C147.001 15.718 146.772 16.5659 146.313 17.3026C145.869 18.0393 145.236 18.6092 144.416 19.0123C143.61 19.4154 142.672 19.617 141.601 19.617ZM155.391 19.6795C154.307 19.6795 153.348 19.4571 152.514 19.0123C151.694 18.5675 151.055 17.949 150.596 17.1567C150.137 16.3505 149.908 15.4261 149.908 14.3836V9.92174C149.908 8.89314 150.137 7.98269 150.596 7.1904C151.055 6.39809 151.694 5.78649 152.514 5.35559C153.348 4.91079 154.307 4.68839 155.391 4.68839C156.49 4.68839 157.449 4.91079 158.269 5.35559C159.103 5.78649 159.749 6.39809 160.208 7.1904C160.667 7.98269 160.896 8.89314 160.896 9.92174V14.3836C160.896 15.4261 160.667 16.3505 160.208 17.1567C159.749 17.9629 159.103 18.5884 158.269 19.0332C157.449 19.4641 156.49 19.6795 155.391 19.6795ZM155.391 17.1567C156.156 17.1567 156.775 16.9134 157.247 16.4269C157.72 15.9404 157.956 15.2941 157.956 14.4879V9.90089C157.956 9.09469 157.72 8.44834 157.247 7.96185C156.788 7.46144 156.17 7.21124 155.391 7.21124C154.627 7.21124 154.008 7.46144 153.536 7.96185C153.077 8.44834 152.848 9.09469 152.848 9.90089V14.4879C152.848 15.2941 153.077 15.9404 153.536 16.4269C154.008 16.9134 154.627 17.1567 155.391 17.1567ZM173.145 19.4502C173.006 19.4502 172.915 19.3807 172.874 19.2417L172.248 17.1984C172.22 17.1428 172.185 17.115 172.144 17.115H167.015C166.973 17.115 166.938 17.1428 166.91 17.1984L166.306 19.2417C166.264 19.3807 166.174 19.4502 166.035 19.4502H163.387C163.303 19.4502 163.241 19.4293 163.199 19.3876C163.157 19.332 163.15 19.2556 163.178 19.1583L167.682 5.06369C167.724 4.92469 167.814 4.85519 167.953 4.85519H171.226C171.365 4.85519 171.456 4.92469 171.497 5.06369L176.001 19.1583C176.015 19.1861 176.022 19.2208 176.022 19.2625C176.022 19.3876 175.945 19.4502 175.793 19.4502H173.145ZM167.661 14.7172C167.647 14.8006 167.675 14.8423 167.744 14.8423H171.414C171.497 14.8423 171.525 14.8006 171.497 14.7172L169.621 8.52479C169.607 8.46919 169.586 8.44835 169.558 8.46224C169.531 8.46224 169.51 8.48309 169.496 8.52479L167.661 14.7172ZM183.578 19.617C182.494 19.617 181.542 19.4085 180.722 18.9915C179.902 18.5606 179.269 17.9629 178.824 17.1984C178.38 16.4339 178.157 15.5512 178.157 14.5504V9.73409C178.157 8.73329 178.38 7.85064 178.824 7.08614C179.269 6.32164 179.902 5.73089 180.722 5.31389C181.542 4.89689 182.494 4.68839 183.578 4.68839C184.649 4.68839 185.587 4.88994 186.393 5.29304C187.213 5.68224 187.846 6.24519 188.29 6.98189C188.749 7.70469 188.978 8.54564 188.978 9.50474C188.978 9.62984 188.895 9.70629 188.728 9.73409L186.289 9.88004H186.247C186.108 9.88004 186.039 9.80359 186.039 9.65069C186.039 8.91399 185.809 8.32325 185.35 7.87844C184.906 7.43364 184.315 7.21124 183.578 7.21124C182.828 7.21124 182.223 7.43364 181.764 7.87844C181.319 8.32325 181.097 8.91399 181.097 9.65069V14.6755C181.097 15.3983 181.319 15.9821 181.764 16.4269C182.223 16.8717 182.828 17.0941 183.578 17.0941C184.315 17.0941 184.906 16.8717 185.35 16.4269C185.809 15.9821 186.039 15.3983 186.039 14.6755C186.039 14.5226 186.122 14.4462 186.289 14.4462L188.728 14.5504C188.798 14.5504 188.853 14.5713 188.895 14.613C188.951 14.6547 188.978 14.7033 188.978 14.7589C188.978 15.718 188.749 16.5659 188.29 17.3026C187.846 18.0393 187.213 18.6092 186.393 19.0123C185.587 19.4154 184.649 19.617 183.578 19.617ZM199.933 5.10539C199.933 5.03589 199.954 4.98029 199.995 4.93859C200.051 4.88299 200.114 4.85519 200.183 4.85519H202.623C202.692 4.85519 202.748 4.88299 202.789 4.93859C202.845 4.98029 202.873 5.03589 202.873 5.10539V19.2C202.873 19.2695 202.845 19.332 202.789 19.3876C202.748 19.4293 202.692 19.4502 202.623 19.4502H200.183C200.114 19.4502 200.051 19.4293 199.995 19.3876C199.954 19.332 199.933 19.2695 199.933 19.2V13.4454C199.933 13.3759 199.898 13.3411 199.829 13.3411H195.221C195.151 13.3411 195.117 13.3759 195.117 13.4454V19.2C195.117 19.2695 195.089 19.332 195.033 19.3876C194.991 19.4293 194.936 19.4502 194.866 19.4502H192.427C192.357 19.4502 192.295 19.4293 192.239 19.3876C192.198 19.332 192.177 19.2695 192.177 19.2V5.10539C192.177 5.03589 192.198 4.98029 192.239 4.93859C192.295 4.88299 192.357 4.85519 192.427 4.85519H194.866C194.936 4.85519 194.991 4.88299 195.033 4.93859C195.089 4.98029 195.117 5.03589 195.117 5.10539V10.714C195.117 10.7835 195.151 10.8183 195.221 10.8183H199.829C199.898 10.8183 199.933 10.7835 199.933 10.714V5.10539ZM206.562 19.4502C206.492 19.4502 206.43 19.4293 206.374 19.3876C206.332 19.332 206.312 19.2695 206.312 19.2V5.10539C206.312 5.03589 206.332 4.98029 206.374 4.93859C206.43 4.88299 206.492 4.85519 206.562 4.85519H209.001C209.071 4.85519 209.126 4.88299 209.168 4.93859C209.224 4.98029 209.251 5.03589 209.251 5.10539V19.2C209.251 19.2695 209.224 19.332 209.168 19.3876C209.126 19.4293 209.071 19.4502 209.001 19.4502H206.562ZM221.213 5.10539C221.213 5.03589 221.234 4.98029 221.276 4.93859C221.331 4.88299 221.394 4.85519 221.463 4.85519H223.903C223.972 4.85519 224.028 4.88299 224.069 4.93859C224.125 4.98029 224.153 5.03589 224.153 5.10539V19.2C224.153 19.2695 224.125 19.332 224.069 19.3876C224.028 19.4293 223.972 19.4502 223.903 19.4502H221.547C221.408 19.4502 221.31 19.3946 221.255 19.2834L215.855 10.3596C215.827 10.3179 215.799 10.304 215.771 10.3179C215.743 10.3179 215.729 10.3457 215.729 10.4013L215.771 19.2C215.771 19.2695 215.743 19.332 215.688 19.3876C215.646 19.4293 215.59 19.4502 215.521 19.4502H213.081C213.012 19.4502 212.949 19.4293 212.894 19.3876C212.852 19.332 212.831 19.2695 212.831 19.2V5.10539C212.831 5.03589 212.852 4.98029 212.894 4.93859C212.949 4.88299 213.012 4.85519 213.081 4.85519H215.438C215.577 4.85519 215.674 4.91079 215.729 5.02199L221.109 13.9041C221.137 13.9458 221.164 13.9666 221.192 13.9666C221.22 13.9527 221.234 13.918 221.234 13.8624L221.213 5.10539ZM232.869 19.617C231.799 19.617 230.853 19.4015 230.033 18.9706C229.213 18.5397 228.574 17.942 228.115 17.1775C227.67 16.3991 227.448 15.5026 227.448 14.4879V9.81749C227.448 8.80279 227.67 7.90624 228.115 7.12784C228.574 6.34944 229.213 5.75174 230.033 5.33474C230.853 4.90384 231.799 4.68839 232.869 4.68839C233.925 4.68839 234.857 4.89689 235.663 5.31389C236.483 5.73089 237.115 6.30079 237.56 7.02359C238.019 7.73249 238.248 8.52479 238.248 9.40049V9.54644C238.248 9.61594 238.22 9.67849 238.165 9.73409C238.123 9.77579 238.068 9.79664 237.998 9.79664H235.559C235.489 9.79664 235.427 9.77579 235.371 9.73409C235.329 9.67849 235.308 9.61594 235.308 9.54644V9.48389C235.308 8.84449 235.086 8.30934 234.641 7.87844C234.196 7.43364 233.606 7.21124 232.869 7.21124C232.118 7.21124 231.514 7.44754 231.055 7.92014C230.61 8.37884 230.388 8.98349 230.388 9.73409V14.5713C230.388 15.3219 230.631 15.9335 231.118 16.4061C231.604 16.8648 232.223 17.0941 232.973 17.0941C233.696 17.0941 234.273 16.9065 234.704 16.5312C235.135 16.142 235.35 15.6068 235.35 14.9257V13.9875C235.35 13.918 235.315 13.8832 235.246 13.8832H232.911C232.841 13.8832 232.779 13.8624 232.723 13.8207C232.681 13.7651 232.66 13.7025 232.66 13.633V11.7148C232.66 11.6453 232.681 11.5897 232.723 11.548C232.779 11.4924 232.841 11.4646 232.911 11.4646H237.998C238.068 11.4646 238.123 11.4924 238.165 11.548C238.22 11.5897 238.248 11.6453 238.248 11.7148V14.467C238.248 15.5234 238.026 16.4408 237.581 17.2192C237.136 17.9976 236.504 18.5953 235.684 19.0123C234.877 19.4154 233.939 19.617 232.869 19.617Z" fill="#C41E3D"/>
<path d="M21.217 0V14.8236L28.2893 7.41181L21.217 0Z" fill="#C41E3D"/>
<path d="M0 7.41247V22.2361L7.07234 14.8243L0 7.41247Z" fill="#C41E3D"/>
<path d="M7.07234 0V14.8236L14.1447 7.41181L7.07234 0Z" fill="#C41E3D"/>
<path d="M28.2893 7.41247V22.2361L35.3617 14.8243L28.2893 7.41247Z" fill="#C41E3D"/>
<path d="M14.1447 7.41247V22.2361L21.217 14.8243L14.1447 7.41247Z" fill="#C41E3D"/>
</svg>
