<svg width="48" height="53" viewBox="0 0 48 53" fill="none" xmlns="http://www.w3.org/2000/svg">
<path d="M23.9352 44.6787C22.2969 44.6787 20.6538 44.6255 19.0108 44.6787C16.8699 44.7705 16.1112 44.1954 16.1982 41.8951C16.2817 39.6244 15.4734 37.4112 13.9462 35.7287C13.463 35.173 12.9797 34.6462 12.5254 34.0663C11.2126 32.322 10.3149 30.3013 9.90047 28.1579C9.48606 26.0145 9.5659 23.8048 10.1339 21.6968C10.7019 19.5889 11.7431 17.6382 13.1784 15.9932C14.6136 14.3482 16.4051 13.0522 18.4166 12.2037C20.428 11.3551 22.6065 10.9764 24.7863 11.0965C26.9661 11.2165 29.0899 11.832 30.996 12.8962C32.9022 13.9604 34.5406 15.4453 35.7866 17.238C37.0326 19.0306 37.8534 21.0837 38.1865 23.2412C38.5584 25.3175 38.4416 27.4519 37.8452 29.4752C37.2487 31.4985 36.1892 33.3549 34.7505 34.8975C32.6967 37.1543 31.5852 39.6528 31.764 42.7166C31.8241 43.1609 31.7089 43.6112 31.4428 43.972C31.1767 44.3328 30.7806 44.5759 30.3384 44.6497C30.1402 44.6802 29.9395 44.6915 29.7391 44.6835L23.9352 44.6787ZM22.152 16.7511C22.0288 16.7554 21.9061 16.7683 21.7847 16.7897C18.7643 17.4131 15.9034 20.3224 15.3042 23.3814C15.2198 23.7776 15.2932 24.1911 15.5089 24.5341C15.7246 24.877 16.0655 25.1223 16.4592 25.2178C17.3435 25.445 18.1119 24.9472 18.3922 23.9323C18.6152 23.121 19.0121 22.3679 19.5554 21.7253C20.0987 21.0828 20.7753 20.5661 21.5382 20.2113C21.9297 20.0228 22.3646 19.9261 22.7657 19.7618C23.1134 19.6312 23.403 19.3805 23.582 19.055C23.761 18.7296 23.8177 18.3508 23.7418 17.9872C23.666 17.6236 23.4625 17.2991 23.1683 17.0724C22.874 16.8457 22.5084 16.7318 22.1375 16.7511H22.152Z" fill="#020D43"/>
<path d="M24.0126 52.1402C22.5628 52.1402 21.113 52.1402 19.6922 52.1402C19.3295 52.143 18.9772 52.0191 18.6962 51.7897C18.4151 51.5604 18.2231 51.2401 18.1531 50.8842C18.0832 50.5282 18.1399 50.159 18.3132 49.8404C18.4866 49.5218 18.7658 49.2738 19.1026 49.1392C19.3238 49.0577 19.558 49.0168 19.7937 49.0184C22.6014 49.0184 25.4092 49.0184 28.2121 49.0184C28.5994 48.9912 28.9826 49.1117 29.2847 49.3555C29.5868 49.5993 29.7855 49.9485 29.8407 50.3328C29.9022 50.677 29.843 51.0318 29.673 51.3374C29.5031 51.6429 29.2328 51.8804 28.908 52.0097C28.6344 52.1035 28.3466 52.1493 28.0574 52.145C26.7091 52.145 25.3608 52.145 24.0126 52.145V52.1402Z" fill="#020D43"/>
<path d="M7.77498 7.77207C7.75775 7.45587 7.83201 7.14143 7.98885 6.86632C8.14569 6.5912 8.37847 6.36709 8.65935 6.22083C8.91169 6.06737 9.2067 5.99912 9.50081 6.0261C9.79492 6.05307 10.0726 6.17386 10.2928 6.37067C11.1675 7.16805 12.0132 7.99922 12.8057 8.87392C13.0329 9.17353 13.1436 9.54547 13.1171 9.92055C13.0906 10.2956 12.9288 10.6483 12.6617 10.913C12.3946 11.1777 12.0405 11.3364 11.6652 11.3596C11.2899 11.3828 10.919 11.2688 10.6214 11.0389C9.74185 10.2512 8.92031 9.39587 8.11327 8.53566C7.95379 8.30452 7.83904 8.04549 7.77498 7.77207Z" fill="#020D43"/>
<path d="M38.433 6.02753C39.269 6.08069 39.7571 6.35615 40.0326 6.93123C40.1781 7.19841 40.2358 7.5046 40.1977 7.80643C40.1595 8.10825 40.0274 8.39046 39.82 8.61302C39.0564 9.4394 38.259 10.2464 37.4037 11.0293C37.0995 11.2808 36.7113 11.4076 36.3174 11.3844C35.9234 11.3612 35.5528 11.1896 35.2803 10.9042C35.0077 10.6188 34.8534 10.2407 34.8484 9.84607C34.8433 9.45144 34.988 9.06959 35.2532 8.77731C35.9877 7.99443 36.7416 7.23085 37.5341 6.50596C37.8075 6.30134 38.1106 6.13998 38.433 6.02753Z" fill="#020D43"/>
<path d="M25.559 3.09903C25.559 3.63062 25.559 4.15739 25.559 4.68898C25.5502 5.09503 25.384 5.48175 25.0955 5.76758C24.807 6.05341 24.4187 6.21595 24.0125 6.22087C23.6058 6.22864 23.2125 6.0748 22.919 5.79306C22.6255 5.51133 22.4557 5.12469 22.4468 4.71794C22.4146 3.6451 22.4146 2.56902 22.4468 1.48974C22.4479 1.28842 22.4896 1.08945 22.5693 0.9046C22.6491 0.719752 22.7653 0.55284 22.911 0.413907C23.0567 0.274974 23.2289 0.166831 23.4173 0.0959417C23.6058 0.0250523 23.8066 -0.00712666 24.0077 0.00131902C24.2091 -0.00187616 24.409 0.0348087 24.5962 0.109215C24.7833 0.183621 24.9539 0.294262 25.098 0.434849C25.2422 0.575436 25.3572 0.743184 25.4363 0.928373C25.5154 1.11356 25.5571 1.31256 25.559 1.51392C25.5783 2.04068 25.559 2.57228 25.559 3.09903Z" fill="#020D43"/>
<path d="M3.1067 23.8018C2.57511 23.8018 2.04837 23.8018 1.51678 23.8018C1.12008 23.7982 0.740354 23.6403 0.458032 23.3616C0.175709 23.0829 0.0129502 22.7052 0.00417902 22.3086C-0.0109284 22.1067 0.0150193 21.9039 0.0804848 21.7123C0.14595 21.5207 0.249561 21.3445 0.385059 21.1941C0.520556 21.0437 0.685137 20.9222 0.86885 20.8372C1.05256 20.7522 1.25161 20.7053 1.45396 20.6993C2.56546 20.6558 3.68177 20.6558 4.79327 20.6993C5.19195 20.7157 5.56803 20.8889 5.83958 21.1813C6.11112 21.4736 6.25613 21.8615 6.24305 22.2603C6.2418 22.6671 6.08031 23.057 5.79356 23.3455C5.50682 23.6341 5.11791 23.798 4.71113 23.8018C4.14571 23.8212 3.61412 23.8018 3.1067 23.8018Z" fill="#020D43"/>
<path d="M44.8652 23.8019C44.3384 23.8019 43.8069 23.8019 43.2801 23.8019C42.8834 23.7907 42.5065 23.6265 42.2281 23.3436C41.9498 23.0608 41.7917 22.6812 41.7868 22.2844C41.7757 22.0876 41.8036 21.8906 41.8688 21.7046C41.934 21.5186 42.0353 21.3473 42.1668 21.2005C42.2984 21.0537 42.4576 20.9343 42.6354 20.8491C42.8131 20.7639 43.0059 20.7147 43.2028 20.7042C44.3336 20.6558 45.4612 20.6558 46.5856 20.7042C46.7829 20.714 46.9762 20.763 47.1544 20.8483C47.3325 20.9336 47.492 21.0535 47.6233 21.201C47.7546 21.3486 47.8553 21.5208 47.9194 21.7076C47.9835 21.8944 48.0098 22.0922 47.9967 22.2893C47.9918 22.6864 47.8328 23.0661 47.5534 23.3483C47.2739 23.6305 46.8957 23.7931 46.4986 23.8019C45.9622 23.8212 45.4161 23.8019 44.8652 23.8019Z" fill="#020D43"/>
</svg>
