<svg width="48" height="48" viewBox="0 0 48 48" fill="none" xmlns="http://www.w3.org/2000/svg">
<path d="M48 24.4312C47.8631 24.7069 47.7073 24.9728 47.5336 25.227C47.3511 25.4628 47.115 25.6518 46.8449 25.7783C46.5748 25.9048 46.2785 25.9652 45.9805 25.9544H43.9053C43.4266 30.5428 41.3847 34.8271 38.1222 38.0889C34.8597 41.3506 30.5748 43.3915 25.9863 43.8691V44.404C25.9863 44.9516 25.9863 45.4993 25.9863 46.047C25.959 46.557 25.7362 47.037 25.3642 47.387C24.9922 47.737 24.4996 47.9302 23.9888 47.9263C23.478 47.9224 22.9884 47.7219 22.6217 47.3663C22.255 47.0107 22.0395 46.5274 22.02 46.017C22.02 45.3196 22.02 44.6179 22.02 43.9718C11.7982 42.1662 5.83378 36.2018 3.98968 25.9501C3.36072 25.9501 2.62906 25.9501 1.90169 25.9501C1.48414 25.9379 1.08174 25.7909 0.754724 25.531C0.427705 25.271 0.193645 24.9122 0.087541 24.5082C-0.0378887 24.1099 -0.0283029 23.6814 0.114831 23.2891C0.257965 22.8968 0.526625 22.5628 0.879083 22.3389C1.26006 22.1359 1.68041 22.0177 2.11134 21.9923C2.7617 21.9367 3.41634 21.9923 3.98968 21.9923C5.81667 11.7621 11.7811 5.79755 22.0157 3.97484C22.0157 3.54698 22.0542 3.05924 22.0157 2.5672C21.9087 1.32639 22.3665 0.44926 23.5475 0H24.446C25.6269 0.462096 26.089 1.33922 25.9777 2.5672C25.9349 3.05924 25.9777 3.55558 25.9777 4.07758C30.5646 4.55252 34.8488 6.58943 38.1127 9.84704C41.3765 13.1046 43.4216 17.385 43.9053 21.9709H45.9805C46.279 21.9599 46.5758 22.0206 46.846 22.1479C47.1162 22.2752 47.352 22.4654 47.5336 22.7026C47.7072 22.9553 47.8631 23.2198 48 23.4942V24.4312ZM39.8492 21.941C38.9164 14.2394 32.5326 8.78411 26.0248 8.14231C25.5969 9.42591 24.9851 9.98641 24.0224 9.96074C22.85 9.92651 22.2296 9.22052 22.0028 8.13374C14.4981 8.95097 8.76039 15.3861 8.19133 21.9624C9.35941 22.3004 9.94987 22.8694 9.98837 23.8321C10.0354 25.0772 9.28666 25.719 8.16138 25.9715C9.08557 33.6731 15.4822 39.1326 21.9815 39.7744C22.4093 38.5208 23.0212 37.9303 23.9881 37.9603C25.1605 37.9902 25.7766 38.7005 26.0034 39.7873C33.5766 38.9316 39.2673 32.4793 39.8149 25.9586C38.5998 25.6035 37.9965 24.936 38.0008 23.9477C38.005 22.9593 38.5656 22.3346 39.8492 21.941Z" fill="#020D43"/>
<path d="M24.2876 33.9512C18.8794 34.1951 14.2414 29.8351 14.0189 24.2686C13.775 18.8218 18.1306 14.1923 23.7229 13.9527C29.1482 13.7174 33.7563 18.0517 33.9917 23.6311C34.2484 29.0821 29.8927 33.7073 24.2876 33.9512Z" fill="#020D43"/>
</svg>
