<svg width="103" height="122" viewBox="0 0 103 122" fill="none" xmlns="http://www.w3.org/2000/svg">
<g clip-path="url(#clip0_676_3505)">
<path d="M19.0625 106.75H11.4375C8.40409 106.75 5.49491 105.545 3.34997 103.4C1.20502 101.255 0 98.3459 0 95.3125L0 19.0625C0 16.0291 1.20502 13.1199 3.34997 10.975C5.49491 8.83002 8.40409 7.625 11.4375 7.625H19.0625C20.0736 7.625 21.0434 8.02667 21.7583 8.74166C22.4733 9.45664 22.875 10.4264 22.875 11.4375C22.875 12.4486 22.4733 13.4184 21.7583 14.1333C21.0434 14.8483 20.0736 15.25 19.0625 15.25H11.4375C10.4264 15.25 9.45664 15.6517 8.74166 16.3667C8.02667 17.0816 7.625 18.0514 7.625 19.0625V95.3125C7.625 96.3236 8.02667 97.2934 8.74166 98.0083C9.45664 98.7233 10.4264 99.125 11.4375 99.125H19.0625C20.0736 99.125 21.0434 99.5267 21.7583 100.242C22.4733 100.957 22.875 101.926 22.875 102.938C22.875 103.949 22.4733 104.918 21.7583 105.633C21.0434 106.348 20.0736 106.75 19.0625 106.75ZM110.562 106.75H49.5625C48.5514 106.75 47.5816 106.348 46.8667 105.633C46.1517 104.918 45.75 103.949 45.75 102.938C45.75 101.926 46.1517 100.957 46.8667 100.242C47.5816 99.5267 48.5514 99.125 49.5625 99.125H110.562C111.574 99.125 112.543 98.7233 113.258 98.0083C113.973 97.2934 114.375 96.3236 114.375 95.3125V19.0625C114.375 18.0514 113.973 17.0816 113.258 16.3667C112.543 15.6517 111.574 15.25 110.562 15.25H49.5625C48.5514 15.25 47.5816 14.8483 46.8667 14.1333C46.1517 13.4184 45.75 12.4486 45.75 11.4375C45.75 10.4264 46.1517 9.45664 46.8667 8.74166C47.5816 8.02667 48.5514 7.625 49.5625 7.625H110.562C113.596 7.625 116.505 8.83002 118.65 10.975C120.795 13.1199 122 16.0291 122 19.0625V95.3125C122 98.3459 120.795 101.255 118.65 103.4C116.505 105.545 113.596 106.75 110.562 106.75Z" fill="#343434"/>
<path d="M41.9375 91.5H26.6875C23.6541 91.5 20.7449 90.295 18.6 88.15C16.455 86.0051 15.25 83.0959 15.25 80.0625V11.4375C15.25 8.40409 16.455 5.49491 18.6 3.34997C20.7449 1.20502 23.6541 0 26.6875 0L41.9375 0C44.9709 0 47.8801 1.20502 50.025 3.34997C52.17 5.49491 53.375 8.40409 53.375 11.4375V80.0625C53.375 83.0959 52.17 86.0051 50.025 88.15C47.8801 90.295 44.9709 91.5 41.9375 91.5ZM26.6875 7.625C25.6764 7.625 24.7066 8.02667 23.9917 8.74166C23.2767 9.45664 22.875 10.4264 22.875 11.4375V80.0625C22.875 81.0736 23.2767 82.0434 23.9917 82.7583C24.7066 83.4733 25.6764 83.875 26.6875 83.875H41.9375C42.9486 83.875 43.9184 83.4733 44.6333 82.7583C45.3483 82.0434 45.75 81.0736 45.75 80.0625V11.4375C45.75 10.4264 45.3483 9.45664 44.6333 8.74166C43.9184 8.02667 42.9486 7.625 41.9375 7.625H26.6875Z" fill="#343434"/>
<path d="M102.938 45.75H64.8125C63.8014 45.75 62.8316 45.3483 62.1167 44.6333C61.4017 43.9184 61 42.9486 61 41.9375V26.6875C61 25.6764 61.4017 24.7066 62.1167 23.9917C62.8316 23.2767 63.8014 22.875 64.8125 22.875H102.938C103.949 22.875 104.918 23.2767 105.633 23.9917C106.348 24.7066 106.75 25.6764 106.75 26.6875V41.9375C106.75 42.9486 106.348 43.9184 105.633 44.6333C104.918 45.3483 103.949 45.75 102.938 45.75ZM68.625 38.125H99.125V30.5H68.625V38.125Z" fill="#343434"/>
<path d="M68.7013 61C68.2006 61.0025 67.7043 60.9064 67.2408 60.7171C66.7773 60.5278 66.3556 60.2491 65.9998 59.8968C65.644 59.5446 65.3611 59.1257 65.1672 58.6641C64.9733 58.2025 64.8722 57.7072 64.8697 57.2066C64.8672 56.7059 64.9633 56.2096 65.1526 55.7461C65.3419 55.2826 65.6206 54.8609 65.9729 54.5051C66.3251 54.1493 66.744 53.8664 67.2056 53.6725C67.6672 53.4786 68.1625 53.3775 68.6631 53.375H68.7013C69.7124 53.375 70.6821 53.7767 71.3971 54.4917C72.1121 55.2066 72.5138 56.1764 72.5138 57.1875C72.5138 58.1986 72.1121 59.1684 71.3971 59.8833C70.6821 60.5983 69.7124 61 68.7013 61ZM83.9513 61C83.4506 61.0025 82.9543 60.9064 82.4908 60.7171C82.0273 60.5278 81.6056 60.2491 81.2498 59.8968C80.894 59.5446 80.6111 59.1257 80.4172 58.6641C80.2233 58.2025 80.1222 57.7072 80.1197 57.2066C80.1172 56.7059 80.2133 56.2096 80.4026 55.7461C80.5919 55.2826 80.8706 54.8609 81.2229 54.5051C81.5751 54.1493 81.994 53.8664 82.4556 53.6725C82.9172 53.4786 83.4125 53.3775 83.9131 53.375H83.9513C84.9624 53.375 85.9321 53.7767 86.6471 54.4917C87.3621 55.2066 87.7638 56.1764 87.7638 57.1875C87.7638 58.1986 87.3621 59.1684 86.6471 59.8833C85.9321 60.5983 84.9624 61 83.9513 61ZM99.2013 61C98.7006 61.0025 98.2043 60.9064 97.7408 60.7171C97.2773 60.5278 96.8556 60.2491 96.4998 59.8968C96.144 59.5446 95.8611 59.1257 95.6672 58.6641C95.4733 58.2025 95.3722 57.7072 95.3697 57.2066C95.3672 56.7059 95.4633 56.2096 95.6526 55.7461C95.8419 55.2826 96.1206 54.8609 96.4729 54.5051C96.8251 54.1493 97.244 53.8664 97.7056 53.6725C98.1672 53.4786 98.6625 53.3775 99.1631 53.375H99.2013C100.212 53.375 101.182 53.7767 101.897 54.4917C102.612 55.2066 103.014 56.1764 103.014 57.1875C103.014 58.1986 102.612 59.1684 101.897 59.8833C101.182 60.5983 100.212 61 99.2013 61ZM68.7013 76.25C68.2006 76.2525 67.7043 76.1564 67.2408 75.9671C66.7773 75.7778 66.3556 75.4991 65.9998 75.1468C65.644 74.7946 65.3611 74.3757 65.1672 73.9141C64.9733 73.4525 64.8722 72.9572 64.8697 72.4566C64.8672 71.9559 64.9633 71.4596 65.1526 70.9961C65.3419 70.5326 65.6206 70.1109 65.9729 69.7551C66.3251 69.3993 66.744 69.1164 67.2056 68.9225C67.6672 68.7286 68.1625 68.6275 68.6631 68.625H68.7013C69.7124 68.625 70.6821 69.0267 71.3971 69.7417C72.1121 70.4566 72.5138 71.4264 72.5138 72.4375C72.5138 73.4486 72.1121 74.4184 71.3971 75.1333C70.6821 75.8483 69.7124 76.25 68.7013 76.25ZM83.9513 76.25C83.4506 76.2525 82.9543 76.1564 82.4908 75.9671C82.0273 75.7778 81.6056 75.4991 81.2498 75.1468C80.894 74.7946 80.6111 74.3757 80.4172 73.9141C80.2233 73.4525 80.1222 72.9572 80.1197 72.4566C80.1172 71.9559 80.2133 71.4596 80.4026 70.9961C80.5919 70.5326 80.8706 70.1109 81.2229 69.7551C81.5751 69.3993 81.994 69.1164 82.4556 68.9225C82.9172 68.7286 83.4125 68.6275 83.9131 68.625H83.9513C84.9624 68.625 85.9321 69.0267 86.6471 69.7417C87.3621 70.4566 87.7638 71.4264 87.7638 72.4375C87.7638 73.4486 87.3621 74.4184 86.6471 75.1333C85.9321 75.8483 84.9624 76.25 83.9513 76.25ZM99.2013 76.25C98.7006 76.2525 98.2043 76.1564 97.7408 75.9671C97.2773 75.7778 96.8556 75.4991 96.4998 75.1468C96.144 74.7946 95.8611 74.3757 95.6672 73.9141C95.4733 73.4525 95.3722 72.9572 95.3697 72.4566C95.3672 71.9559 95.4633 71.4596 95.6526 70.9961C95.8419 70.5326 96.1206 70.1109 96.4729 69.7551C96.8251 69.3993 97.244 69.1164 97.7056 68.9225C98.1672 68.7286 98.6625 68.6275 99.1631 68.625H99.2013C100.212 68.625 101.182 69.0267 101.897 69.7417C102.612 70.4566 103.014 71.4264 103.014 72.4375C103.014 73.4486 102.612 74.4184 101.897 75.1333C101.182 75.8483 100.212 76.25 99.2013 76.25ZM68.7013 91.5C67.6901 91.5051 66.7184 91.1082 65.9998 90.3968C65.2813 89.6854 64.8747 88.7177 64.8697 87.7066C64.8646 86.6954 65.2615 85.7237 65.9729 85.0051C66.6843 84.2866 67.652 83.8801 68.6631 83.875H68.7013C69.7124 83.875 70.6821 84.2767 71.3971 84.9917C72.1121 85.7066 72.5138 86.6764 72.5138 87.6875C72.5138 88.6986 72.1121 89.6684 71.3971 90.3833C70.6821 91.0983 69.7124 91.5 68.7013 91.5ZM83.9513 91.5C82.9401 91.5051 81.9684 91.1082 81.2498 90.3968C80.5313 89.6854 80.1247 88.7177 80.1197 87.7066C80.1146 86.6954 80.5115 85.7237 81.2229 85.0051C81.9343 84.2866 82.902 83.8801 83.9131 83.875H83.9513C84.9624 83.875 85.9321 84.2767 86.6471 84.9917C87.3621 85.7066 87.7638 86.6764 87.7638 87.6875C87.7638 88.6986 87.3621 89.6684 86.6471 90.3833C85.9321 91.0983 84.9624 91.5 83.9513 91.5ZM99.2013 91.5C98.1901 91.5051 97.2184 91.1082 96.4998 90.3968C95.7813 89.6854 95.3747 88.7177 95.3697 87.7066C95.3646 86.6954 95.7615 85.7237 96.4729 85.0051C97.1843 84.2866 98.152 83.8801 99.1631 83.875H99.2013C100.212 83.875 101.182 84.2767 101.897 84.9917C102.612 85.7066 103.014 86.6764 103.014 87.6875C103.014 88.6986 102.612 89.6684 101.897 90.3833C101.182 91.0983 100.212 91.5 99.2013 91.5ZM24.7813 122C21.2423 122 17.8482 120.594 15.3458 118.092C12.8434 115.589 11.4375 112.195 11.4375 108.656V102.938C11.4375 101.926 11.8392 100.957 12.5542 100.242C13.2691 99.5267 14.2389 99.125 15.25 99.125C16.2611 99.125 17.2309 99.5267 17.9458 100.242C18.6608 100.957 19.0625 101.926 19.0625 102.938V108.656C19.0625 110.173 19.665 111.628 20.7375 112.7C21.81 113.772 23.2645 114.375 24.7813 114.375C26.298 114.375 27.7525 113.772 28.825 112.7C29.8975 111.628 30.5 110.173 30.5 108.656V87.6875C30.5 86.6764 30.9017 85.7066 31.6167 84.9917C32.3316 84.2767 33.3014 83.875 34.3125 83.875C35.3236 83.875 36.2934 84.2767 37.0083 84.9917C37.7233 85.7066 38.125 86.6764 38.125 87.6875V108.656C38.125 112.195 36.7191 115.589 34.2167 118.092C31.7143 120.594 28.3202 122 24.7813 122Z" fill="#343434"/>
</g>
<defs>
<clipPath id="clip0_676_3505">
<rect width="122" height="122" fill="white"/>
</clipPath>
</defs>
</svg>
