<svg width="48" height="48" viewBox="0 0 48 48" fill="none" xmlns="http://www.w3.org/2000/svg">
<path d="M37.4968 14.9837C37.4562 15.3141 37.4273 15.6444 37.3809 15.9748C37.2521 16.7469 37.3349 17.5396 37.6207 18.2683C37.9065 18.9971 38.3845 19.6347 39.0039 20.1134C39.2416 20.2989 39.485 20.4728 39.7168 20.6931C40.207 21.1005 40.6015 21.6109 40.8722 22.1879C41.1429 22.7649 41.2832 23.3944 41.2832 24.0318C41.2832 24.6692 41.1429 25.2988 40.8722 25.8758C40.6015 26.4528 40.207 26.9631 39.7168 27.3705C39.5256 27.5386 39.3169 27.6894 39.1372 27.8459C38.4748 28.3222 37.9624 28.9779 37.6605 29.7358C37.3585 30.4938 37.2796 31.3223 37.4331 32.1236C37.804 34.5523 36.6564 36.6563 34.4885 37.2823C33.7708 37.4744 33.0216 37.5198 32.2859 37.4157C31.4139 37.2538 30.5136 37.3495 29.6951 37.6913C28.8767 38.0331 28.1757 38.606 27.6778 39.3401C27.2783 39.9366 26.738 40.4256 26.1046 40.7637C25.4712 41.1018 24.7643 41.2787 24.0463 41.2787C23.3284 41.2787 22.6214 41.1018 21.9881 40.7637C21.3547 40.4256 20.8144 39.9366 20.4149 39.3401C19.8769 38.5501 19.1105 37.9434 18.2181 37.6012C17.4753 37.3357 16.6758 37.2698 15.8995 37.4099C15.1191 37.5814 14.3068 37.5377 13.5493 37.2835C12.7918 37.0293 12.1175 36.5742 11.5986 35.9666C11.16 35.4704 10.8423 34.8792 10.6703 34.2396C10.4983 33.6001 10.4768 32.9293 10.6074 32.28C10.7877 31.3952 10.6978 30.4767 10.3495 29.6436C10.0012 28.8105 9.41047 28.1014 8.65406 27.6082C7.87569 27.0845 7.28932 26.3212 6.98388 25.4342C6.67844 24.5472 6.67057 23.5848 6.96149 22.6929C7.26138 21.7452 7.87457 20.9276 8.7004 20.3743C9.20991 20.0475 9.6447 19.6167 9.97632 19.1103C10.3079 18.6039 10.5289 18.0332 10.6248 17.4355C10.6973 16.9164 10.6973 16.3897 10.6248 15.8705C10.4574 15.0652 10.5167 14.2292 10.796 13.4556C11.0754 12.682 11.5639 12.001 12.2072 11.4884C12.7012 11.0843 13.279 10.7956 13.8987 10.6432C14.5185 10.4907 15.1644 10.4786 15.7894 10.6074C16.6594 10.7817 17.5616 10.6941 18.3818 10.3557C19.2021 10.0173 19.9035 9.44328 20.3975 8.7062C20.9218 7.90877 21.6942 7.30624 22.5953 6.99191C23.4963 6.67758 24.4759 6.66896 25.3824 6.96729C26.3559 7.29123 27.1913 7.93467 27.7531 8.79316C28.0741 9.27725 28.4924 9.68909 28.9814 10.0025C29.4705 10.3158 30.0194 10.5238 30.5933 10.6132C31.1123 10.6886 31.6394 10.6886 32.1584 10.6132C32.9872 10.4341 33.85 10.4968 34.6443 10.7937C35.4386 11.0907 36.1309 11.6094 36.639 12.2883C37.2326 13.0581 37.5363 14.0124 37.4968 14.9837ZM34.9986 23.9913C34.9986 21.8111 34.3515 19.68 33.1393 17.8679C31.9271 16.0558 30.2043 14.6442 28.1892 13.8121C26.1742 12.9799 23.9574 12.7645 21.8198 13.1932C19.6822 13.622 17.72 14.6755 16.1816 16.2203C14.6433 17.7652 13.598 19.7319 13.1783 21.8713C12.7586 24.0106 12.9834 26.2264 13.824 28.238C14.6647 30.2496 16.0835 31.9664 17.9007 33.1709C19.7179 34.3755 21.8517 35.0136 24.0318 35.0044C25.4757 35.0036 26.9052 34.7179 28.2385 34.1636C29.5717 33.6093 30.7824 32.7973 31.8012 31.7742C32.82 30.7511 33.6269 29.5369 34.1756 28.2013C34.7242 26.8658 35.0039 25.4351 34.9986 23.9913Z" fill="#020D43"/>
<path d="M24.6695 2.29534C24.6695 2.81702 24.6695 3.33874 24.6695 3.86621C24.681 3.96135 24.6721 4.05783 24.6436 4.14931C24.615 4.24079 24.5674 4.32521 24.5039 4.39696C24.4403 4.4687 24.3623 4.52617 24.275 4.56557C24.1876 4.60497 24.0929 4.62537 23.9971 4.6255C23.6029 4.6255 23.3421 4.32991 23.3421 3.85461C23.3421 2.82285 23.3421 1.79104 23.3421 0.759289C23.3297 0.664464 23.3377 0.568103 23.3656 0.476617C23.3934 0.38513 23.4404 0.300621 23.5035 0.228756C23.5666 0.156891 23.6443 0.0993143 23.7314 0.0598601C23.8185 0.0204058 23.9131 2.15028e-05 24.0087 0C24.1044 0.00246357 24.1984 0.0249829 24.2849 0.0660867C24.3713 0.10719 24.4481 0.165932 24.5104 0.238591C24.5727 0.31125 24.619 0.396177 24.6464 0.487867C24.6738 0.579557 24.6817 0.675976 24.6695 0.770893C24.6811 1.28097 24.6695 1.78526 24.6695 2.29534Z" fill="#020D43"/>
<path d="M0.759408 24.6693C0.289901 24.6693 -0.00571267 24.397 8.37157e-05 24.0028C0.000818607 23.9071 0.0219414 23.8127 0.0621019 23.7258C0.102262 23.6389 0.160516 23.5617 0.232944 23.4991C0.305372 23.4366 0.390327 23.3902 0.482113 23.3631C0.573899 23.336 0.67039 23.3288 0.765175 23.342C1.79693 23.342 2.8287 23.342 3.85466 23.342C4.32996 23.342 4.61978 23.6087 4.61978 24.0028C4.61978 24.397 4.32996 24.6578 3.85466 24.6693H0.759408Z" fill="#020D43"/>
<path d="M47.2232 23.3362C47.6985 23.3362 47.9941 23.6029 47.9999 23.9912C48.0014 24.0873 47.9824 24.1825 47.944 24.2706C47.9056 24.3586 47.8488 24.4375 47.7774 24.5017C47.706 24.566 47.6217 24.6142 47.5301 24.6431C47.4385 24.672 47.3417 24.681 47.2464 24.6694H44.1569C43.6758 24.6694 43.386 24.4085 43.3802 24.0144C43.3744 23.6202 43.67 23.342 44.1801 23.3362H47.2232Z" fill="#020D43"/>
<path d="M24.6695 45.7045C24.6695 46.2261 24.6695 46.7478 24.6695 47.2695C24.6781 47.3619 24.6674 47.455 24.6379 47.543C24.6085 47.631 24.5611 47.7119 24.4986 47.7804C24.4361 47.849 24.36 47.9038 24.2751 47.9413C24.1903 47.9788 24.0985 47.9982 24.0058 47.9982C23.913 47.9982 23.8213 47.9788 23.7364 47.9413C23.6515 47.9038 23.5754 47.849 23.5129 47.7804C23.4505 47.7119 23.403 47.631 23.3736 47.543C23.3442 47.455 23.3334 47.3619 23.3421 47.2695C23.3421 46.2204 23.3421 45.177 23.3421 44.1279C23.3333 44.0366 23.3434 43.9444 23.3719 43.8572C23.4003 43.77 23.4465 43.6896 23.5074 43.6211C23.5683 43.5525 23.6427 43.4973 23.726 43.4589C23.8093 43.4204 23.8996 43.3995 23.9913 43.3975C24.3854 43.3975 24.6579 43.6758 24.6695 44.1453C24.6811 44.6148 24.6695 45.177 24.6695 45.7045Z" fill="#020D43"/>
<path d="M11.6102 44.2669C11.6788 44.0827 11.7581 43.9027 11.8478 43.7278C12.3347 42.8738 12.8255 42.0238 13.3201 41.1775C13.5926 40.7138 13.9346 40.5978 14.2939 40.7775C14.6533 40.9572 14.7344 41.3571 14.4678 41.8498C13.9693 42.7251 13.4592 43.5888 12.9492 44.4814C12.9181 44.5597 12.8716 44.6309 12.8124 44.6908C12.7532 44.7507 12.6825 44.798 12.6046 44.8299C12.5267 44.8619 12.4431 44.8778 12.3589 44.8766C12.2747 44.8755 12.1915 44.8574 12.1145 44.8234C11.9 44.719 11.7609 44.4408 11.6102 44.2669Z" fill="#020D43"/>
<path d="M12.4855 3.14166C12.5666 3.20542 12.7927 3.29232 12.897 3.46041C13.4767 4.39363 14.0041 5.34425 14.5432 6.29485C14.5946 6.3672 14.6299 6.44975 14.6467 6.53691C14.6635 6.62407 14.6614 6.71379 14.6405 6.80006C14.6196 6.88632 14.5804 6.96711 14.5256 7.03695C14.4709 7.10679 14.4017 7.16403 14.3229 7.20485C14.253 7.26248 14.1704 7.30292 14.082 7.32288C13.9936 7.34284 13.9018 7.34182 13.8138 7.31983C13.7259 7.29785 13.6443 7.25551 13.5757 7.19629C13.5071 7.13707 13.4533 7.06263 13.4187 6.97886C12.839 6.02825 12.2594 5.07185 11.7551 4.08067C11.5001 3.62275 11.8653 3.11847 12.4855 3.14166Z" fill="#020D43"/>
<path d="M34.1407 7.31503C33.5901 7.31503 33.2075 6.84554 33.4104 6.46298C33.99 5.41383 34.5697 4.38203 35.1841 3.37346C35.2285 3.30615 35.2864 3.24885 35.3542 3.2052C35.422 3.16155 35.4982 3.13256 35.5778 3.12001C35.6575 3.10746 35.7388 3.11163 35.8168 3.13232C35.8947 3.15302 35.9674 3.18975 36.0304 3.24016C36.1075 3.28364 36.1745 3.34299 36.227 3.41429C36.2795 3.48558 36.3162 3.56718 36.3349 3.65373C36.3535 3.74028 36.3536 3.8298 36.335 3.91638C36.3165 4.00295 36.2799 4.08467 36.2275 4.15603C35.8159 4.90376 35.3812 5.63988 34.9523 6.38182C34.8457 6.58543 34.7215 6.77938 34.5813 6.96146C34.4506 7.09817 34.3025 7.21705 34.1407 7.31503Z" fill="#020D43"/>
<path d="M3.68656 11.6102C3.88377 11.6748 4.07728 11.7503 4.2662 11.8362C5.13566 12.327 5.9993 12.8255 6.85717 13.3317C7.30349 13.5983 7.4368 13.9635 7.21654 14.317C7.16703 14.3982 7.101 14.4681 7.02274 14.5222C6.94447 14.5762 6.85575 14.6131 6.76228 14.6306C6.66881 14.648 6.57271 14.6458 6.48021 14.6237C6.38771 14.6016 6.30089 14.5603 6.22538 14.5026C5.31535 13.9867 4.40531 13.4592 3.50107 12.9375C3.35225 12.8724 3.23487 12.7516 3.17418 12.601C3.11348 12.4503 3.11431 12.2818 3.17648 12.1318C3.26922 11.9231 3.51267 11.7783 3.68656 11.6102Z" fill="#020D43"/>
<path d="M44.325 11.6507C44.4583 11.7666 44.7539 11.9058 44.8003 12.1028C44.8258 12.2342 44.8202 12.3698 44.784 12.4986C44.7477 12.6274 44.6819 12.746 44.5916 12.8448C43.6178 13.465 42.6035 14.0041 41.5949 14.5837C41.4625 14.6446 41.312 14.6532 41.1734 14.6081C41.0349 14.563 40.9184 14.4674 40.8472 14.3402C40.7517 14.2208 40.7073 14.0686 40.7236 13.9166C40.7399 13.7646 40.8156 13.6252 40.9341 13.5287C41.9543 12.8969 43.0092 12.3115 44.0526 11.7087C44.1415 11.6812 44.2326 11.6618 44.325 11.6507Z" fill="#020D43"/>
<path d="M3.64597 36.3665C3.51845 36.2506 3.24024 36.0998 3.18807 35.897C3.16331 35.7715 3.16878 35.6419 3.20406 35.5189C3.23934 35.396 3.3034 35.2831 3.39093 35.1898C4.38211 34.5696 5.39648 33.9842 6.43983 33.4509C6.60213 33.364 7.01947 33.5205 7.17018 33.6828C7.22862 33.7338 7.27451 33.7976 7.3043 33.8692C7.33408 33.9408 7.34695 34.0183 7.34191 34.0956C7.33686 34.173 7.31402 34.2482 7.27518 34.3153C7.23635 34.3825 7.18257 34.4397 7.118 34.4827C6.08624 35.1261 5.0197 35.7173 3.96476 36.3202C3.9126 36.3318 3.84305 36.3201 3.64597 36.3665Z" fill="#020D43"/>
<path d="M44.325 36.3955C44.1271 36.3303 43.9335 36.2529 43.7453 36.1636C42.8933 35.6825 42.0412 35.184 41.1949 34.6913C40.7138 34.4073 40.5805 34.0537 40.8008 33.6827C41.021 33.3118 41.3804 33.277 41.8383 33.5262L44.5163 35.0739C44.5924 35.102 44.6618 35.1459 44.7199 35.2026C44.778 35.2593 44.8235 35.3275 44.8536 35.4029C44.8837 35.4783 44.8975 35.5592 44.8944 35.6403C44.8912 35.7214 44.871 35.801 44.8351 35.8738C44.7423 36.0882 44.4931 36.2274 44.325 36.3955Z" fill="#020D43"/>
<path d="M36.3607 44.3597C36.239 44.4814 36.0883 44.7654 35.8854 44.8176C35.7599 44.8423 35.6303 44.8369 35.5074 44.8016C35.3844 44.7663 35.2716 44.7023 35.1783 44.6147C34.5581 43.6235 33.9784 42.6034 33.4394 41.5774C33.3998 41.5108 33.3757 41.4363 33.3685 41.3592C33.3614 41.2821 33.3715 41.2044 33.3981 41.1317C33.4248 41.059 33.4673 40.9932 33.5225 40.9389C33.5778 40.8847 33.6444 40.8434 33.7176 40.8181C33.9379 40.737 34.3842 40.7544 34.4769 40.8935C35.1319 41.9195 35.7231 42.986 36.326 44.0409C36.3486 44.1457 36.3603 44.2525 36.3607 44.3597Z" fill="#020D43"/>
<path d="M21.2728 25.7069C23.4232 23.5623 25.5215 21.4698 27.614 19.3657C27.7743 19.18 27.9704 19.0284 28.1904 18.9198C28.4105 18.8113 28.6501 18.748 28.895 18.7339C29.2213 18.7175 29.5455 18.7957 29.8285 18.9589C30.1115 19.1221 30.3415 19.3634 30.4908 19.6541C30.6401 19.9447 30.7024 20.2723 30.6702 20.5974C30.638 20.9225 30.5127 21.2314 30.3094 21.4872C30.2089 21.6119 30.1005 21.73 29.9848 21.8407L22.1828 29.6427C21.1395 30.6861 20.0961 30.5469 19.3542 29.2717C18.4383 27.6777 17.4936 26.1011 16.6183 24.4839C16.4074 24.0832 16.313 23.6314 16.3459 23.1797C16.3929 22.8389 16.5485 22.5223 16.7897 22.2769C17.0309 22.0315 17.3448 21.8705 17.6848 21.8176C18.0313 21.75 18.3903 21.7925 18.7114 21.939C19.0326 22.0856 19.2999 22.3289 19.4759 22.6349C19.9918 23.4928 20.4787 24.3738 20.9772 25.2259C21.0641 25.3534 21.1395 25.5215 21.2728 25.7069Z" fill="#020D43"/>
</svg>
