<svg width="224" height="225" viewBox="0 0 224 225" fill="none" xmlns="http://www.w3.org/2000/svg">
<path d="M0 147.884C0.361645 146.417 0.645287 144.92 1.08493 143.481C5.15521 130.121 14.0049 122.052 27.7616 119.414C28.1868 119.338 28.5922 119.176 28.9529 118.939C20.7272 117.215 14.2743 113.039 10.0622 105.749C6.88923 100.35 5.80685 93.9741 7.02017 87.83C9.33895 75.215 20.8052 66.1314 33.9237 66.5568C46.6876 66.9256 57.2817 76.9027 58.9481 90.0566C60.6145 103.211 52.169 114.407 37.0792 118.854C67.351 122.08 85.5964 103.707 90.6523 84.4831C91.6142 80.4394 92.1536 76.3068 92.262 72.1517C92.4313 67.677 94.1023 63.3897 97.0057 59.9807C99.9092 56.5717 103.876 54.2396 108.267 53.3603C112.669 52.5011 117.233 53.1734 121.2 55.2655C125.168 57.3577 128.301 60.7439 130.079 64.862C131.773 68.7338 131.851 72.7899 131.61 76.9169C129.426 114.5 104.076 145.764 67.6985 155.571C66.0321 156.018 65.5712 156.642 65.5712 158.337C65.635 177.369 65.5712 196.394 65.6421 215.427C65.6421 219.398 64.5146 222.348 60.8343 224.078H4.81484C2.70153 223.078 1.00006 221.376 0 219.263V147.884Z" fill="#2D2D2D"/>
<path d="M163.173 224.014C159.492 222.277 158.337 219.327 158.358 215.363C158.464 196.338 158.358 177.312 158.429 158.287C158.429 156.606 157.982 155.933 156.301 155.451C143.197 151.905 131.788 145.261 121.385 136.248C130.341 125.637 136.957 113.256 140.8 99.9133C152.798 115.039 168.406 120.577 186.701 118.776C170.342 113.152 162.648 102.012 165.385 87.6954C167.81 74.9811 179.397 65.9542 192.587 66.5002C205.294 67.0249 215.987 77.2927 217.313 90.2978C218.405 101.183 212.044 115.379 194.43 118.932L198.245 119.775C205.499 121.365 211.996 125.375 216.668 131.147C221.34 136.92 223.908 144.11 223.95 151.536C224.028 173.256 223.95 194.983 224 216.703C224 220.334 222.142 222.468 219.164 223.986L163.173 224.014Z" fill="#2D2D2D"/>
<path d="M92.3896 32.0871C92.1273 35.3703 91.092 37.4124 88.6952 38.6038C86.1424 39.8731 83.5754 39.6675 81.5686 37.76C76.8413 33.2453 72.2037 28.6077 67.656 23.8473C66.5935 22.6041 66.039 21.006 66.1033 19.372C66.1675 17.7379 66.8457 16.1883 68.0025 15.0324C69.1593 13.8765 70.7095 13.1995 72.3435 13.1366C73.9776 13.0736 75.5753 13.6292 76.8176 14.6927C81.5757 19.2026 86.192 23.8685 90.7161 28.6195C91.6876 29.6619 92.0209 31.3 92.3896 32.0871Z" fill="#2D2D2D"/>
<path d="M138.9 39.4548C135.581 39.1499 133.553 38.0366 132.397 35.6682C131.171 33.0941 131.433 30.5555 133.348 28.5771C137.825 23.8828 142.41 19.2948 147.104 14.8133C148.334 13.6618 149.962 13.0322 151.646 13.0571C153.33 13.0819 154.939 13.7594 156.134 14.9468C157.328 16.1341 158.016 17.7387 158.051 19.4227C158.086 21.1066 157.467 22.7386 156.323 23.975C151.862 28.6835 147.253 33.25 142.552 37.7174C141.446 38.7102 139.772 39.0648 138.9 39.4548Z" fill="#2D2D2D"/>
<path d="M118.57 13.1043C118.57 15.2884 118.62 17.4653 118.57 19.6494C118.565 20.5089 118.39 21.359 118.057 22.1512C117.723 22.9433 117.237 23.6619 116.625 24.266C116.014 24.8702 115.29 25.348 114.493 25.6722C113.697 25.9964 112.845 26.1606 111.986 26.1555C111.126 26.1504 110.276 25.976 109.484 25.6423C108.692 25.3087 107.973 24.8223 107.369 24.2109C106.765 23.5995 106.287 22.8751 105.963 22.0791C105.639 21.283 105.475 20.4309 105.48 19.5714C105.418 15.2837 105.418 10.9935 105.48 6.70107C105.462 5.8257 105.619 4.95558 105.942 4.1419C106.266 3.32821 106.748 2.58744 107.362 1.96307C107.976 1.3387 108.708 0.843364 109.516 0.506248C110.325 0.169132 111.192 -0.0029819 112.067 3.90896e-05C115.719 3.90896e-05 118.506 2.90033 118.584 6.77915C118.605 8.8852 118.57 10.9983 118.57 13.1043Z" fill="#2D2D2D"/>
</svg>
