<svg width="116" height="218" viewBox="0 0 116 218" fill="none" xmlns="http://www.w3.org/2000/svg">
<path d="M139.013 127.093C150.621 135.431 157.95 146.155 158.107 160.74C158.295 179.203 158.162 197.667 158.162 216.13C158.162 216.571 158.077 217.006 158.023 217.544H132.048V214.91C132.048 200.591 132.048 186.272 132.048 171.953C132.048 171.131 132.23 170.044 131.794 169.536C130.993 168.618 129.769 167.452 128.763 167.494C127.757 167.537 126.672 168.823 125.902 169.784C125.526 170.261 125.762 171.24 125.762 171.989C125.762 186.308 125.762 200.627 125.762 214.946V217.514H42.2744V215.2C42.2744 200.804 42.2744 186.409 42.2744 172.013C42.313 171.337 42.2968 170.658 42.2259 169.983C41.9532 168.382 41.0136 167.416 39.3224 167.343C38.5959 167.256 37.8636 167.451 37.2785 167.889C36.6934 168.327 36.3007 168.974 36.1824 169.693C36.0335 170.506 35.9786 171.333 36.0188 172.158C36.0188 186.328 36.0188 200.496 36.0188 214.662V217.495H9.95345V214.746C9.95345 197.715 10.3354 180.671 9.85648 163.652C9.25031 141.751 24.3197 127.842 38.2555 122.212C44.9906 119.477 52.199 118.087 59.4715 118.121C75.8805 118.152 92.2895 118.079 108.692 118.17C112.505 118.17 116.312 118.695 120.119 118.973L120.307 119.698C119.547 120.346 118.736 120.932 117.882 121.45C112.93 123.988 107.977 126.531 102.94 128.894C102.443 129.042 101.919 129.083 101.405 129.013C100.89 128.943 100.397 128.765 99.9576 128.489C97.273 126.619 94.0913 125.586 90.8166 125.522C84.1487 125.456 77.4808 125.396 70.8614 125.522C62.9024 125.68 56.4164 131.419 55.5011 138.869C54.9996 142.604 55.8883 146.393 57.9992 149.52C60.1101 152.647 63.297 154.895 66.9577 155.84C67.7458 156.076 68.5602 156.214 69.3823 156.251C76.9413 156.287 84.5366 156.486 92.0531 156.251C97.5086 156.057 101.503 153.061 104.328 148.439C104.793 147.624 105.516 146.987 106.383 146.626C118.271 142.957 129.122 136.539 138.049 127.897C138.298 127.643 138.595 127.432 139.013 127.093Z" fill="#2D2D2D"/>
<path d="M146.578 89.9066H142.214V55.348L146.457 55.1547C140.959 32.6251 117.87 8.11394 84.7063 7.73331C52.1429 7.36477 27.6475 30.8852 21.4949 55.2091H25.8169V89.8462C23.5013 89.8462 21.204 89.8462 18.9005 89.8462C16.5971 89.8462 14.2088 89.9247 11.875 89.7495C8.71508 89.5108 5.75672 88.1109 3.57376 85.8213C1.3908 83.5316 0.138849 80.5155 0.0607574 77.3579C-0.0180447 74.1981 -0.011983 71.0263 0.0607574 67.8664C0.188053 61.2206 5.36476 55.6622 11.9356 55.3178C13.5481 55.2393 14.0633 54.6532 14.5058 53.2334C22.8467 26.4385 40.6075 9.12898 67.9215 2.4831C104.898 -6.513 142.911 16.083 153.391 52.6957C153.876 54.3874 154.392 55.2393 156.422 55.3541C162.557 55.6924 167.673 61.148 167.94 67.3166C168.067 70.6275 168.03 73.9626 167.94 77.2613C167.889 80.4196 166.658 83.4454 164.488 85.7471C162.317 88.0489 159.364 89.461 156.204 89.7072C154.58 89.8401 153.937 90.3899 153.458 91.9245C145.463 117.741 128.387 134.416 102.437 142.149C101.985 142.32 101.572 142.577 101.221 142.907C100.869 143.236 100.586 143.632 100.388 144.07C98.721 148.3 95.3022 150.958 90.6892 151.025C84.0214 151.127 77.3535 151.163 70.7281 151.025C69.3806 151.028 68.0463 150.76 66.805 150.238C65.5637 149.715 64.4408 148.948 63.5037 147.983C62.5666 147.018 61.8344 145.875 61.3509 144.621C60.8674 143.367 60.6426 142.029 60.6899 140.687C60.8172 135.123 65.1937 130.894 70.9948 130.845C77.4202 130.791 83.8456 130.845 90.277 130.845C91.7927 130.831 93.2946 131.133 94.6855 131.734C96.0764 132.334 97.3252 133.219 98.3512 134.331C98.6744 134.63 99.0579 134.856 99.4762 134.995C99.8944 135.134 100.338 135.181 100.776 135.135C121.816 130.199 141.42 110.883 146.578 89.9066Z" fill="#2D2D2D"/>
<path d="M84.0798 35.8633C93.2177 35.8921 101.97 39.5378 108.411 45.9984C114.852 52.459 118.454 61.2053 118.425 70.3131C118.396 79.4209 114.739 88.1442 108.257 94.564C101.775 100.984 92.9995 104.574 83.8616 104.545C65.0703 104.479 49.5645 88.9819 49.5645 70.1922C49.5933 61.0839 53.2413 52.3579 59.71 45.9241C66.1787 39.4903 74.9413 35.8728 84.0798 35.8633Z" fill="#2D2D2D"/>
</svg>
