<svg width="129" height="248" viewBox="0 0 129 248" fill="none" xmlns="http://www.w3.org/2000/svg">
<path d="M77.5038 0.773438C82.4501 1.75074 87.4763 2.34909 92.3029 3.76518C106.163 7.8259 118.472 15.9808 127.616 27.1603C136.759 38.3399 142.311 52.0222 143.542 66.4124C143.701 68.2473 143.841 70.0823 143.861 71.9172C143.969 72.9077 143.87 73.9098 143.57 74.8602C143.271 75.8106 142.778 76.6884 142.122 77.4383C141.465 78.1882 140.661 78.7938 139.759 79.2166C138.856 79.6395 137.876 79.8707 136.88 79.8952C132.592 80.0148 129.62 76.9033 129.44 72.2561C128.483 49.3393 118.072 32.107 97.728 21.5162C63.642 3.76523 21.1792 25.5051 15.3952 63.5601C14.9564 66.492 14.757 69.5437 14.5974 72.4158C14.3381 76.9633 11.4062 79.9749 7.21775 79.8952C6.2325 79.8735 5.26196 79.6515 4.36528 79.2427C3.46859 78.8338 2.66456 78.2466 2.00211 77.517C1.33966 76.7873 0.832676 75.9304 0.512079 74.9985C0.191482 74.0666 0.0639824 73.0794 0.13732 72.0966C0.2853 57.3716 4.95715 43.0482 13.5197 31.0678C22.0822 19.0873 34.1214 10.0291 48.0052 5.1213C53.5404 3.552 59.1522 2.26733 64.8188 1.27206L66.4144 0.87326L77.5038 0.773438Z" fill="#2D2D2D"/>
<path d="M54.5471 149.064V74.2306C54.5471 66.4521 57.7782 60.5284 64.9584 57.2575C76.6063 51.9521 89.3511 60.4687 89.4508 73.5925C89.5505 88.2521 89.4508 102.931 89.4508 117.611V120.543L119.109 129.219C122.559 130.236 126.05 131.214 129.48 132.231C138.555 135.103 144.2 141.206 144.978 150.7C145.497 158.006 145.444 165.341 144.818 172.639C144.429 175.892 143.266 179.003 141.427 181.714C136.002 190.131 130.178 198.288 124.594 206.605C124.252 207.174 123.756 207.634 123.162 207.931C122.569 208.227 121.903 208.349 121.243 208.281C96.0593 208.281 70.8754 208.281 45.6916 208.281C45.0287 208.35 44.362 208.19 43.803 207.827C43.244 207.464 42.8264 206.92 42.62 206.286C33.6847 188.097 24.6696 169.966 15.6744 151.797C13.938 148.314 13.5343 144.317 14.5392 140.557C15.5442 136.797 17.8885 133.534 21.1311 131.382C24.3736 129.231 28.2909 128.338 32.1457 128.873C36.0004 129.407 39.5269 131.332 42.0616 134.285C45.6716 138.473 49.162 142.781 52.7122 147.03C53.1709 147.548 53.6496 148.047 54.5471 149.064Z" fill="#2D2D2D"/>
<path d="M72.0189 26.4426C97.1096 26.7418 117.892 47.1854 117.892 71.9172C117.892 76.5843 114.98 79.8952 110.692 79.8952C109.707 79.9023 108.731 79.7071 107.824 79.3218C106.917 78.9365 106.099 78.3692 105.421 77.655C104.742 76.9408 104.217 76.0949 103.879 75.1697C103.54 74.2445 103.395 73.2596 103.452 72.2761C103.374 64.5044 100.424 57.0364 95.1687 51.3102C89.9136 45.5841 82.7256 42.005 74.9891 41.262C67.2527 40.5191 59.5149 42.665 53.2661 47.2864C47.0173 51.9078 42.6995 58.6777 41.1441 66.2926C40.7752 68.1805 40.555 70.0944 40.4859 72.0168C40.2665 76.7836 37.4344 79.8352 33.1662 79.7953C28.8979 79.7554 25.966 76.4446 26.0258 71.578C26.2791 61.265 29.9862 51.3353 36.5534 43.3795C43.1205 35.4237 52.1677 29.9021 62.2459 27.6991C65.477 27.1806 68.7679 26.8814 72.0189 26.4426Z" fill="#2D2D2D"/>
<path d="M47.6063 222.641H117.414C117.667 228.071 117.62 233.511 117.274 238.936C116.755 243.583 112.088 246.914 107.302 247.054C90.9467 247.054 74.5852 247.054 58.217 247.054C55.4527 247.039 52.804 245.943 50.8363 244.002C48.8687 242.06 47.7381 239.426 47.6861 236.662C47.5265 232.095 47.6063 227.468 47.6063 222.641Z" fill="#2D2D2D"/>
</svg>
