<svg width="203" height="225" viewBox="0 0 203 225" fill="none" xmlns="http://www.w3.org/2000/svg">
<path d="M0 147.9C0.361645 146.432 0.645287 144.936 1.08493 143.496C5.15521 130.137 14.0049 122.067 27.7616 119.429C28.1868 119.354 28.5922 119.192 28.9529 118.954C20.7272 117.231 14.2743 113.054 10.0622 105.765C6.88923 100.365 5.80685 93.9897 7.02017 87.8457C9.33895 75.2306 20.8052 66.147 33.9237 66.5724C46.6876 66.9412 57.2817 76.9183 58.9481 90.0723C60.6145 103.226 52.169 114.423 37.0792 118.869C67.351 122.096 85.5964 103.723 90.6523 84.4987C91.6142 80.455 92.1536 76.3224 92.262 72.1673C92.4313 67.6927 94.1023 63.4053 97.0057 59.9963C99.9092 56.5873 103.876 54.2553 108.267 53.376C112.669 52.5167 117.233 53.189 121.2 55.2812C125.168 57.3733 128.301 60.7595 130.079 64.8777C131.773 68.7494 131.851 72.8055 131.61 76.9325C129.426 114.515 104.076 145.78 67.6985 155.587C66.0321 156.033 65.5712 156.658 65.5712 158.352C65.635 177.385 65.5712 196.41 65.6421 215.443C65.6421 219.414 64.5146 222.363 60.8343 224.094H4.81484C2.70153 223.094 1.00006 221.392 0 219.279V147.9Z" fill="#2D2D2D"/>
<path d="M163.173 224.03C159.492 222.293 158.337 219.343 158.358 215.379C158.464 196.353 158.358 177.328 158.429 158.303C158.429 156.622 157.982 155.948 156.301 155.466C143.197 151.921 131.788 145.276 121.385 136.264C130.341 125.653 136.957 113.271 140.8 99.9289C152.798 115.054 168.406 120.592 186.701 118.791C170.342 113.168 162.648 102.028 165.385 87.711C167.81 74.9967 179.397 65.9698 192.587 66.5158C205.294 67.0405 215.987 77.3084 217.313 90.3134C218.405 101.198 212.044 115.395 194.43 118.947L198.245 119.791C205.499 121.38 211.996 125.391 216.668 131.163C221.34 136.936 223.908 144.126 223.95 151.552C224.028 173.272 223.95 194.999 224 216.719C224 220.35 222.142 222.484 219.164 224.001L163.173 224.03Z" fill="#2D2D2D"/>
<path d="M92.3896 32.1027C92.1273 35.3859 91.092 37.4281 88.6952 38.6194C86.1424 39.8887 83.5754 39.6831 81.5686 37.7756C76.8413 33.2609 72.2037 28.6234 67.656 23.8629C66.5935 22.6198 66.039 21.0216 66.1033 19.3876C66.1675 17.7536 66.8457 16.2039 68.0025 15.048C69.1593 13.8922 70.7095 13.2152 72.3435 13.1522C73.9776 13.0892 75.5753 13.6449 76.8176 14.7083C81.5757 19.2182 86.192 23.8841 90.7161 28.6352C91.6876 29.6776 92.0209 31.3156 92.3896 32.1027Z" fill="#2D2D2D"/>
<path d="M138.9 39.4704C135.581 39.1655 133.553 38.0522 132.397 35.6838C131.171 33.1097 131.433 30.5711 133.348 28.5927C137.825 23.8984 142.41 19.3105 147.104 14.8289C148.334 13.6774 149.962 13.0478 151.646 13.0727C153.33 13.0976 154.939 13.7751 156.134 14.9624C157.328 16.1497 158.016 17.7543 158.051 19.4383C158.086 21.1223 157.467 22.7543 156.323 23.9906C151.862 28.6991 147.253 33.2657 142.552 37.733C141.446 38.7258 139.772 39.0804 138.9 39.4704Z" fill="#2D2D2D"/>
<path d="M118.57 13.12C118.57 15.304 118.62 17.481 118.57 19.665C118.565 20.5245 118.39 21.3747 118.057 22.1668C117.723 22.9589 117.237 23.6775 116.625 24.2817C116.014 24.8858 115.29 25.3636 114.493 25.6878C113.697 26.012 112.845 26.1762 111.986 26.1711C111.126 26.166 110.276 25.9916 109.484 25.658C108.692 25.3243 107.973 24.8379 107.369 24.2265C106.765 23.6151 106.287 22.8907 105.963 22.0947C105.639 21.2986 105.475 20.4465 105.48 19.587C105.418 15.2993 105.418 11.0092 105.48 6.7167C105.462 5.84133 105.619 4.97121 105.942 4.15752C106.266 3.34383 106.748 2.60307 107.362 1.97869C107.976 1.35432 108.708 0.858989 109.516 0.521873C110.325 0.184757 111.192 0.0126431 112.067 0.0156641C115.719 0.0156641 118.506 2.91596 118.584 6.79477C118.605 8.90082 118.57 11.0139 118.57 13.12Z" fill="#2D2D2D"/>
</svg>
