<svg width="166" height="206" viewBox="0 0 166 206" fill="none" xmlns="http://www.w3.org/2000/svg">
<path d="M12.387 144.992C12.6665 143.49 13.0158 140.555 13.7145 137.726C14.6716 134.3 14.6901 130.68 13.7683 127.244C12.8464 123.808 11.018 120.684 8.47431 118.197C5.42182 115.244 3.03912 111.67 1.48736 107.717C0.457673 104.903 0.314124 101.841 1.07605 98.9436C1.83798 96.0457 3.46888 93.4506 5.74942 91.5071C9.55656 88.4299 12.3116 84.244 13.6324 79.5303C14.9533 74.8166 14.7744 69.8086 13.1206 65.2012C12.3073 62.9884 11.9931 60.6232 12.2003 58.2748C12.4076 55.9264 13.1312 53.6528 14.3195 51.6166C15.5078 49.5805 17.1314 47.8322 19.0741 46.4967C21.0169 45.1611 23.2307 44.2714 25.5573 43.8911C30.1734 43.1617 34.4428 40.9974 37.7599 37.7054C41.077 34.4134 43.2734 30.1608 44.0378 25.5503C44.4545 23.1282 45.4051 20.8292 46.8207 18.8201C48.2362 16.811 50.0812 15.1422 52.2218 13.9347C54.3625 12.7272 56.7451 12.0113 59.1967 11.8391C61.6484 11.6669 64.1076 12.0426 66.396 12.9389C76.1428 16.0831 83.8634 13.463 90.8504 6.40616C99.4443 -2.11791 107.829 -2.15285 116.353 6.40616C119.388 9.83257 123.373 12.2797 127.802 13.4366C132.23 14.5936 136.903 14.4081 141.226 12.904C152.37 9.75984 160.405 14.5808 163.235 25.9346C164.029 30.2753 166.125 34.2717 169.245 37.392C172.366 40.5122 176.362 42.6084 180.702 43.4019C184.329 43.9098 187.678 45.6228 190.213 48.2652C192.748 50.9075 194.32 54.3258 194.676 57.9699C194.913 60.8848 194.568 63.8176 193.663 66.5986C192.349 70.5298 192.19 74.7557 193.205 78.7746C194.221 82.7935 196.368 86.4365 199.393 89.2712C209.419 99.7517 209.209 106.983 199.043 117.429C196.259 119.979 194.249 123.261 193.242 126.899C192.235 130.538 192.272 134.387 193.349 138.005C194.401 141.215 194.863 144.588 194.711 147.962C194.446 151.383 193.091 154.63 190.847 157.226C188.603 159.822 185.587 161.632 182.24 162.39C179.829 163.089 177.419 163.822 175.253 164.73C172.872 165.581 170.72 166.97 168.963 168.787C167.206 170.605 165.892 172.803 165.122 175.211C164.318 177.586 163.585 179.962 162.746 182.198C162.194 184.279 161.238 186.231 159.931 187.942C158.624 189.653 156.993 191.09 155.131 192.171C153.268 193.251 151.212 193.953 149.077 194.238C146.943 194.523 144.774 194.385 142.693 193.831C141.086 193.517 139.549 193.097 137.942 192.748C134.583 191.828 131.039 191.812 127.672 192.702C124.304 193.591 121.23 195.355 118.763 197.814C115.932 200.754 112.564 203.126 108.842 204.801C105.782 206.034 102.407 206.248 99.2162 205.411C96.0256 204.574 93.1899 202.73 91.1299 200.154C84.1429 192.119 75.7935 190.792 65.907 193.167C55.0074 195.997 47.0772 191.56 44.3522 180.661C43.3976 175.945 41.0378 171.629 37.5832 168.281C34.1287 164.932 29.7412 162.708 24.9983 161.901C16.4743 160.468 12.3171 154.53 12.387 144.992ZM103.602 26.9478C88.4971 26.9273 73.7253 31.3822 61.1507 39.7502C48.5762 48.1183 38.7627 60.0243 32.9492 73.9651C27.1357 87.9059 25.5827 103.257 28.4864 118.079C31.3901 132.902 38.6203 146.532 49.2641 157.249C59.9079 167.966 73.4882 175.289 88.2907 178.294C103.093 181.299 118.454 179.851 132.434 174.133C146.415 168.415 158.387 158.683 166.841 146.166C175.295 133.649 179.851 118.908 179.934 103.804C180.059 93.7207 178.174 83.713 174.389 74.366C170.604 65.019 164.995 56.52 157.889 49.365C150.782 42.2099 142.322 36.5423 133.001 32.6934C123.68 28.8444 113.686 26.8913 103.602 26.9478Z" fill="#2D2D2D"/>
<path d="M103.427 37.428C116.52 37.4214 129.321 41.3038 140.204 48.5826C151.088 55.8615 159.565 66.2087 164.559 78.3121C169.554 90.4156 170.841 103.73 168.257 116.566C165.674 129.402 159.336 141.181 150.049 150.41C140.761 159.639 128.941 165.902 116.089 168.403C103.237 170.905 89.9309 169.533 77.8595 164.462C65.7881 159.39 55.4949 150.848 48.2855 139.918C41.0761 128.988 37.2753 116.164 37.3653 103.07C37.43 85.6083 44.4242 68.8856 56.8111 56.5773C69.1981 44.2689 85.9646 37.3816 103.427 37.428ZM74.8503 84.5549C70.4485 84.5549 66.0118 84.5549 61.61 84.5549C60.001 84.9064 58.4647 85.5329 57.0685 86.4065C57.7324 87.9192 58.6412 89.3117 59.7585 90.5286C66.1865 95.4195 72.7192 100.241 79.4267 104.782C80.1547 105.101 80.8084 105.568 81.3462 106.154C81.8839 106.739 82.294 107.43 82.5502 108.182C82.8065 108.935 82.9034 109.732 82.8348 110.524C82.7662 111.316 82.5335 112.085 82.1516 112.782C79.4267 119.769 77.2258 126.965 75.1647 134.162C74.7807 136.471 74.6985 138.819 74.9201 141.149C77.04 140.556 79.0897 139.736 81.0337 138.704C87.4617 134.232 93.8199 129.691 99.9684 124.73C100.438 124.234 101.005 123.839 101.632 123.569C102.26 123.3 102.936 123.161 103.619 123.161C104.302 123.161 104.978 123.3 105.606 123.569C106.234 123.839 106.8 124.234 107.27 124.73C113.768 129.795 120.51 134.616 127.252 139.367C128.729 140.107 130.306 140.626 131.934 140.905C132.399 139.211 132.541 137.445 132.353 135.699C129.977 127.664 127.427 119.664 124.632 111.734C124.331 111.16 124.147 110.531 124.092 109.884C124.036 109.238 124.109 108.587 124.308 107.969C124.506 107.351 124.825 106.779 125.247 106.286C125.668 105.793 126.184 105.389 126.763 105.097C133.564 100.439 140.26 95.6059 146.851 90.5985C147.399 90.5817 147.936 90.436 148.418 90.1729C148.9 89.9099 149.313 89.5367 149.624 89.0842C149.934 88.6317 150.134 88.1123 150.207 87.5682C150.279 87.0241 150.222 86.4709 150.041 85.9528C149.86 85.4347 149.559 84.9666 149.163 84.5865C148.767 84.2064 148.287 83.9247 147.762 83.7647C147.237 83.6047 146.681 83.571 146.141 83.6658C145.6 83.7605 145.089 83.9811 144.65 84.3101C136.37 84.1005 128.126 84.1005 119.846 84.3101C118.617 84.4828 117.369 84.1714 116.365 83.4414C115.362 82.7114 114.681 81.6199 114.466 80.3974C111.986 72.3624 109.401 64.3625 106.606 56.4673C106.082 54.9301 104.44 53.7426 103.322 52.4151C102.169 53.5913 101.181 54.919 100.388 56.3623C97.6626 64.3275 95.0076 72.2929 92.5971 80.3279C92.5209 80.9416 92.3212 81.5335 92.0099 82.0678C91.6986 82.6022 91.2821 83.0678 90.7858 83.4368C90.2895 83.8057 89.7237 84.07 89.1224 84.2142C88.521 84.3583 87.8967 84.3794 87.287 84.2756C83.1298 84.3804 79.0075 84.5549 74.8503 84.5549Z" fill="#2D2D2D"/>
</svg>
