<svg width="248" height="188" viewBox="0 0 248 188" fill="none" xmlns="http://www.w3.org/2000/svg">
<path d="M247.204 86.3513C247.004 86.6726 246.767 86.994 246.593 87.3026C244.902 90.5679 241.676 92.2328 238.494 91.4807C235.029 90.6579 232.824 87.8746 232.786 84.1272C232.741 80.6368 232.786 77.1401 232.786 73.1484C231.751 74.1254 231.057 74.7425 230.408 75.3917L155.227 150.553C150.329 155.451 146.832 155.457 141.953 150.553C136.233 144.826 130.525 139.092 124.598 133.198C123.891 133.84 123.255 134.419 122.67 135.017C106.394 151.279 90.0805 167.497 73.9079 183.869C72.6387 185.235 71.0872 186.31 69.3612 187.017C67.6352 187.724 65.7759 188.047 63.9126 187.963C45.4774 187.809 27.0358 187.918 8.60064 187.886C2.74484 187.886 -0.861197 182.454 1.65211 177.499C3.15623 174.535 5.72096 173.436 8.97347 173.443C26.2066 173.481 43.4398 173.443 60.6794 173.52C61.6941 173.559 62.7048 173.372 63.6385 172.973C64.5723 172.574 65.4057 171.973 66.0788 171.212C83.4341 153.767 100.826 136.356 118.254 118.979C122.663 114.576 126.392 114.595 130.846 119.05C136.683 124.874 142.513 130.717 148.124 136.334L221.634 62.7931C218.548 62.7931 215.09 62.7931 211.632 62.7931C208.861 62.7931 206.612 61.7903 205.088 59.4634C204.385 58.4046 203.978 57.177 203.91 55.9079C203.842 54.6388 204.116 53.3746 204.701 52.2468C205.287 51.1189 206.165 50.1686 207.242 49.4946C208.319 48.8205 209.558 48.4474 210.828 48.4139C220.605 48.2403 230.388 48.3303 240.165 48.4139C243.739 48.4139 245.706 50.7922 247.204 53.6783V86.3513Z" fill="#2D2D2D"/>
<path d="M0.855061 158.903V146.998C0.855061 138.096 0.732931 129.193 0.855061 120.297C1.11218 106.008 7.03225 94.5081 18.326 85.7469C19.6116 84.7313 20.5822 84.6542 22.0864 85.5091C36.7548 93.8011 51.5068 93.8011 66.188 85.5091C67.6793 84.6671 68.6178 84.6993 69.9419 85.7277C81.0043 94.3154 86.8666 105.571 87.3936 119.564C87.5158 122.778 88.2421 126.326 87.1301 129.084C86.0181 131.841 82.9648 133.815 80.7022 136.077C73.5158 143.298 66.3059 150.491 59.0724 157.656C58.306 158.405 57.3 158.86 56.2313 158.941C38.1882 159.018 20.1451 158.999 2.10207 158.993C1.8321 158.999 1.51713 158.954 0.855061 158.903Z" fill="#2D2D2D"/>
<path d="M116.338 29.0788C116.342 23.3726 118.037 17.7955 121.209 13.0521C124.381 8.30861 128.887 4.61151 134.159 2.42786C139.431 0.2442 145.231 -0.328058 150.828 0.783301C156.425 1.89466 161.567 4.63978 165.605 8.67197C169.642 12.7042 172.394 17.8425 173.513 23.438C174.632 29.0334 174.068 34.8348 171.891 40.1096C169.714 45.3843 166.023 49.8957 161.284 53.0738C156.545 56.2519 150.97 57.9542 145.264 57.9656C137.602 57.9572 130.255 54.9122 124.833 49.4978C119.412 44.0834 116.357 36.741 116.338 29.0788Z" fill="#2D2D2D"/>
<path d="M44.1404 77.2108C38.4331 77.2121 32.8536 75.5215 28.1067 72.3528C23.3599 69.1841 19.6588 64.6795 17.4712 59.4081C15.2836 54.1367 14.7077 48.3352 15.8161 42.7366C16.9246 37.138 19.6677 31.9936 23.6989 27.9534C27.73 23.9133 32.8683 21.1587 38.4645 20.0377C44.0606 18.9168 49.8634 19.4799 55.1396 21.6558C60.4159 23.8316 64.9288 27.5227 68.108 32.2625C71.2872 37.0023 72.9902 42.5781 73.0016 48.2854C72.9847 55.9406 69.9406 63.2783 64.5336 68.6973C59.1265 74.1164 51.7956 77.1769 44.1404 77.2108Z" fill="#2D2D2D"/>
<path d="M148.182 116.144C145.675 113.573 143.078 110.861 140.417 108.219C131 98.8663 118.003 98.892 108.561 108.277C106.484 110.34 104.473 112.468 102.133 114.833C101.014 99.2326 101.747 84.6221 112.732 72.6662C114.886 70.32 117.438 68.3467 119.803 66.1934C120.748 65.3256 121.545 65.332 122.734 66.0134C137.685 74.601 152.669 74.5689 167.684 66.0969C168.06 65.8996 168.475 65.7864 168.899 65.7654C169.323 65.7443 169.746 65.8157 170.14 65.9748C175.083 68.9895 180.9 75.7709 183.317 80.9775L148.182 116.144Z" fill="#2D2D2D"/>
</svg>
