<svg width="192" height="220" viewBox="0 0 192 220" fill="none" xmlns="http://www.w3.org/2000/svg">
<path d="M0 65.1109C0 61.1234 0 57.1359 0 53.1184C0.069946 49.2564 1.5989 45.5642 4.27964 42.7833C6.96039 40.0024 10.5943 38.339 14.4511 38.1276C45.7537 36.387 75.7587 25.0384 100.378 5.62779C105.025 2.03001 109.852 -0.368547 115.699 1.46032C118.152 2.21239 120.442 3.42323 122.444 5.02831C147.281 24.6123 177.518 36.1214 209.091 38.0079C212.902 38.0964 216.537 39.6337 219.255 42.3072C221.973 44.9807 223.57 48.5893 223.722 52.3988C224.377 64.4117 223.875 76.4598 222.223 88.3766C220.015 107.222 214.75 125.582 206.632 142.733C191.628 174.251 165.481 199.095 133.238 212.47C128.441 214.539 123.494 216.248 118.607 218.167C114.379 219.787 109.702 219.787 105.475 218.167C82.1275 210.687 60.8953 197.759 43.5331 180.45C27.7795 164.154 16.0545 144.4 9.29428 122.766C3.35873 104.114 0.226452 84.6833 0 65.1109ZM158.452 153.347C158.693 149.083 158.693 144.808 158.452 140.544C158.242 137.766 157.233 135.108 155.547 132.89C154.554 131.584 153.351 130.463 151.995 129.569C151.048 128.945 150.026 128.431 148.948 128.042C142.372 125.364 135.836 122.655 129.34 119.917C128.806 119.626 128.195 119.505 127.59 119.569C126.985 119.633 126.414 119.88 125.952 120.277C124.123 121.656 122.264 122.983 120.406 124.31C118.547 125.636 116.688 126.963 114.859 128.342C114.103 129.05 113.106 129.445 112.071 129.445C111.243 129.445 110.44 129.193 109.765 128.73C109.595 128.614 109.434 128.484 109.283 128.342C105.775 125.674 102.087 123.185 98.5491 120.517C98.4074 120.386 98.2552 120.269 98.0945 120.165C97.6915 119.906 97.2349 119.736 96.7556 119.671C96.0852 119.58 95.4029 119.697 94.8014 120.007C88.2954 122.825 81.7895 125.554 75.1936 128.132C73.2567 128.863 71.4993 130.002 70.0406 131.471C68.5819 132.94 67.4559 134.705 66.7388 136.647C65.2796 140.315 65.4233 144.107 65.5677 147.92C65.6362 149.727 65.7048 151.54 65.6029 153.347C65.6018 153.367 65.6007 153.387 65.5995 153.407L158.452 153.347ZM139.624 76.8938C139.618 71.3716 137.977 65.9745 134.909 61.383C131.841 56.7915 127.483 53.2109 122.383 51.0923C117.283 48.9736 111.671 48.4121 106.252 49.4779C100.834 50.5437 95.852 53.1893 91.9348 57.0816C88.0175 60.9739 85.3399 65.9388 84.2394 71.3503C83.8029 73.4967 83.6222 75.6753 83.6933 77.8419C83.8015 81.1378 84.4921 84.4059 85.7507 87.4909C87.8366 92.604 91.3893 96.9852 95.961 100.083C100.533 103.18 105.919 104.855 111.441 104.896C115.136 104.928 118.8 104.227 122.222 102.833C125.644 101.439 128.755 99.3806 131.376 96.7763C133.997 94.1721 136.076 91.0739 137.491 87.6611C138.907 84.2483 139.632 80.5886 139.624 76.8938Z" fill="#2D2D2D"/>
<path fill-rule="evenodd" clip-rule="evenodd" d="M137.764 87.8764C139.114 84.3772 139.747 80.6423 139.624 76.8938C139.632 80.5886 138.907 84.2483 137.491 87.6611C136.076 91.0739 133.997 94.1721 131.376 96.7763C128.755 99.3806 125.644 101.439 122.222 102.833C118.8 104.227 115.136 104.928 111.441 104.896C105.919 104.855 100.533 103.18 95.961 100.083C91.3893 96.9852 87.8366 92.604 85.7507 87.4909C84.4921 84.4059 83.8015 81.1378 83.6933 77.8419C83.6973 81.2707 84.3316 84.6723 85.5675 87.8764C86.9173 91.3756 88.9569 94.5678 91.5652 97.2628C94.1734 99.9579 97.297 102.101 100.75 103.564C104.203 105.028 107.915 105.782 111.666 105.782C115.416 105.782 119.129 105.028 122.582 103.564C126.035 102.101 129.159 99.9579 131.767 97.2628C134.375 94.5678 136.415 91.3756 137.764 87.8764Z" fill="#2D2D2D"/>
<path fill-rule="evenodd" clip-rule="evenodd" d="M65.5096 153.347H65.6029C65.7048 151.54 65.6362 149.727 65.5677 147.92C65.4233 144.107 65.2796 140.315 66.7388 136.647C67.4559 134.705 68.5819 132.94 70.0406 131.471C71.4993 130.002 73.2567 128.863 75.1936 128.132C81.7895 125.554 88.2954 122.825 94.8014 120.007C95.4029 119.697 96.0852 119.58 96.7556 119.671C97.2349 119.736 97.6915 119.906 98.0945 120.165C97.6701 119.872 97.181 119.682 96.6657 119.612C95.9953 119.52 95.313 119.638 94.7115 119.947C88.2055 122.765 81.6995 125.494 75.1036 128.072C73.1666 128.803 71.4094 129.942 69.9507 131.411C68.492 132.88 67.366 134.645 66.6489 136.587C65.1897 140.255 65.3333 144.047 65.4778 147.86C65.547 149.687 65.6164 151.52 65.5096 153.347ZM109.765 128.73C110.44 129.193 111.243 129.445 112.071 129.445C113.106 129.445 114.103 129.05 114.859 128.342C116.688 126.963 118.547 125.636 120.406 124.31C122.264 122.983 124.123 121.656 125.952 120.277C126.414 119.88 126.985 119.633 127.59 119.569C128.195 119.505 128.806 119.626 129.34 119.917C135.836 122.655 142.372 125.364 148.948 128.042C150.026 128.431 151.048 128.945 151.995 129.569M109.765 128.73C110.421 129.154 111.189 129.385 111.981 129.385C113.017 129.385 114.013 128.99 114.769 128.282C116.598 126.903 118.457 125.576 120.316 124.25C122.175 122.923 124.033 121.596 125.862 120.217C126.324 119.82 126.895 119.573 127.5 119.509C128.105 119.445 128.716 119.566 129.25 119.857C135.746 122.615 142.282 125.324 148.858 127.982C149.97 128.384 151.023 128.918 151.995 129.569" fill="#2D2D2D"/>
</svg>
