<svg width="42" height="43" viewBox="0 0 42 43" fill="none" xmlns="http://www.w3.org/2000/svg">
<rect y="0.234375" width="42" height="42" rx="4" fill="white"/>
<path d="M31.365 16.3731C31.2467 15.9597 31.0179 15.5866 30.7007 15.2915C30.3757 14.9873 29.9766 14.7702 29.5411 14.6597C27.9148 14.2385 21.394 14.2385 21.394 14.2385C18.6757 14.2086 15.9587 14.3425 13.2573 14.6389C12.8218 14.7572 12.424 14.9795 12.0977 15.2863C11.7766 15.5892 11.5452 15.9623 11.423 16.3718C11.1318 17.9136 10.9901 19.4788 11.0005 21.0479C10.9901 22.6144 11.1318 24.1796 11.423 25.724C11.5426 26.1309 11.774 26.5027 12.0951 26.803C12.4162 27.1046 12.8166 27.3204 13.2573 27.4361C14.9057 27.856 21.394 27.856 21.394 27.856C24.1162 27.8872 26.8371 27.7533 29.5411 27.4569C29.9766 27.3464 30.3757 27.1293 30.7007 26.8251C31.0179 26.53 31.2467 26.1569 31.3637 25.7435C31.6627 24.203 31.8083 22.6365 31.7979 21.0674C31.8213 19.4918 31.6757 17.9188 31.365 16.3731ZM19.3218 23.9612V18.1346L24.7467 21.0479L19.3218 23.9612Z" fill="#C41E3D"/>
</svg>
